G04 EAGLE Gerber RS-274X export*
G75*
%MOMM*%
%FSLAX34Y34*%
%LPD*%
%INBottom Copper*%
%IPPOS*%
%AMOC8*
5,1,8,0,0,1.08239X$1,22.5*%
G01*
%ADD10R,1.803000X1.600000*%
%ADD11R,2.032000X0.660400*%
%ADD12R,1.600000X1.800000*%
%ADD13C,1.879600*%
%ADD14C,0.152400*%
%ADD15C,0.525000*%
%ADD16C,0.150000*%
%ADD17C,0.508000*%
%ADD18C,0.254000*%


D10*
X257700Y661380D03*
X257700Y689820D03*
D11*
X396792Y725750D03*
X396792Y713050D03*
X396792Y700350D03*
X396792Y687650D03*
X396792Y674950D03*
X396792Y662250D03*
X396792Y649550D03*
X396792Y636850D03*
X296208Y636850D03*
X296208Y649550D03*
X296208Y662250D03*
X296208Y674950D03*
X296208Y687650D03*
X296208Y700350D03*
X296208Y713050D03*
X296208Y725750D03*
X296208Y624150D03*
X296208Y611450D03*
X296208Y598750D03*
X296208Y586050D03*
X396792Y624150D03*
X396792Y611450D03*
X396792Y598750D03*
X396792Y586050D03*
D12*
X336000Y560000D03*
X364000Y560000D03*
D11*
X870292Y339850D03*
X870292Y327150D03*
X870292Y314450D03*
X870292Y301750D03*
X870292Y289050D03*
X870292Y276350D03*
X870292Y263650D03*
X870292Y250950D03*
X769708Y250950D03*
X769708Y263650D03*
X769708Y276350D03*
X769708Y289050D03*
X769708Y301750D03*
X769708Y314450D03*
X769708Y327150D03*
X769708Y339850D03*
X769708Y238250D03*
X769708Y225550D03*
X769708Y212850D03*
X769708Y200150D03*
X870292Y238250D03*
X870292Y225550D03*
X870292Y212850D03*
X870292Y200150D03*
D10*
X740000Y255780D03*
X740000Y284220D03*
D12*
X806000Y170000D03*
X834000Y170000D03*
D13*
X970000Y477000D03*
X970000Y451600D03*
X970000Y426200D03*
X970000Y400800D03*
X970000Y375400D03*
X970000Y350000D03*
X970000Y324600D03*
X970000Y299200D03*
D11*
X230292Y209850D03*
X230292Y197150D03*
X230292Y184450D03*
X230292Y171750D03*
X230292Y159050D03*
X230292Y146350D03*
X230292Y133650D03*
X230292Y120950D03*
X129708Y120950D03*
X129708Y133650D03*
X129708Y146350D03*
X129708Y159050D03*
X129708Y171750D03*
X129708Y184450D03*
X129708Y197150D03*
X129708Y209850D03*
X129708Y108250D03*
X129708Y95550D03*
X129708Y82850D03*
X129708Y70150D03*
X230292Y108250D03*
X230292Y95550D03*
X230292Y82850D03*
X230292Y70150D03*
D10*
X80000Y125780D03*
X80000Y154220D03*
D12*
X166000Y40000D03*
X194000Y40000D03*
D14*
X135000Y940000D02*
X105000Y970000D01*
X135000Y940000D02*
X295000Y940000D01*
X455000Y940000D01*
X535000Y940000D01*
X550000Y940000D02*
X565000Y925000D01*
X550000Y940000D02*
X535000Y940000D01*
X300000Y600000D02*
X305000Y595000D01*
X343000Y595000D01*
X300000Y600000D02*
X296208Y598750D01*
D15*
X135000Y940000D03*
X105000Y970000D03*
X295000Y940000D03*
X455000Y940000D03*
X535000Y940000D03*
X565000Y925000D03*
X343000Y595000D03*
D14*
X355000Y845000D02*
X340000Y860000D01*
X315000Y860000D01*
X440000Y845000D02*
X455000Y860000D01*
X440000Y845000D02*
X355000Y845000D01*
X455000Y860000D02*
X535000Y860000D01*
X550000Y860000D02*
X565000Y845000D01*
X550000Y860000D02*
X535000Y860000D01*
X295000Y625000D02*
X200000Y625000D01*
X295000Y625000D02*
X296208Y624150D01*
X315000Y860000D02*
X165000Y860000D01*
D15*
X355000Y845000D03*
X315000Y860000D03*
X455000Y860000D03*
X535000Y860000D03*
X565000Y845000D03*
X200000Y625000D03*
X165000Y860000D03*
D14*
X280000Y685000D02*
X290000Y675000D01*
X295000Y675000D01*
X296208Y674950D01*
X300000Y675000D02*
X325000Y675000D01*
X300000Y675000D02*
X296208Y674950D01*
X325000Y745000D02*
X380000Y745000D01*
X450000Y745000D01*
X530000Y745000D01*
X550000Y745000D02*
X565000Y760000D01*
X550000Y745000D02*
X530000Y745000D01*
X190000Y745000D02*
X155000Y780000D01*
X190000Y745000D02*
X325000Y745000D01*
D15*
X280000Y685000D03*
X325000Y675000D03*
X380000Y745000D03*
X325000Y745000D03*
X450000Y745000D03*
X530000Y745000D03*
X565000Y760000D03*
X155000Y780000D03*
D14*
X150000Y715000D02*
X135000Y700000D01*
X120000Y685000D01*
X220000Y715000D02*
X295000Y715000D01*
X220000Y715000D02*
X150000Y715000D01*
X295000Y715000D02*
X296208Y713050D01*
X140000Y700000D02*
X135000Y700000D01*
X220000Y700000D02*
X220000Y715000D01*
X314500Y700500D02*
X315000Y700000D01*
X340000Y700000D02*
X375000Y665000D01*
X340000Y700000D02*
X315000Y700000D01*
D15*
X120000Y685000D03*
X140000Y700000D03*
X220000Y700000D03*
X315000Y700000D03*
X375000Y665000D03*
D16*
X301950Y713050D02*
X296208Y713050D01*
X301950Y713050D02*
X314500Y700500D01*
D14*
X330000Y685000D02*
X355000Y660000D01*
X330000Y685000D02*
X300000Y685000D01*
X296208Y687650D01*
X520000Y605000D02*
X535000Y620000D01*
X540000Y620000D01*
X120000Y620000D02*
X105000Y605000D01*
X120000Y620000D02*
X135000Y620000D01*
X145000Y585000D02*
X220000Y585000D01*
X225000Y580000D02*
X380000Y580000D01*
X460000Y580000D01*
X225000Y580000D02*
X220000Y585000D01*
D15*
X355000Y660000D03*
X520000Y605000D03*
X540000Y620000D03*
X105000Y605000D03*
X135000Y620000D03*
X145000Y585000D03*
X220000Y585000D03*
X460000Y580000D03*
X380000Y580000D03*
D14*
X125000Y610000D02*
X115000Y600000D01*
X235000Y610000D02*
X295000Y610000D01*
X235000Y610000D02*
X155000Y610000D01*
X125000Y610000D01*
X295000Y610000D02*
X296208Y611450D01*
X310000Y505000D02*
X380000Y505000D01*
X460000Y505000D01*
X540000Y505000D01*
X275000Y505000D02*
X240000Y540000D01*
X275000Y505000D02*
X310000Y505000D01*
D15*
X115000Y600000D03*
X155000Y610000D03*
X235000Y610000D03*
X380000Y505000D03*
X310000Y505000D03*
X460000Y505000D03*
X540000Y505000D03*
X240000Y540000D03*
D14*
X250000Y635000D02*
X295000Y635000D01*
X296208Y636850D01*
D15*
X330000Y630000D03*
X250000Y635000D03*
D16*
X296208Y636850D02*
X323150Y636850D01*
X330000Y630000D01*
D14*
X272000Y705000D02*
X260000Y705000D01*
D15*
X260000Y705000D03*
D16*
X276650Y700350D02*
X296208Y700350D01*
X276650Y700350D02*
X272000Y705000D01*
D14*
X341000Y720000D02*
X75000Y720000D01*
D15*
X75000Y720000D03*
D16*
X347950Y713050D02*
X396792Y713050D01*
X347950Y713050D02*
X341000Y720000D01*
D14*
X348000Y605000D02*
X245000Y605000D01*
X240000Y600000D01*
X125000Y600000D01*
D15*
X125000Y600000D03*
D16*
X354250Y598750D02*
X396792Y598750D01*
X354250Y598750D02*
X348000Y605000D01*
D14*
X385000Y665000D02*
X395000Y665000D01*
X385000Y665000D02*
X340000Y710000D01*
X335000Y710000D01*
X395000Y665000D02*
X396792Y662250D01*
D15*
X335000Y710000D03*
D14*
X396242Y649000D02*
X396792Y649550D01*
X396242Y649000D02*
X331000Y649000D01*
D15*
X331000Y649000D03*
D14*
X380000Y700000D02*
X395000Y700000D01*
X396792Y700350D01*
D15*
X380000Y700000D03*
D14*
X400000Y610000D02*
X445000Y610000D01*
X400000Y610000D02*
X396792Y611450D01*
D15*
X445000Y610000D03*
D14*
X400000Y675000D02*
X525000Y675000D01*
X400000Y675000D02*
X396792Y674950D01*
D15*
X525000Y675000D03*
D14*
X600000Y640000D02*
X400000Y640000D01*
X396792Y636850D01*
D15*
X600000Y640000D03*
D14*
X340000Y560000D02*
X336000Y560000D01*
X260000Y685000D02*
X257700Y689820D01*
X295000Y665000D02*
X296208Y662250D01*
X80000Y154220D02*
X80000Y150000D01*
X125000Y145000D02*
X129708Y146350D01*
X765000Y275000D02*
X769708Y276350D01*
X170000Y40000D02*
X166000Y40000D01*
X805000Y170000D02*
X806000Y170000D01*
X740000Y280000D02*
X740000Y284220D01*
X129708Y146350D02*
X130000Y145000D01*
X255000Y685000D02*
X257700Y689820D01*
X300000Y660000D02*
X305000Y660000D01*
X300000Y660000D02*
X296208Y662250D01*
D17*
X963000Y470000D02*
X970000Y477000D01*
X963000Y470000D02*
X757000Y470000D01*
X610000Y470000D01*
X336000Y544000D02*
X336000Y560000D01*
X336000Y544000D02*
X350000Y530000D01*
X550000Y530000D02*
X610000Y470000D01*
X550000Y530000D02*
X350000Y530000D01*
X296208Y662250D02*
X282750Y662250D01*
X273000Y672000D02*
X273000Y676000D01*
X259180Y689820D01*
X257700Y689820D01*
X273000Y672000D02*
X282750Y662250D01*
X349000Y573000D02*
X336000Y560000D01*
X349000Y573000D02*
X350000Y573000D01*
D15*
X350000Y573000D03*
X315000Y662000D03*
D17*
X296458Y662000D01*
X296208Y662250D01*
X747870Y276350D02*
X769708Y276350D01*
X747870Y276350D02*
X740000Y284220D01*
X740000Y298000D01*
D15*
X740000Y298000D03*
X757000Y463000D03*
D17*
X757000Y470000D01*
D15*
X147000Y21000D03*
D17*
X166000Y40000D01*
X129708Y146350D02*
X87870Y146350D01*
X80000Y154220D01*
X129708Y146350D02*
X172350Y146350D01*
X175000Y149000D01*
D15*
X175000Y149000D03*
X153000Y106000D03*
D17*
X166000Y93000D01*
X166000Y40000D01*
D15*
X720000Y52000D03*
D17*
X740000Y52000D01*
X767000Y52000D01*
X806000Y91000D02*
X806000Y170000D01*
X806000Y91000D02*
X767000Y52000D01*
X740000Y52000D02*
X740000Y136000D01*
D15*
X740000Y136000D03*
D14*
X400000Y625000D02*
X396792Y624150D01*
X400000Y685000D02*
X396792Y687650D01*
X364000Y560000D02*
X360000Y560000D01*
X195000Y40000D02*
X194000Y40000D01*
X230000Y105000D02*
X230292Y108250D01*
X235000Y110000D02*
X240000Y110000D01*
X235000Y170000D02*
X230292Y171750D01*
X235000Y110000D02*
X230292Y108250D01*
X870292Y238250D02*
X875000Y240000D01*
X875000Y300000D02*
X870292Y301750D01*
X834000Y170000D02*
X830000Y170000D01*
D17*
X910000Y451600D02*
X970000Y451600D01*
X910000Y451600D02*
X448400Y451600D01*
X420000Y480000D01*
X417650Y687650D02*
X396792Y687650D01*
X417650Y687650D02*
X420000Y690000D01*
D15*
X420000Y690000D03*
X420000Y620000D03*
D17*
X415850Y624150D02*
X396792Y624150D01*
X415850Y624150D02*
X420000Y620000D01*
D15*
X420000Y480000D03*
D17*
X400000Y560000D02*
X364000Y560000D01*
D15*
X400000Y560000D03*
D17*
X870292Y238250D02*
X894250Y238250D01*
X895000Y239000D01*
D15*
X895000Y239000D03*
X910000Y440000D03*
D17*
X910000Y451600D01*
X891750Y301750D02*
X870292Y301750D01*
X891750Y301750D02*
X900000Y310000D01*
D15*
X900000Y310000D03*
D17*
X258250Y171750D02*
X230292Y171750D01*
X258250Y171750D02*
X260000Y170000D01*
D15*
X260000Y170000D03*
X260000Y110000D03*
D17*
X258250Y108250D02*
X230292Y108250D01*
X258250Y108250D02*
X260000Y110000D01*
X230292Y108250D02*
X209250Y108250D01*
X194000Y93000D02*
X194000Y40000D01*
X194000Y93000D02*
X209250Y108250D01*
X194000Y40000D02*
X680000Y40000D01*
X780000Y40000D01*
X685000Y45000D02*
X680000Y40000D01*
X685000Y45000D02*
X685000Y95000D01*
D15*
X685000Y95000D03*
X900000Y160000D03*
D17*
X860000Y120000D01*
X780000Y40000D01*
D15*
X860000Y100000D03*
D18*
X860000Y120000D01*
D17*
X870000Y170000D02*
X834000Y170000D01*
X870000Y170000D02*
X880000Y180000D01*
D15*
X880000Y180000D03*
D14*
X270000Y650000D02*
X260000Y660000D01*
X270000Y650000D02*
X295000Y650000D01*
X260000Y660000D02*
X257700Y661380D01*
X295000Y650000D02*
X296208Y649550D01*
X125000Y70000D02*
X80000Y70000D01*
X65000Y85000D01*
X65000Y430000D02*
X65000Y512000D01*
X65000Y430000D02*
X65000Y220000D01*
X65000Y85000D01*
X140000Y590000D02*
X145000Y595000D01*
X225000Y595000D01*
X129708Y70150D02*
X125000Y70000D01*
X735000Y170000D02*
X765000Y200000D01*
X735000Y170000D02*
X315000Y170000D01*
X305000Y160000D01*
X250000Y160000D01*
X245000Y165000D01*
X195000Y165000D01*
X140000Y220000D01*
X65000Y220000D01*
X765000Y200000D02*
X769708Y200150D01*
X970000Y430000D02*
X65000Y430000D01*
X970000Y430000D02*
X970000Y426200D01*
D16*
X140000Y590000D02*
X65000Y515000D01*
X65000Y512000D01*
X233950Y586050D02*
X296208Y586050D01*
X233950Y586050D02*
X225000Y595000D01*
D14*
X240000Y75000D02*
X235000Y70000D01*
X240000Y75000D02*
X430000Y75000D01*
X520000Y165000D01*
X761000Y165000D01*
X796000Y200000D01*
X870000Y200000D01*
X235000Y70000D02*
X230292Y70150D01*
X870000Y200000D02*
X870292Y200150D01*
X860000Y590000D02*
X416000Y590000D01*
X860000Y590000D02*
X960000Y490000D01*
X920000Y245000D02*
X875000Y200000D01*
X920000Y245000D02*
X940000Y245000D01*
X955000Y260000D01*
X955000Y375000D01*
X970000Y375000D01*
X875000Y200000D02*
X870292Y200150D01*
X970000Y375000D02*
X970000Y375400D01*
D15*
X960000Y490000D03*
D16*
X412050Y586050D02*
X396792Y586050D01*
X412050Y586050D02*
X416000Y590000D01*
D14*
X427000Y720000D02*
X755000Y720000D01*
X980000Y495000D01*
D15*
X980000Y495000D03*
D16*
X421250Y725750D02*
X396792Y725750D01*
X421250Y725750D02*
X427000Y720000D01*
D14*
X251000Y226000D02*
X235000Y210000D01*
X251000Y226000D02*
X743000Y226000D01*
X750000Y340000D02*
X765000Y340000D01*
X235000Y210000D02*
X230292Y209850D01*
X765000Y340000D02*
X769708Y339850D01*
D15*
X743000Y226000D03*
X750000Y340000D03*
D14*
X780000Y860000D02*
X780000Y905000D01*
X765000Y210000D02*
X729000Y210000D01*
X765000Y210000D02*
X769708Y212850D01*
D15*
X780000Y860000D03*
X780000Y905000D03*
X729000Y210000D03*
D14*
X770000Y235000D02*
X825000Y235000D01*
X770000Y235000D02*
X769708Y238250D01*
X775000Y745000D02*
X700000Y745000D01*
X775000Y745000D02*
X855000Y745000D01*
X935000Y745000D01*
D15*
X825000Y235000D03*
X700000Y745000D03*
X775000Y745000D03*
X855000Y745000D03*
X935000Y745000D03*
D14*
X810000Y290000D02*
X770000Y290000D01*
X805000Y485000D02*
X785000Y505000D01*
X770000Y290000D02*
X769708Y289050D01*
X785000Y505000D02*
X700000Y505000D01*
X835000Y485000D02*
X855000Y505000D01*
X835000Y485000D02*
X805000Y485000D01*
X855000Y505000D02*
X935000Y505000D01*
D15*
X810000Y290000D03*
X805000Y485000D03*
X785000Y505000D03*
X700000Y505000D03*
X855000Y505000D03*
X935000Y505000D03*
X860000Y380000D03*
X860000Y420000D03*
X935000Y380000D03*
X790000Y335000D03*
X705000Y340000D03*
X775000Y415000D03*
D16*
X788000Y402000D01*
X913000Y402000D02*
X935000Y380000D01*
X878000Y402000D02*
X788000Y402000D01*
X878000Y402000D02*
X882000Y402000D01*
X913000Y402000D01*
X882000Y402000D02*
X860000Y380000D01*
X878000Y402000D02*
X860000Y420000D01*
X717850Y327150D02*
X705000Y340000D01*
X717850Y327150D02*
X769708Y327150D01*
X782150Y327150D01*
X790000Y335000D01*
D14*
X729000Y304000D02*
X720000Y295000D01*
X767458Y304000D02*
X769708Y301750D01*
X767458Y304000D02*
X729000Y304000D01*
X705000Y295000D02*
X700000Y300000D01*
X705000Y295000D02*
X720000Y295000D01*
X770000Y300000D02*
X790000Y300000D01*
X770000Y300000D02*
X769708Y301750D01*
D15*
X720000Y295000D03*
X700000Y300000D03*
X790000Y300000D03*
X940000Y270000D03*
D16*
X935000Y275000D01*
X891000Y275000D01*
D15*
X891000Y275000D03*
D14*
X430000Y265000D02*
X415000Y280000D01*
X430000Y265000D02*
X455000Y265000D01*
X535000Y265000D01*
X760000Y220000D02*
X765000Y225000D01*
X760000Y220000D02*
X750000Y220000D01*
X765000Y225000D02*
X769708Y225550D01*
D15*
X415000Y280000D03*
X455000Y265000D03*
X535000Y265000D03*
X750000Y220000D03*
D14*
X755000Y250000D02*
X765000Y250000D01*
X755000Y250000D02*
X750000Y245000D01*
X590000Y245000D01*
X765000Y250000D02*
X769708Y250950D01*
D15*
X590000Y245000D03*
X675000Y310000D03*
D16*
X679450Y314450D02*
X769708Y314450D01*
X679450Y314450D02*
X675000Y310000D01*
D14*
X805000Y330000D02*
X870000Y330000D01*
X805000Y330000D02*
X785000Y350000D01*
X705000Y350000D01*
X695000Y340000D01*
X870000Y330000D02*
X870292Y327150D01*
X470000Y315000D02*
X430000Y275000D01*
X470000Y315000D02*
X670000Y315000D01*
X695000Y340000D01*
D15*
X695000Y340000D03*
X430000Y275000D03*
D14*
X830000Y210000D02*
X870000Y210000D01*
X870292Y212850D01*
X765000Y145000D02*
X510000Y145000D01*
D15*
X830000Y210000D03*
X510000Y145000D03*
X765000Y145000D03*
D14*
X845000Y275000D02*
X870000Y275000D01*
X870292Y276350D01*
X760000Y155000D02*
X560000Y155000D01*
X760000Y155000D02*
X790000Y185000D01*
X845000Y185000D01*
D15*
X845000Y275000D03*
X560000Y155000D03*
X845000Y185000D03*
D14*
X875000Y265000D02*
X930000Y265000D01*
X875000Y265000D02*
X870292Y263650D01*
X645000Y270000D02*
X630000Y255000D01*
X645000Y270000D02*
X840000Y270000D01*
X845000Y265000D01*
X870000Y265000D01*
X870292Y263650D01*
D15*
X930000Y265000D03*
X630000Y255000D03*
D14*
X875000Y315000D02*
X885000Y325000D01*
X885000Y360000D01*
X715000Y360000D01*
X870292Y314450D02*
X875000Y315000D01*
X665000Y320000D02*
X445000Y320000D01*
X665000Y320000D02*
X705000Y360000D01*
X715000Y360000D01*
D15*
X715000Y360000D03*
X445000Y320000D03*
D14*
X825000Y225000D02*
X870000Y225000D01*
X870292Y225550D01*
X575000Y380000D02*
X525000Y330000D01*
X575000Y380000D02*
X785000Y380000D01*
D15*
X825000Y225000D03*
X525000Y330000D03*
X785000Y380000D03*
D14*
X875000Y290000D02*
X890000Y290000D01*
X875000Y290000D02*
X870292Y289050D01*
X615000Y370000D02*
X585000Y340000D01*
X615000Y370000D02*
X880000Y370000D01*
X950000Y300000D01*
X950000Y290000D01*
X890000Y290000D01*
D15*
X890000Y290000D03*
X585000Y340000D03*
D14*
X435000Y235000D02*
X355000Y315000D01*
X600000Y235000D02*
X746000Y235000D01*
X600000Y235000D02*
X435000Y235000D01*
X746000Y235000D02*
X756000Y245000D01*
X785000Y245000D01*
X935000Y250000D02*
X940000Y255000D01*
X935000Y250000D02*
X875000Y250000D01*
X870292Y250950D01*
D15*
X355000Y315000D03*
X600000Y235000D03*
X940000Y255000D03*
D16*
X870292Y250950D02*
X790950Y250950D01*
X785000Y245000D01*
D14*
X745000Y265000D02*
X740000Y260000D01*
X745000Y265000D02*
X765000Y265000D01*
X740000Y260000D02*
X740000Y255780D01*
X765000Y265000D02*
X769708Y263650D01*
X300000Y725000D02*
X310000Y735000D01*
X805000Y735000D01*
X815000Y350000D02*
X825000Y340000D01*
X870000Y340000D01*
X300000Y725000D02*
X296208Y725750D01*
X870000Y340000D02*
X870292Y339850D01*
D15*
X805000Y735000D03*
X815000Y350000D03*
D14*
X985000Y260000D02*
X820000Y95000D01*
X985000Y260000D02*
X985000Y350000D01*
X970000Y350000D01*
D15*
X820000Y95000D03*
X155000Y125000D03*
D16*
X150950Y120950D02*
X129708Y120950D01*
X150950Y120950D02*
X155000Y125000D01*
D15*
X110000Y170000D03*
D16*
X116450Y184450D02*
X129708Y184450D01*
X116450Y184450D02*
X111000Y179000D01*
X111000Y171000D01*
X110000Y170000D01*
D14*
X235000Y195000D02*
X285000Y195000D01*
X235000Y195000D02*
X230292Y197150D01*
D15*
X285000Y195000D03*
D14*
X250000Y85000D02*
X235000Y85000D01*
X230292Y82850D01*
D15*
X250000Y85000D03*
D14*
X230000Y145000D02*
X205000Y145000D01*
X155000Y195000D01*
X230292Y146350D02*
X230000Y145000D01*
D15*
X155000Y195000D03*
D14*
X147000Y140000D02*
X75000Y140000D01*
D15*
X75000Y140000D03*
D16*
X153350Y133650D02*
X230292Y133650D01*
X153350Y133650D02*
X147000Y140000D01*
D14*
X300000Y185000D02*
X310000Y175000D01*
X300000Y185000D02*
X235000Y185000D01*
X230292Y184450D01*
D15*
X310000Y175000D03*
D14*
X230000Y95000D02*
X210000Y95000D01*
X230000Y95000D02*
X230292Y95550D01*
D15*
X210000Y95000D03*
D14*
X205000Y155000D02*
X210000Y160000D01*
X230000Y160000D01*
X230292Y159050D01*
D15*
X205000Y155000D03*
D14*
X115000Y115000D02*
X80000Y80000D01*
X115000Y115000D02*
X159000Y115000D01*
D15*
X80000Y80000D03*
D16*
X164950Y120950D02*
X230292Y120950D01*
X164950Y120950D02*
X159000Y115000D01*
D14*
X80000Y125780D02*
X80000Y130000D01*
X125000Y135000D02*
X129708Y133650D01*
D17*
X87870Y133650D01*
X80000Y125780D01*
M02*
