G04 EAGLE Gerber RS-274X export*
G75*
%MOMM*%
%FSLAX34Y34*%
%LPD*%
%INTop Copper*%
%IPPOS*%
%AMOC8*
5,1,8,0,0,1.08239X$1,22.5*%
G01*
%ADD10R,1.500000X1.500000*%
%ADD11C,1.879600*%
%ADD12R,1.200000X3.200000*%
%ADD13R,1.800000X1.600000*%
%ADD14C,0.152400*%
%ADD15C,0.525000*%
%ADD16C,0.150000*%
%ADD17C,0.508000*%
%ADD18C,0.254000*%


D10*
X60000Y957500D03*
X60000Y922500D03*
X140000Y877500D03*
X140000Y842500D03*
X220000Y877500D03*
X220000Y842500D03*
X300000Y877500D03*
X300000Y842500D03*
X380000Y877500D03*
X380000Y842500D03*
X460000Y877500D03*
X460000Y842500D03*
X540000Y877500D03*
X540000Y842500D03*
X620000Y877500D03*
X620000Y842500D03*
X60000Y797500D03*
X60000Y762500D03*
X140000Y797500D03*
X140000Y762500D03*
X220000Y797500D03*
X220000Y762500D03*
X140000Y957500D03*
X140000Y922500D03*
X300000Y797500D03*
X300000Y762500D03*
X380000Y797500D03*
X380000Y762500D03*
X460000Y797500D03*
X460000Y762500D03*
X540000Y797500D03*
X540000Y762500D03*
X620000Y797500D03*
X620000Y762500D03*
X60000Y717500D03*
X60000Y682500D03*
X140000Y717500D03*
X140000Y682500D03*
X220000Y717500D03*
X220000Y682500D03*
X300000Y717500D03*
X300000Y682500D03*
X380000Y717500D03*
X380000Y682500D03*
X220000Y957500D03*
X220000Y922500D03*
X460000Y717500D03*
X460000Y682500D03*
X540000Y717500D03*
X540000Y682500D03*
X620000Y717500D03*
X620000Y682500D03*
X60000Y637500D03*
X60000Y602500D03*
X140000Y637500D03*
X140000Y602500D03*
X220000Y637500D03*
X220000Y602500D03*
X300000Y637500D03*
X300000Y602500D03*
X380000Y637500D03*
X380000Y602500D03*
X460000Y637500D03*
X460000Y602500D03*
X540000Y637500D03*
X540000Y602500D03*
X300000Y957500D03*
X300000Y922500D03*
X620000Y637500D03*
X620000Y602500D03*
X60000Y557500D03*
X60000Y522500D03*
X140000Y557500D03*
X140000Y522500D03*
X220000Y557500D03*
X220000Y522500D03*
X300000Y557500D03*
X300000Y522500D03*
X380000Y557500D03*
X380000Y522500D03*
X460000Y557500D03*
X460000Y522500D03*
X540000Y557500D03*
X540000Y522500D03*
X620000Y557500D03*
X620000Y522500D03*
X60000Y477500D03*
X60000Y442500D03*
X380000Y957500D03*
X380000Y922500D03*
X140000Y477500D03*
X140000Y442500D03*
X220000Y477500D03*
X220000Y442500D03*
X300000Y477500D03*
X300000Y442500D03*
X380000Y477500D03*
X380000Y442500D03*
X460000Y477500D03*
X460000Y442500D03*
X540000Y477500D03*
X540000Y442500D03*
X620000Y477500D03*
X620000Y442500D03*
X60000Y397500D03*
X60000Y362500D03*
X140000Y397500D03*
X140000Y362500D03*
X220000Y397500D03*
X220000Y362500D03*
X460000Y957500D03*
X460000Y922500D03*
X300000Y397500D03*
X300000Y362500D03*
X380000Y397500D03*
X380000Y362500D03*
X460000Y397500D03*
X460000Y362500D03*
X540000Y397500D03*
X540000Y362500D03*
X620000Y397500D03*
X620000Y362500D03*
X540000Y957500D03*
X540000Y922500D03*
X620000Y957500D03*
X620000Y922500D03*
X60000Y877500D03*
X60000Y842500D03*
X700000Y957500D03*
X700000Y922500D03*
X780000Y957500D03*
X780000Y922500D03*
X860000Y957500D03*
X860000Y922500D03*
X940000Y957500D03*
X940000Y922500D03*
X700000Y877500D03*
X700000Y842500D03*
X780000Y877500D03*
X780000Y842500D03*
X860000Y877500D03*
X860000Y842500D03*
X940000Y877500D03*
X940000Y842500D03*
X700000Y797500D03*
X700000Y762500D03*
X780000Y797500D03*
X780000Y762500D03*
X860000Y797500D03*
X860000Y762500D03*
X940000Y797500D03*
X940000Y762500D03*
X700000Y717500D03*
X700000Y682500D03*
X780000Y717500D03*
X780000Y682500D03*
X860000Y717500D03*
X860000Y682500D03*
X940000Y717500D03*
X940000Y682500D03*
X700000Y637500D03*
X700000Y602500D03*
X780000Y637500D03*
X780000Y602500D03*
X860000Y637500D03*
X860000Y602500D03*
X940000Y637500D03*
X940000Y602500D03*
X700000Y557500D03*
X700000Y522500D03*
X780000Y557500D03*
X780000Y522500D03*
X860000Y557500D03*
X860000Y522500D03*
X940000Y557500D03*
X940000Y522500D03*
X700000Y477500D03*
X700000Y442500D03*
X780000Y477500D03*
X780000Y442500D03*
X860000Y477500D03*
X860000Y442500D03*
X940000Y477500D03*
X940000Y442500D03*
X700000Y397500D03*
X700000Y362500D03*
X780000Y397500D03*
X780000Y362500D03*
X860000Y397500D03*
X860000Y362500D03*
X940000Y397500D03*
X940000Y362500D03*
X700000Y317500D03*
X700000Y282500D03*
X780000Y317500D03*
X780000Y282500D03*
X860000Y317500D03*
X860000Y282500D03*
X940000Y317500D03*
X940000Y282500D03*
X700000Y237500D03*
X700000Y202500D03*
X780000Y237500D03*
X780000Y202500D03*
X860000Y237500D03*
X860000Y202500D03*
X940000Y237500D03*
X940000Y202500D03*
X700000Y157500D03*
X700000Y122500D03*
X780000Y157500D03*
X780000Y122500D03*
X860000Y157500D03*
X860000Y122500D03*
X940000Y157500D03*
X940000Y122500D03*
X380000Y317500D03*
X380000Y282500D03*
X460000Y317500D03*
X460000Y282500D03*
X540000Y317500D03*
X540000Y282500D03*
X620000Y317500D03*
X620000Y282500D03*
X380000Y237500D03*
X380000Y202500D03*
X460000Y237500D03*
X460000Y202500D03*
X540000Y237500D03*
X540000Y202500D03*
X620000Y237500D03*
X620000Y202500D03*
X380000Y157500D03*
X380000Y122500D03*
X460000Y157500D03*
X460000Y122500D03*
X540000Y157500D03*
X540000Y122500D03*
X620000Y157500D03*
X620000Y122500D03*
X380000Y77500D03*
X380000Y42500D03*
X460000Y77500D03*
X460000Y42500D03*
X540000Y77500D03*
X540000Y42500D03*
X620000Y77500D03*
X620000Y42500D03*
X60000Y317500D03*
X60000Y282500D03*
X140000Y317500D03*
X140000Y282500D03*
X220000Y317500D03*
X220000Y282500D03*
X300000Y317500D03*
X300000Y282500D03*
D11*
X970000Y477000D03*
X970000Y451600D03*
X970000Y426200D03*
X970000Y400800D03*
X970000Y375400D03*
X970000Y350000D03*
X970000Y324600D03*
X970000Y299200D03*
D12*
X800000Y94000D03*
X800000Y26000D03*
X760000Y26000D03*
X760000Y94000D03*
X880000Y94000D03*
X880000Y26000D03*
X840000Y26000D03*
X840000Y94000D03*
D10*
X300000Y237500D03*
X300000Y202500D03*
X220000Y237500D03*
X220000Y202500D03*
X140000Y237500D03*
X140000Y202500D03*
X60000Y237500D03*
X60000Y202500D03*
X300000Y157500D03*
X300000Y122500D03*
X220000Y157500D03*
X220000Y122500D03*
X140000Y157500D03*
X140000Y122500D03*
X60000Y157500D03*
X60000Y122500D03*
X300000Y77500D03*
X300000Y42500D03*
X220000Y77500D03*
X220000Y42500D03*
X140000Y77500D03*
X140000Y42500D03*
X60000Y77500D03*
X60000Y42500D03*
D13*
X670000Y46000D03*
X670000Y74000D03*
X700000Y46000D03*
X700000Y74000D03*
D14*
X105000Y970000D02*
X115000Y980000D01*
X105000Y970000D02*
X60000Y925000D01*
X115000Y980000D02*
X210000Y980000D01*
X210000Y935000D01*
X220000Y925000D01*
X60000Y925000D02*
X60000Y922500D01*
X220000Y922500D02*
X220000Y925000D01*
X140000Y925000D02*
X135000Y930000D01*
X135000Y940000D01*
X140000Y925000D02*
X140000Y922500D01*
X295000Y930000D02*
X300000Y925000D01*
X295000Y930000D02*
X295000Y940000D01*
X300000Y925000D02*
X300000Y922500D01*
X380000Y925000D02*
X390000Y935000D01*
X390000Y970000D01*
X380000Y980000D01*
X345000Y980000D02*
X210000Y980000D01*
X345000Y980000D02*
X380000Y980000D01*
X380000Y925000D02*
X380000Y922500D01*
X455000Y930000D02*
X460000Y925000D01*
X455000Y930000D02*
X455000Y940000D01*
X460000Y925000D02*
X460000Y922500D01*
X535000Y930000D02*
X540000Y925000D01*
X535000Y930000D02*
X535000Y940000D01*
X540000Y925000D02*
X540000Y922500D01*
X565000Y925000D02*
X620000Y925000D01*
X620000Y922500D01*
X345000Y597000D02*
X343000Y595000D01*
X345000Y597000D02*
X345000Y980000D01*
D15*
X135000Y940000D03*
X105000Y970000D03*
X295000Y940000D03*
X455000Y940000D03*
X535000Y940000D03*
X565000Y925000D03*
X343000Y595000D03*
D14*
X220000Y845000D02*
X285000Y910000D01*
X285000Y965000D01*
X290000Y970000D01*
X315000Y970000D01*
X315000Y860000D01*
X300000Y845000D01*
X220000Y845000D02*
X220000Y842500D01*
X300000Y842500D02*
X300000Y845000D01*
X355000Y845000D02*
X380000Y845000D01*
X380000Y842500D01*
X455000Y850000D02*
X460000Y845000D01*
X455000Y850000D02*
X455000Y860000D01*
X460000Y845000D02*
X460000Y842500D01*
X535000Y850000D02*
X540000Y845000D01*
X535000Y850000D02*
X535000Y860000D01*
X540000Y845000D02*
X540000Y842500D01*
X565000Y845000D02*
X620000Y845000D01*
X620000Y842500D01*
X120000Y905000D02*
X60000Y845000D01*
X120000Y905000D02*
X120000Y965000D01*
X130000Y975000D01*
X165000Y975000D01*
X165000Y860000D02*
X165000Y765000D01*
X165000Y860000D02*
X165000Y975000D01*
X165000Y765000D02*
X150000Y750000D01*
X130000Y750000D01*
X130000Y775000D01*
X140000Y785000D01*
X150000Y785000D01*
X150000Y830000D01*
X140000Y840000D01*
X60000Y842500D02*
X60000Y845000D01*
X140000Y842500D02*
X140000Y840000D01*
X150000Y675000D02*
X200000Y625000D01*
X150000Y675000D02*
X150000Y750000D01*
D15*
X355000Y845000D03*
X315000Y860000D03*
X455000Y860000D03*
X535000Y860000D03*
X565000Y845000D03*
X200000Y625000D03*
X165000Y860000D03*
D14*
X125000Y830000D02*
X60000Y765000D01*
X125000Y830000D02*
X125000Y965000D01*
X130000Y970000D01*
X155000Y970000D01*
X155000Y780000D01*
X140000Y765000D01*
X60000Y765000D02*
X60000Y762500D01*
X140000Y762500D02*
X140000Y765000D01*
X220000Y760000D02*
X280000Y760000D01*
X280000Y685000D01*
X220000Y760000D02*
X220000Y762500D01*
X320000Y740000D02*
X325000Y735000D01*
X320000Y740000D02*
X300000Y760000D01*
X325000Y735000D02*
X325000Y675000D01*
X300000Y760000D02*
X300000Y762500D01*
X380000Y762500D02*
X380000Y745000D01*
X325000Y745000D02*
X320000Y740000D01*
X450000Y750000D02*
X460000Y760000D01*
X450000Y750000D02*
X450000Y745000D01*
X460000Y760000D02*
X460000Y762500D01*
X530000Y750000D02*
X540000Y760000D01*
X530000Y750000D02*
X530000Y745000D01*
X540000Y760000D02*
X540000Y762500D01*
X565000Y760000D02*
X620000Y760000D01*
X620000Y762500D01*
D15*
X280000Y685000D03*
X325000Y675000D03*
X380000Y745000D03*
X325000Y745000D03*
X450000Y745000D03*
X530000Y745000D03*
X565000Y760000D03*
X155000Y780000D03*
D14*
X120000Y685000D02*
X60000Y685000D01*
X60000Y682500D01*
X140000Y682500D02*
X140000Y700000D01*
X220000Y700000D02*
X220000Y682500D01*
X300000Y685000D02*
X315000Y700000D01*
X300000Y685000D02*
X300000Y682500D01*
X375000Y675000D02*
X380000Y680000D01*
X375000Y675000D02*
X375000Y665000D01*
X380000Y680000D02*
X380000Y682500D01*
X460000Y685000D02*
X525000Y750000D01*
X525000Y965000D01*
X530000Y970000D01*
X555000Y970000D01*
X555000Y700000D01*
X540000Y685000D01*
X460000Y685000D02*
X460000Y682500D01*
X540000Y682500D02*
X540000Y685000D01*
X620000Y685000D02*
X635000Y700000D01*
X635000Y965000D01*
X630000Y970000D01*
X555000Y970000D01*
X620000Y685000D02*
X620000Y682500D01*
X445000Y750000D02*
X380000Y685000D01*
X445000Y750000D02*
X445000Y965000D01*
X450000Y970000D01*
X530000Y970000D01*
X380000Y685000D02*
X380000Y682500D01*
D15*
X120000Y685000D03*
X140000Y700000D03*
X220000Y700000D03*
X315000Y700000D03*
X375000Y665000D03*
D14*
X355000Y630000D02*
X380000Y605000D01*
X355000Y630000D02*
X355000Y660000D01*
X380000Y605000D02*
X380000Y602500D01*
X460000Y605000D02*
X520000Y605000D01*
X540000Y605000D02*
X540000Y620000D01*
X460000Y605000D02*
X460000Y602500D01*
X540000Y605000D02*
X620000Y605000D01*
X620000Y602500D01*
X540000Y602500D02*
X540000Y605000D01*
X105000Y605000D02*
X60000Y605000D01*
X135000Y620000D02*
X140000Y615000D01*
X140000Y602500D01*
X60000Y602500D02*
X60000Y605000D01*
X220000Y605000D02*
X240000Y625000D01*
X240000Y695000D01*
X260000Y715000D01*
X270000Y715000D01*
X270000Y635000D01*
X300000Y605000D01*
X220000Y605000D02*
X220000Y602500D01*
X300000Y602500D02*
X300000Y605000D01*
X145000Y595000D02*
X140000Y600000D01*
X145000Y595000D02*
X145000Y585000D01*
X220000Y585000D02*
X220000Y602500D01*
X140000Y602500D02*
X140000Y600000D01*
X460000Y602500D02*
X460000Y580000D01*
X380000Y580000D02*
X380000Y602500D01*
D15*
X355000Y660000D03*
X520000Y605000D03*
X540000Y620000D03*
X105000Y605000D03*
X135000Y620000D03*
X145000Y585000D03*
X220000Y585000D03*
X460000Y580000D03*
X380000Y580000D03*
D14*
X115000Y580000D02*
X60000Y525000D01*
X115000Y580000D02*
X115000Y600000D01*
X60000Y525000D02*
X60000Y522500D01*
X140000Y525000D02*
X155000Y540000D01*
X155000Y610000D01*
X140000Y525000D02*
X140000Y522500D01*
X220000Y525000D02*
X235000Y540000D01*
X235000Y610000D01*
X220000Y525000D02*
X220000Y522500D01*
X300000Y520000D02*
X310000Y510000D01*
X310000Y505000D02*
X310000Y465000D01*
X310000Y505000D02*
X310000Y510000D01*
X310000Y465000D02*
X300000Y455000D01*
X290000Y455000D01*
X290000Y430000D01*
X340000Y380000D01*
X635000Y380000D01*
X635000Y505000D01*
X620000Y520000D01*
X300000Y520000D02*
X300000Y522500D01*
X620000Y522500D02*
X620000Y520000D01*
X380000Y522500D02*
X380000Y505000D01*
X460000Y505000D02*
X460000Y522500D01*
X540000Y522500D02*
X540000Y505000D01*
X240000Y540000D02*
X235000Y540000D01*
D15*
X115000Y600000D03*
X155000Y610000D03*
X235000Y610000D03*
X380000Y505000D03*
X310000Y505000D03*
X460000Y505000D03*
X540000Y505000D03*
X240000Y540000D03*
D14*
X125000Y375000D02*
X60000Y440000D01*
X125000Y375000D02*
X150000Y375000D01*
X150000Y385000D02*
X150000Y430000D01*
X150000Y385000D02*
X150000Y375000D01*
X150000Y430000D02*
X140000Y440000D01*
X60000Y440000D02*
X60000Y442500D01*
X140000Y442500D02*
X140000Y440000D01*
X220000Y440000D02*
X230000Y430000D01*
X230000Y385000D01*
X150000Y385000D01*
X220000Y440000D02*
X220000Y442500D01*
X330000Y440000D02*
X365000Y440000D01*
X330000Y440000D02*
X300000Y440000D01*
X365000Y440000D02*
X365000Y390000D01*
X370000Y385000D01*
X390000Y385000D01*
X390000Y430000D01*
X380000Y440000D01*
X300000Y440000D02*
X300000Y442500D01*
X380000Y442500D02*
X380000Y440000D01*
X460000Y440000D02*
X470000Y430000D01*
X470000Y385000D01*
X390000Y385000D01*
X460000Y440000D02*
X460000Y442500D01*
X540000Y440000D02*
X550000Y430000D01*
X550000Y385000D01*
X470000Y385000D01*
X540000Y440000D02*
X540000Y442500D01*
X620000Y440000D02*
X630000Y430000D01*
X630000Y385000D01*
X550000Y385000D01*
X620000Y440000D02*
X620000Y442500D01*
X330000Y440000D02*
X330000Y630000D01*
X250000Y475000D02*
X220000Y445000D01*
X250000Y475000D02*
X250000Y635000D01*
X220000Y445000D02*
X220000Y442500D01*
D15*
X330000Y630000D03*
X250000Y635000D03*
D14*
X140000Y365000D02*
X60000Y365000D01*
X60000Y362500D01*
X140000Y365000D02*
X220000Y365000D01*
X140000Y365000D02*
X140000Y362500D01*
X220000Y365000D02*
X260000Y365000D01*
X300000Y365000D01*
X220000Y365000D02*
X220000Y362500D01*
X300000Y365000D02*
X380000Y365000D01*
X300000Y365000D02*
X300000Y362500D01*
X380000Y365000D02*
X460000Y365000D01*
X380000Y365000D02*
X380000Y362500D01*
X460000Y365000D02*
X540000Y365000D01*
X460000Y365000D02*
X460000Y362500D01*
X540000Y365000D02*
X620000Y365000D01*
X620000Y362500D01*
X540000Y362500D02*
X540000Y365000D01*
X260000Y365000D02*
X260000Y705000D01*
D15*
X260000Y705000D03*
D14*
X50000Y410000D02*
X60000Y400000D01*
X50000Y410000D02*
X50000Y465000D01*
X60000Y475000D01*
X60000Y400000D02*
X60000Y397500D01*
X60000Y475000D02*
X60000Y477500D01*
X50000Y545000D02*
X60000Y555000D01*
X50000Y545000D02*
X50000Y465000D01*
X60000Y555000D02*
X60000Y557500D01*
X50000Y625000D02*
X60000Y635000D01*
X50000Y625000D02*
X50000Y545000D01*
X60000Y635000D02*
X60000Y637500D01*
X50000Y705000D02*
X60000Y715000D01*
X50000Y705000D02*
X50000Y625000D01*
X60000Y715000D02*
X60000Y717500D01*
X50000Y785000D02*
X60000Y795000D01*
X50000Y785000D02*
X50000Y705000D01*
X60000Y795000D02*
X60000Y797500D01*
X50000Y865000D02*
X60000Y875000D01*
X50000Y865000D02*
X50000Y785000D01*
X60000Y875000D02*
X60000Y877500D01*
X50000Y945000D02*
X60000Y955000D01*
X50000Y945000D02*
X50000Y865000D01*
X60000Y955000D02*
X60000Y957500D01*
X60000Y720000D02*
X75000Y720000D01*
X60000Y720000D02*
X60000Y717500D01*
D15*
X75000Y720000D03*
D14*
X140000Y800000D02*
X130000Y810000D01*
X130000Y865000D01*
X140000Y875000D01*
X140000Y800000D02*
X140000Y797500D01*
X140000Y875000D02*
X140000Y877500D01*
X150000Y945000D02*
X140000Y955000D01*
X150000Y945000D02*
X150000Y890000D01*
X140000Y880000D01*
X140000Y955000D02*
X140000Y957500D01*
X140000Y880000D02*
X140000Y877500D01*
X130000Y650000D02*
X140000Y640000D01*
X130000Y650000D02*
X130000Y705000D01*
X140000Y715000D01*
X140000Y640000D02*
X140000Y637500D01*
X140000Y715000D02*
X140000Y717500D01*
X130000Y410000D02*
X140000Y400000D01*
X130000Y410000D02*
X130000Y465000D01*
X140000Y475000D01*
X140000Y400000D02*
X140000Y397500D01*
X140000Y475000D02*
X140000Y477500D01*
X130000Y545000D02*
X140000Y555000D01*
X130000Y545000D02*
X130000Y465000D01*
X140000Y555000D02*
X140000Y557500D01*
X130000Y595000D02*
X125000Y600000D01*
X130000Y595000D02*
X130000Y545000D01*
X125000Y620000D02*
X140000Y635000D01*
X125000Y620000D02*
X125000Y600000D01*
X140000Y635000D02*
X140000Y637500D01*
X125000Y780000D02*
X140000Y795000D01*
X125000Y780000D02*
X125000Y735000D01*
X140000Y720000D01*
X140000Y795000D02*
X140000Y797500D01*
X140000Y720000D02*
X140000Y717500D01*
D15*
X125000Y600000D03*
D14*
X210000Y410000D02*
X220000Y400000D01*
X210000Y410000D02*
X210000Y465000D01*
X220000Y475000D01*
X220000Y400000D02*
X220000Y397500D01*
X220000Y475000D02*
X220000Y477500D01*
X210000Y545000D02*
X220000Y555000D01*
X210000Y545000D02*
X210000Y465000D01*
X220000Y555000D02*
X220000Y557500D01*
X210000Y625000D02*
X220000Y635000D01*
X210000Y625000D02*
X210000Y545000D01*
X220000Y635000D02*
X220000Y637500D01*
X210000Y705000D02*
X220000Y715000D01*
X210000Y705000D02*
X210000Y625000D01*
X220000Y715000D02*
X220000Y717500D01*
X210000Y785000D02*
X220000Y795000D01*
X210000Y785000D02*
X210000Y705000D01*
X220000Y795000D02*
X220000Y797500D01*
X210000Y865000D02*
X220000Y875000D01*
X210000Y865000D02*
X210000Y785000D01*
X220000Y875000D02*
X220000Y877500D01*
X230000Y945000D02*
X220000Y955000D01*
X230000Y945000D02*
X230000Y890000D01*
X220000Y880000D01*
X220000Y955000D02*
X220000Y957500D01*
X220000Y880000D02*
X220000Y877500D01*
X335000Y955000D02*
X335000Y710000D01*
X335000Y955000D02*
X315000Y975000D01*
X220000Y975000D01*
X220000Y957500D01*
D15*
X335000Y710000D03*
D14*
X285000Y415000D02*
X300000Y400000D01*
X285000Y415000D02*
X285000Y460000D01*
X290000Y465000D02*
X300000Y475000D01*
X290000Y465000D02*
X285000Y460000D01*
X300000Y400000D02*
X300000Y397500D01*
X300000Y475000D02*
X300000Y477500D01*
X290000Y545000D02*
X300000Y555000D01*
X290000Y545000D02*
X290000Y465000D01*
X300000Y555000D02*
X300000Y557500D01*
X300000Y640000D02*
X290000Y650000D01*
X290000Y705000D01*
X300000Y715000D01*
X300000Y640000D02*
X300000Y637500D01*
X300000Y715000D02*
X300000Y717500D01*
X290000Y785000D02*
X300000Y795000D01*
X290000Y785000D02*
X290000Y705000D01*
X300000Y795000D02*
X300000Y797500D01*
X290000Y865000D02*
X300000Y875000D01*
X290000Y865000D02*
X290000Y785000D01*
X300000Y875000D02*
X300000Y877500D01*
X310000Y945000D02*
X300000Y955000D01*
X310000Y945000D02*
X310000Y890000D01*
X300000Y880000D01*
X300000Y955000D02*
X300000Y957500D01*
X300000Y880000D02*
X300000Y877500D01*
X310000Y645000D02*
X300000Y635000D01*
X300000Y637500D01*
X310000Y570000D02*
X300000Y560000D01*
X310000Y624000D02*
X310000Y626000D01*
X310000Y624000D02*
X310000Y570000D01*
X300000Y560000D02*
X300000Y557500D01*
D15*
X331000Y649000D03*
D16*
X314000Y649000D01*
X310000Y645000D01*
X300000Y637500D02*
X310000Y627500D01*
X310000Y624000D01*
D14*
X370000Y410000D02*
X380000Y400000D01*
X370000Y410000D02*
X370000Y465000D01*
X380000Y475000D01*
X380000Y400000D02*
X380000Y397500D01*
X380000Y475000D02*
X380000Y477500D01*
X370000Y545000D02*
X380000Y555000D01*
X370000Y545000D02*
X370000Y465000D01*
X380000Y555000D02*
X380000Y557500D01*
X390000Y625000D02*
X380000Y635000D01*
X390000Y625000D02*
X390000Y570000D01*
X380000Y560000D01*
X380000Y635000D02*
X380000Y637500D01*
X380000Y560000D02*
X380000Y557500D01*
X380000Y880000D02*
X370000Y890000D01*
X370000Y945000D01*
X380000Y955000D01*
X380000Y880000D02*
X380000Y877500D01*
X380000Y955000D02*
X380000Y957500D01*
X370000Y730000D02*
X380000Y720000D01*
X370000Y730000D02*
X370000Y785000D01*
X380000Y795000D01*
X380000Y720000D02*
X380000Y717500D01*
X380000Y795000D02*
X380000Y797500D01*
X380000Y717500D02*
X380000Y705000D01*
X380000Y700000D01*
X390000Y865000D02*
X380000Y875000D01*
X390000Y865000D02*
X390000Y810000D01*
X380000Y800000D01*
X380000Y875000D02*
X380000Y877500D01*
X380000Y800000D02*
X380000Y797500D01*
X365000Y655000D02*
X380000Y640000D01*
X365000Y655000D02*
X365000Y690000D01*
X380000Y705000D01*
X380000Y640000D02*
X380000Y637500D01*
D15*
X380000Y700000D03*
D14*
X460000Y800000D02*
X470000Y810000D01*
X470000Y865000D01*
X460000Y875000D01*
X460000Y800000D02*
X460000Y797500D01*
X460000Y875000D02*
X460000Y877500D01*
X470000Y945000D02*
X460000Y955000D01*
X470000Y945000D02*
X470000Y865000D01*
X460000Y955000D02*
X460000Y957500D01*
X450000Y410000D02*
X460000Y400000D01*
X450000Y410000D02*
X450000Y465000D01*
X460000Y475000D01*
X460000Y400000D02*
X460000Y397500D01*
X460000Y475000D02*
X460000Y477500D01*
X450000Y545000D02*
X460000Y555000D01*
X450000Y545000D02*
X450000Y465000D01*
X460000Y555000D02*
X460000Y557500D01*
X450000Y625000D02*
X460000Y635000D01*
X450000Y610000D02*
X450000Y545000D01*
X450000Y610000D02*
X450000Y625000D01*
X460000Y635000D02*
X460000Y637500D01*
X450000Y705000D02*
X460000Y715000D01*
X450000Y705000D02*
X450000Y625000D01*
X460000Y715000D02*
X460000Y717500D01*
X450000Y610000D02*
X445000Y610000D01*
X470000Y785000D02*
X460000Y795000D01*
X470000Y785000D02*
X470000Y730000D01*
X460000Y720000D01*
X460000Y795000D02*
X460000Y797500D01*
X460000Y720000D02*
X460000Y717500D01*
D15*
X445000Y610000D03*
D14*
X540000Y800000D02*
X550000Y810000D01*
X550000Y865000D01*
X540000Y875000D01*
X540000Y800000D02*
X540000Y797500D01*
X540000Y875000D02*
X540000Y877500D01*
X550000Y945000D02*
X540000Y955000D01*
X550000Y945000D02*
X550000Y865000D01*
X540000Y955000D02*
X540000Y957500D01*
X530000Y410000D02*
X540000Y400000D01*
X530000Y410000D02*
X530000Y465000D01*
X540000Y475000D01*
X540000Y400000D02*
X540000Y397500D01*
X540000Y475000D02*
X540000Y477500D01*
X530000Y545000D02*
X540000Y555000D01*
X530000Y545000D02*
X530000Y465000D01*
X540000Y555000D02*
X540000Y557500D01*
X530000Y625000D02*
X540000Y635000D01*
X530000Y625000D02*
X530000Y545000D01*
X540000Y635000D02*
X540000Y637500D01*
X530000Y705000D02*
X540000Y715000D01*
X530000Y675000D02*
X530000Y625000D01*
X530000Y675000D02*
X530000Y705000D01*
X540000Y715000D02*
X540000Y717500D01*
X530000Y675000D02*
X525000Y675000D01*
X550000Y785000D02*
X540000Y795000D01*
X550000Y785000D02*
X550000Y730000D01*
X540000Y720000D01*
X540000Y795000D02*
X540000Y797500D01*
X540000Y720000D02*
X540000Y717500D01*
D15*
X525000Y675000D03*
D14*
X620000Y720000D02*
X630000Y730000D01*
X630000Y785000D01*
X620000Y795000D01*
X620000Y720000D02*
X620000Y717500D01*
X620000Y795000D02*
X620000Y797500D01*
X630000Y865000D02*
X620000Y875000D01*
X630000Y865000D02*
X630000Y785000D01*
X620000Y875000D02*
X620000Y877500D01*
X630000Y945000D02*
X620000Y955000D01*
X630000Y945000D02*
X630000Y865000D01*
X620000Y955000D02*
X620000Y957500D01*
X610000Y410000D02*
X620000Y400000D01*
X610000Y410000D02*
X610000Y465000D01*
X620000Y475000D01*
X620000Y400000D02*
X620000Y397500D01*
X620000Y475000D02*
X620000Y477500D01*
X610000Y545000D02*
X620000Y555000D01*
X610000Y545000D02*
X610000Y465000D01*
X620000Y555000D02*
X620000Y557500D01*
X630000Y625000D02*
X620000Y635000D01*
X630000Y625000D02*
X630000Y570000D01*
X620000Y560000D01*
X620000Y635000D02*
X620000Y637500D01*
X620000Y560000D02*
X620000Y557500D01*
X620000Y640000D02*
X610000Y640000D01*
X600000Y640000D01*
X620000Y640000D02*
X620000Y637500D01*
X610000Y705000D02*
X620000Y715000D01*
X610000Y705000D02*
X610000Y640000D01*
X620000Y715000D02*
X620000Y717500D01*
D15*
X600000Y640000D03*
D14*
X670000Y45000D02*
X667500Y42500D01*
X700000Y45000D02*
X700000Y46000D01*
X670000Y46000D02*
X670000Y45000D01*
X700000Y46000D02*
X700000Y50000D01*
D15*
X350000Y573000D03*
D17*
X336000Y587000D01*
X336000Y623000D02*
X339000Y626000D01*
X336000Y623000D02*
X336000Y587000D01*
X330000Y662000D02*
X315000Y662000D01*
D15*
X315000Y662000D03*
D17*
X339000Y653000D02*
X339000Y626000D01*
X339000Y653000D02*
X330000Y662000D01*
D15*
X740000Y298000D03*
D17*
X740000Y446000D01*
X757000Y463000D01*
D15*
X757000Y463000D03*
D17*
X700000Y46000D02*
X671000Y46000D01*
X667500Y42500D01*
X670000Y46000D02*
X648000Y24000D01*
X150000Y24000D02*
X147000Y21000D01*
D15*
X147000Y21000D03*
D17*
X150000Y24000D02*
X648000Y24000D01*
D15*
X175000Y149000D03*
D17*
X175000Y128000D01*
X153000Y106000D01*
D15*
X153000Y106000D03*
D17*
X700000Y46000D02*
X714000Y46000D01*
X720000Y52000D01*
D15*
X720000Y52000D03*
X740000Y136000D03*
D17*
X740000Y212000D02*
X734000Y218000D01*
X734000Y281000D01*
X740000Y287000D02*
X740000Y298000D01*
X740000Y212000D02*
X740000Y136000D01*
X734000Y281000D02*
X740000Y287000D01*
D14*
X670000Y75000D02*
X670000Y74000D01*
X760000Y94000D02*
X760000Y100000D01*
X700000Y75000D02*
X700000Y74000D01*
D15*
X420000Y690000D03*
D17*
X420000Y620000D01*
D15*
X420000Y620000D03*
X420000Y480000D03*
D17*
X420000Y560000D01*
X420000Y620000D01*
D15*
X400000Y560000D03*
D17*
X420000Y560000D01*
D15*
X895000Y239000D03*
D17*
X910000Y254000D01*
D15*
X910000Y440000D03*
D17*
X910000Y310000D02*
X910000Y254000D01*
X910000Y310000D02*
X910000Y440000D01*
D15*
X900000Y310000D03*
D17*
X910000Y310000D01*
D15*
X260000Y170000D03*
D17*
X260000Y110000D01*
D15*
X260000Y110000D03*
D17*
X670000Y74000D02*
X685000Y74000D01*
X699000Y74000D01*
X700000Y75000D01*
D18*
X840000Y84000D02*
X840000Y94000D01*
X840000Y84000D02*
X825000Y69000D01*
X775000Y69000D01*
X760000Y84000D02*
X760000Y94000D01*
X760000Y84000D02*
X775000Y69000D01*
D15*
X685000Y95000D03*
D17*
X685000Y74000D01*
X895000Y200000D02*
X895000Y239000D01*
X895000Y195000D02*
X895000Y165000D01*
X900000Y160000D01*
D15*
X900000Y160000D03*
D18*
X854000Y94000D02*
X840000Y94000D01*
X854000Y94000D02*
X860000Y100000D01*
D15*
X860000Y100000D03*
X880000Y180000D03*
D17*
X895000Y195000D01*
X895000Y200000D01*
D14*
X955000Y485000D02*
X960000Y490000D01*
X955000Y485000D02*
X955000Y395000D01*
X970000Y380000D01*
X970000Y375400D01*
D15*
X960000Y490000D03*
D14*
X980000Y495000D02*
X985000Y490000D01*
X985000Y420000D01*
X970000Y405000D01*
X970000Y400800D01*
D15*
X980000Y495000D03*
D14*
X750000Y233000D02*
X743000Y226000D01*
X750000Y233000D02*
X750000Y340000D01*
D15*
X743000Y226000D03*
X750000Y340000D03*
D14*
X940000Y845000D02*
X930000Y855000D01*
X930000Y910000D01*
X940000Y920000D01*
X940000Y845000D02*
X940000Y842500D01*
X940000Y920000D02*
X940000Y922500D01*
X780000Y860000D02*
X780000Y842500D01*
X780000Y905000D02*
X780000Y922500D01*
X850000Y855000D02*
X860000Y845000D01*
X850000Y855000D02*
X850000Y910000D01*
X860000Y920000D01*
X860000Y845000D02*
X860000Y842500D01*
X860000Y920000D02*
X860000Y922500D01*
X810000Y955000D02*
X840000Y985000D01*
X810000Y955000D02*
X780000Y925000D01*
X840000Y985000D02*
X870000Y985000D01*
X870000Y970000D02*
X870000Y935000D01*
X870000Y970000D02*
X870000Y985000D01*
X870000Y935000D02*
X860000Y925000D01*
X780000Y925000D02*
X780000Y922500D01*
X860000Y922500D02*
X860000Y925000D01*
X940000Y925000D02*
X950000Y935000D01*
X950000Y970000D01*
X870000Y970000D01*
X940000Y925000D02*
X940000Y922500D01*
X700000Y845000D02*
X690000Y855000D01*
X690000Y910000D01*
X700000Y920000D01*
X700000Y845000D02*
X700000Y842500D01*
X700000Y920000D02*
X700000Y922500D01*
X725000Y214000D02*
X729000Y210000D01*
X725000Y214000D02*
X725000Y290000D01*
X730000Y295000D01*
X730000Y870000D01*
X710000Y890000D02*
X690000Y910000D01*
X710000Y890000D02*
X730000Y870000D01*
X810000Y955000D02*
X785000Y980000D01*
X710000Y980000D01*
X710000Y890000D01*
D15*
X780000Y860000D03*
X780000Y905000D03*
X729000Y210000D03*
D14*
X940000Y685000D02*
X930000Y695000D01*
X930000Y745000D02*
X930000Y750000D01*
X930000Y745000D02*
X930000Y695000D01*
X930000Y750000D02*
X940000Y760000D01*
X940000Y685000D02*
X940000Y682500D01*
X940000Y760000D02*
X940000Y762500D01*
X860000Y685000D02*
X850000Y695000D01*
X850000Y745000D02*
X850000Y750000D01*
X850000Y745000D02*
X850000Y695000D01*
X850000Y750000D02*
X860000Y760000D01*
X860000Y685000D02*
X860000Y682500D01*
X860000Y760000D02*
X860000Y762500D01*
X700000Y685000D02*
X690000Y695000D01*
X690000Y745000D02*
X690000Y750000D01*
X690000Y745000D02*
X690000Y695000D01*
X690000Y750000D02*
X700000Y760000D01*
X700000Y685000D02*
X700000Y682500D01*
X700000Y760000D02*
X700000Y762500D01*
X770000Y695000D02*
X780000Y685000D01*
X770000Y745000D02*
X770000Y750000D01*
X770000Y745000D02*
X770000Y695000D01*
X770000Y750000D02*
X780000Y760000D01*
X780000Y685000D02*
X780000Y682500D01*
X780000Y760000D02*
X780000Y762500D01*
X825000Y855000D02*
X825000Y235000D01*
X825000Y855000D02*
X790000Y890000D01*
X770000Y890000D01*
X770000Y830000D01*
X790000Y810000D01*
X790000Y775000D01*
X780000Y765000D01*
X780000Y762500D01*
X700000Y745000D02*
X690000Y745000D01*
X770000Y745000D02*
X775000Y745000D01*
X850000Y745000D02*
X855000Y745000D01*
X930000Y745000D02*
X935000Y745000D01*
D15*
X825000Y235000D03*
X700000Y745000D03*
X775000Y745000D03*
X855000Y745000D03*
X935000Y745000D03*
D14*
X930000Y535000D02*
X940000Y525000D01*
X930000Y535000D02*
X930000Y590000D01*
X940000Y600000D01*
X940000Y525000D02*
X940000Y522500D01*
X940000Y600000D02*
X940000Y602500D01*
X860000Y525000D02*
X850000Y535000D01*
X850000Y590000D01*
X860000Y600000D01*
X860000Y525000D02*
X860000Y522500D01*
X860000Y600000D02*
X860000Y602500D01*
X700000Y525000D02*
X690000Y535000D01*
X690000Y590000D01*
X700000Y600000D01*
X700000Y525000D02*
X700000Y522500D01*
X700000Y600000D02*
X700000Y602500D01*
X770000Y535000D02*
X780000Y525000D01*
X770000Y535000D02*
X770000Y590000D01*
X780000Y600000D01*
X780000Y525000D02*
X780000Y522500D01*
X780000Y600000D02*
X780000Y602500D01*
X805000Y295000D02*
X810000Y290000D01*
X805000Y295000D02*
X805000Y485000D01*
X785000Y505000D02*
X780000Y510000D01*
X780000Y522500D01*
X700000Y522500D02*
X700000Y505000D01*
X855000Y515000D02*
X860000Y520000D01*
X855000Y515000D02*
X855000Y505000D01*
X860000Y520000D02*
X860000Y522500D01*
X935000Y515000D02*
X940000Y520000D01*
X935000Y515000D02*
X935000Y505000D01*
X940000Y520000D02*
X940000Y522500D01*
D15*
X810000Y290000D03*
X805000Y485000D03*
X785000Y505000D03*
X700000Y505000D03*
X855000Y505000D03*
X935000Y505000D03*
D14*
X860000Y380000D02*
X860000Y362500D01*
X860000Y420000D02*
X860000Y442500D01*
X930000Y375000D02*
X940000Y365000D01*
X930000Y380000D02*
X930000Y430000D01*
X930000Y380000D02*
X930000Y375000D01*
X930000Y430000D02*
X940000Y440000D01*
X940000Y365000D02*
X940000Y362500D01*
X940000Y440000D02*
X940000Y442500D01*
X935000Y380000D02*
X930000Y380000D01*
X700000Y365000D02*
X690000Y375000D01*
X690000Y430000D01*
X700000Y440000D01*
X700000Y365000D02*
X700000Y362500D01*
X700000Y440000D02*
X700000Y442500D01*
X770000Y375000D02*
X780000Y365000D01*
X770000Y415000D02*
X770000Y430000D01*
X770000Y415000D02*
X770000Y375000D01*
X770000Y430000D02*
X780000Y440000D01*
X780000Y365000D02*
X780000Y362500D01*
X780000Y440000D02*
X780000Y442500D01*
X780000Y345000D02*
X790000Y335000D01*
X780000Y345000D02*
X780000Y362500D01*
X705000Y355000D02*
X700000Y360000D01*
X705000Y355000D02*
X705000Y340000D01*
X700000Y360000D02*
X700000Y362500D01*
X770000Y415000D02*
X775000Y415000D01*
D15*
X860000Y380000D03*
X860000Y420000D03*
X935000Y380000D03*
X790000Y335000D03*
X705000Y340000D03*
X775000Y415000D03*
D14*
X720000Y225000D02*
X700000Y205000D01*
X720000Y225000D02*
X720000Y295000D01*
X700000Y205000D02*
X700000Y202500D01*
X700000Y282500D02*
X700000Y300000D01*
X770000Y215000D02*
X780000Y205000D01*
X770000Y215000D02*
X770000Y270000D01*
X780000Y280000D01*
X780000Y282500D01*
X850000Y215000D02*
X860000Y205000D01*
X850000Y215000D02*
X850000Y270000D01*
X860000Y280000D01*
X860000Y205000D02*
X860000Y202500D01*
X940000Y200000D02*
X950000Y190000D01*
X950000Y145000D01*
X870000Y145000D01*
X870000Y190000D01*
X860000Y200000D01*
X940000Y200000D02*
X940000Y202500D01*
X860000Y202500D02*
X860000Y200000D01*
X860000Y280000D02*
X860000Y282000D01*
X860000Y282500D01*
X820000Y205000D02*
X780000Y205000D01*
X820000Y205000D02*
X820000Y210000D01*
X830000Y220000D01*
X840000Y220000D01*
X840000Y190000D01*
X835000Y185000D01*
X835000Y160000D01*
X850000Y145000D01*
X870000Y145000D01*
X780000Y202500D02*
X780000Y205000D01*
X780000Y290000D02*
X790000Y300000D01*
X780000Y290000D02*
X780000Y282500D01*
D15*
X720000Y295000D03*
X700000Y300000D03*
X790000Y300000D03*
D16*
X940000Y282500D02*
X940000Y270000D01*
D15*
X940000Y270000D03*
X891000Y275000D03*
D16*
X884000Y282000D01*
X860000Y282000D01*
D14*
X415000Y280000D02*
X380000Y280000D01*
X455000Y265000D02*
X460000Y270000D01*
X460000Y282500D01*
X380000Y282500D02*
X380000Y280000D01*
X540000Y285000D02*
X590000Y335000D01*
X635000Y335000D01*
X635000Y320000D02*
X635000Y300000D01*
X635000Y320000D02*
X635000Y335000D01*
X635000Y300000D02*
X620000Y285000D01*
X540000Y285000D02*
X540000Y282500D01*
X620000Y282500D02*
X620000Y285000D01*
X540000Y270000D02*
X535000Y265000D01*
X540000Y270000D02*
X540000Y282500D01*
X750000Y125000D02*
X780000Y125000D01*
X750000Y125000D02*
X700000Y125000D01*
X780000Y125000D02*
X860000Y125000D01*
X780000Y125000D02*
X780000Y122500D01*
X860000Y125000D02*
X940000Y125000D01*
X940000Y122500D01*
X860000Y122500D02*
X860000Y125000D01*
X750000Y125000D02*
X750000Y220000D01*
X685000Y320000D02*
X635000Y320000D01*
X685000Y320000D02*
X685000Y140000D01*
X700000Y125000D01*
X700000Y122500D01*
D15*
X415000Y280000D03*
X455000Y265000D03*
X535000Y265000D03*
X750000Y220000D03*
D14*
X380000Y120000D02*
X370000Y110000D01*
X370000Y65000D01*
X440000Y65000D02*
X450000Y65000D01*
X440000Y65000D02*
X370000Y65000D01*
X450000Y65000D02*
X450000Y110000D01*
X460000Y120000D01*
X380000Y120000D02*
X380000Y122500D01*
X460000Y122500D02*
X460000Y120000D01*
X380000Y205000D02*
X370000Y215000D01*
X370000Y250000D01*
X390000Y270000D01*
X420000Y270000D01*
X420000Y275000D01*
X430000Y285000D01*
X440000Y285000D01*
X440000Y65000D01*
X380000Y202500D02*
X380000Y205000D01*
X520000Y100000D02*
X475000Y55000D01*
X520000Y100000D02*
X540000Y120000D01*
X475000Y55000D02*
X450000Y55000D01*
X450000Y65000D01*
X540000Y120000D02*
X540000Y122500D01*
X460000Y205000D02*
X450000Y215000D01*
X450000Y250000D01*
X520000Y250000D01*
X520000Y100000D01*
X460000Y202500D02*
X460000Y205000D01*
X590000Y90000D02*
X555000Y55000D01*
X590000Y90000D02*
X620000Y120000D01*
X555000Y55000D02*
X475000Y55000D01*
X620000Y120000D02*
X620000Y122500D01*
X540000Y205000D02*
X530000Y215000D01*
X530000Y250000D01*
X590000Y250000D01*
X590000Y245000D02*
X590000Y90000D01*
X590000Y245000D02*
X590000Y250000D01*
X540000Y205000D02*
X540000Y202500D01*
X610000Y215000D02*
X620000Y205000D01*
X610000Y215000D02*
X610000Y295000D01*
X620000Y305000D01*
X630000Y305000D01*
X630000Y330000D01*
X590000Y330000D01*
X590000Y250000D01*
X620000Y205000D02*
X620000Y202500D01*
D15*
X590000Y245000D03*
D14*
X140000Y285000D02*
X60000Y285000D01*
X60000Y282500D01*
X140000Y285000D02*
X220000Y285000D01*
X140000Y285000D02*
X140000Y282500D01*
X220000Y285000D02*
X300000Y285000D01*
X300000Y282500D01*
X220000Y282500D02*
X220000Y285000D01*
X380000Y45000D02*
X460000Y45000D01*
X540000Y45000D01*
X460000Y45000D02*
X460000Y42500D01*
X540000Y45000D02*
X620000Y45000D01*
X540000Y45000D02*
X540000Y42500D01*
X640000Y275000D02*
X675000Y310000D01*
X640000Y275000D02*
X640000Y65000D01*
X620000Y45000D01*
X620000Y42500D01*
X360000Y220000D02*
X300000Y280000D01*
X360000Y220000D02*
X360000Y65000D01*
X380000Y45000D01*
X300000Y280000D02*
X300000Y282500D01*
X380000Y45000D02*
X380000Y42500D01*
D15*
X675000Y310000D03*
D14*
X700000Y480000D02*
X685000Y495000D01*
X685000Y620000D01*
X700000Y635000D01*
X700000Y480000D02*
X700000Y477500D01*
X700000Y635000D02*
X700000Y637500D01*
X685000Y780000D02*
X700000Y795000D01*
X685000Y780000D02*
X685000Y620000D01*
X700000Y795000D02*
X700000Y797500D01*
X685000Y940000D02*
X700000Y955000D01*
X685000Y940000D02*
X685000Y780000D01*
X700000Y955000D02*
X700000Y957500D01*
X390000Y90000D02*
X380000Y80000D01*
X390000Y90000D02*
X390000Y225000D01*
X385000Y230000D02*
X380000Y235000D01*
X385000Y230000D02*
X390000Y225000D01*
X380000Y80000D02*
X380000Y77500D01*
X380000Y235000D02*
X380000Y237500D01*
X690000Y170000D02*
X700000Y160000D01*
X690000Y170000D02*
X690000Y305000D01*
X700000Y315000D01*
X700000Y160000D02*
X700000Y157500D01*
X700000Y315000D02*
X700000Y317500D01*
X700000Y335000D02*
X695000Y340000D01*
X700000Y335000D02*
X700000Y317500D01*
X430000Y275000D02*
X385000Y230000D01*
X685000Y460000D02*
X700000Y475000D01*
X685000Y460000D02*
X685000Y350000D01*
X695000Y340000D01*
X700000Y475000D02*
X700000Y477500D01*
D15*
X695000Y340000D03*
X430000Y275000D03*
D14*
X470000Y90000D02*
X460000Y80000D01*
X470000Y145000D02*
X470000Y225000D01*
X470000Y145000D02*
X470000Y90000D01*
X470000Y225000D02*
X460000Y235000D01*
X460000Y80000D02*
X460000Y77500D01*
X460000Y235000D02*
X460000Y237500D01*
X765000Y175000D02*
X780000Y160000D01*
X765000Y175000D02*
X765000Y300000D01*
X780000Y315000D01*
X780000Y317500D01*
X765000Y460000D02*
X780000Y475000D01*
X765000Y460000D02*
X765000Y300000D01*
X780000Y475000D02*
X780000Y477500D01*
X765000Y620000D02*
X780000Y635000D01*
X765000Y620000D02*
X765000Y460000D01*
X780000Y635000D02*
X780000Y637500D01*
X765000Y780000D02*
X780000Y795000D01*
X765000Y780000D02*
X765000Y620000D01*
X780000Y795000D02*
X780000Y797500D01*
X765000Y940000D02*
X780000Y955000D01*
X765000Y940000D02*
X765000Y780000D01*
X780000Y955000D02*
X780000Y957500D01*
X830000Y210000D02*
X780000Y160000D01*
X510000Y145000D02*
X470000Y145000D01*
X765000Y145000D02*
X780000Y160000D01*
X780000Y157500D01*
D15*
X830000Y210000D03*
X510000Y145000D03*
X765000Y145000D03*
D14*
X860000Y640000D02*
X845000Y655000D01*
X845000Y780000D01*
X860000Y795000D01*
X860000Y640000D02*
X860000Y637500D01*
X860000Y795000D02*
X860000Y797500D01*
X845000Y940000D02*
X860000Y955000D01*
X845000Y940000D02*
X845000Y780000D01*
X860000Y955000D02*
X860000Y957500D01*
X550000Y90000D02*
X540000Y80000D01*
X550000Y155000D02*
X550000Y225000D01*
X550000Y155000D02*
X550000Y90000D01*
X550000Y225000D02*
X540000Y235000D01*
X540000Y80000D02*
X540000Y77500D01*
X540000Y235000D02*
X540000Y237500D01*
X845000Y175000D02*
X860000Y160000D01*
X845000Y275000D02*
X845000Y300000D01*
X845000Y275000D02*
X845000Y185000D01*
X845000Y175000D01*
X850000Y305000D02*
X860000Y315000D01*
X850000Y305000D02*
X845000Y300000D01*
X860000Y160000D02*
X860000Y157500D01*
X860000Y315000D02*
X860000Y317500D01*
X850000Y465000D02*
X860000Y475000D01*
X850000Y465000D02*
X850000Y305000D01*
X860000Y475000D02*
X860000Y477500D01*
X560000Y155000D02*
X550000Y155000D01*
X845000Y620000D02*
X860000Y635000D01*
X845000Y620000D02*
X845000Y495000D01*
X860000Y480000D01*
X860000Y635000D02*
X860000Y637500D01*
X860000Y480000D02*
X860000Y477500D01*
D15*
X845000Y275000D03*
X560000Y155000D03*
X845000Y185000D03*
D14*
X940000Y480000D02*
X925000Y495000D01*
X925000Y620000D01*
X940000Y635000D01*
X940000Y480000D02*
X940000Y477500D01*
X940000Y635000D02*
X940000Y637500D01*
X925000Y780000D02*
X940000Y795000D01*
X925000Y780000D02*
X925000Y620000D01*
X940000Y795000D02*
X940000Y797500D01*
X925000Y940000D02*
X940000Y955000D01*
X925000Y940000D02*
X925000Y780000D01*
X940000Y955000D02*
X940000Y957500D01*
X630000Y90000D02*
X620000Y80000D01*
X630000Y90000D02*
X630000Y225000D01*
X620000Y235000D01*
X620000Y80000D02*
X620000Y77500D01*
X620000Y235000D02*
X620000Y237500D01*
X930000Y170000D02*
X940000Y160000D01*
X930000Y265000D02*
X930000Y305000D01*
X930000Y265000D02*
X930000Y170000D01*
X930000Y305000D02*
X940000Y315000D01*
X940000Y160000D02*
X940000Y157500D01*
X940000Y315000D02*
X940000Y317500D01*
X630000Y250000D02*
X620000Y240000D01*
X630000Y250000D02*
X630000Y255000D01*
X620000Y240000D02*
X620000Y237500D01*
X925000Y460000D02*
X940000Y475000D01*
X925000Y460000D02*
X925000Y335000D01*
X940000Y320000D01*
X940000Y475000D02*
X940000Y477500D01*
X940000Y320000D02*
X940000Y317500D01*
D15*
X930000Y265000D03*
X630000Y255000D03*
D14*
X380000Y160000D02*
X365000Y175000D01*
X365000Y300000D01*
X380000Y315000D01*
X380000Y160000D02*
X380000Y157500D01*
X380000Y315000D02*
X380000Y317500D01*
X130000Y315000D02*
X60000Y315000D01*
X130000Y315000D02*
X130000Y305000D01*
X135000Y300000D01*
X365000Y300000D01*
X60000Y315000D02*
X60000Y317500D01*
X700000Y240000D02*
X710000Y250000D01*
X710000Y335000D01*
X715000Y340000D01*
X715000Y360000D02*
X715000Y380000D01*
X715000Y360000D02*
X715000Y340000D01*
X710000Y385000D02*
X700000Y395000D01*
X710000Y385000D02*
X715000Y380000D01*
X700000Y240000D02*
X700000Y237500D01*
X700000Y395000D02*
X700000Y397500D01*
X710000Y545000D02*
X700000Y555000D01*
X710000Y545000D02*
X710000Y385000D01*
X700000Y555000D02*
X700000Y557500D01*
X710000Y705000D02*
X700000Y715000D01*
X710000Y705000D02*
X710000Y545000D01*
X700000Y715000D02*
X700000Y717500D01*
X710000Y865000D02*
X700000Y875000D01*
X710000Y865000D02*
X710000Y705000D01*
X700000Y875000D02*
X700000Y877500D01*
X445000Y320000D02*
X380000Y320000D01*
X380000Y317500D01*
D15*
X715000Y360000D03*
X445000Y320000D03*
D14*
X445000Y175000D02*
X460000Y160000D01*
X445000Y175000D02*
X445000Y300000D01*
X460000Y315000D01*
X460000Y160000D02*
X460000Y157500D01*
X460000Y315000D02*
X460000Y317500D01*
X210000Y315000D02*
X140000Y315000D01*
X210000Y315000D02*
X210000Y305000D01*
X365000Y305000D01*
X365000Y325000D01*
X370000Y330000D01*
X460000Y330000D01*
X460000Y317500D01*
X140000Y317500D02*
X140000Y315000D01*
X795000Y255000D02*
X800000Y260000D01*
X795000Y255000D02*
X780000Y240000D01*
X800000Y260000D02*
X800000Y375000D01*
X790000Y385000D02*
X780000Y395000D01*
X790000Y385000D02*
X795000Y380000D01*
X800000Y375000D01*
X780000Y240000D02*
X780000Y237500D01*
X780000Y395000D02*
X780000Y397500D01*
X795000Y540000D02*
X790000Y545000D01*
X780000Y555000D01*
X795000Y540000D02*
X795000Y380000D01*
X780000Y555000D02*
X780000Y557500D01*
X790000Y705000D02*
X780000Y715000D01*
X790000Y705000D02*
X790000Y545000D01*
X780000Y715000D02*
X780000Y717500D01*
X795000Y860000D02*
X780000Y875000D01*
X795000Y860000D02*
X795000Y735000D01*
X780000Y720000D01*
X780000Y875000D02*
X780000Y877500D01*
X780000Y720000D02*
X780000Y717500D01*
X795000Y255000D02*
X825000Y225000D01*
X525000Y330000D02*
X460000Y330000D01*
X785000Y380000D02*
X790000Y385000D01*
D15*
X825000Y225000D03*
X525000Y330000D03*
X785000Y380000D03*
D14*
X540000Y160000D02*
X525000Y175000D01*
X525000Y300000D01*
X540000Y315000D01*
X540000Y160000D02*
X540000Y157500D01*
X540000Y315000D02*
X540000Y317500D01*
X285000Y320000D02*
X220000Y320000D01*
X285000Y320000D02*
X285000Y330000D01*
X295000Y340000D01*
X540000Y340000D01*
X540000Y317500D01*
X220000Y317500D02*
X220000Y320000D01*
X860000Y240000D02*
X880000Y260000D01*
X890000Y290000D02*
X890000Y300000D01*
X870000Y385000D02*
X860000Y395000D01*
X870000Y385000D02*
X887500Y367500D01*
X860000Y240000D02*
X860000Y237500D01*
X860000Y395000D02*
X860000Y397500D01*
X870000Y545000D02*
X860000Y555000D01*
X870000Y545000D02*
X870000Y385000D01*
X860000Y555000D02*
X860000Y557500D01*
X870000Y705000D02*
X860000Y715000D01*
X870000Y705000D02*
X870000Y545000D01*
X860000Y715000D02*
X860000Y717500D01*
X870000Y865000D02*
X860000Y875000D01*
X870000Y865000D02*
X870000Y705000D01*
X860000Y875000D02*
X860000Y877500D01*
X585000Y340000D02*
X540000Y340000D01*
D15*
X890000Y290000D03*
X585000Y340000D03*
D16*
X890000Y365000D02*
X890000Y300000D01*
X890000Y365000D02*
X887500Y367500D01*
X880000Y260000D02*
X897000Y260000D01*
X903000Y266000D01*
X903000Y277000D01*
X890000Y290000D01*
D14*
X940000Y240000D02*
X950000Y250000D01*
X950000Y255000D02*
X950000Y385000D01*
X950000Y255000D02*
X950000Y250000D01*
X950000Y385000D02*
X940000Y395000D01*
X940000Y240000D02*
X940000Y237500D01*
X940000Y395000D02*
X940000Y397500D01*
X950000Y545000D02*
X940000Y555000D01*
X950000Y545000D02*
X950000Y385000D01*
X940000Y555000D02*
X940000Y557500D01*
X950000Y705000D02*
X940000Y715000D01*
X950000Y705000D02*
X950000Y545000D01*
X940000Y715000D02*
X940000Y717500D01*
X950000Y865000D02*
X940000Y875000D01*
X950000Y865000D02*
X950000Y705000D01*
X940000Y875000D02*
X940000Y877500D01*
X605000Y175000D02*
X620000Y160000D01*
X605000Y235000D02*
X605000Y300000D01*
X605000Y235000D02*
X605000Y175000D01*
X605000Y300000D02*
X620000Y315000D01*
X620000Y160000D02*
X620000Y157500D01*
X620000Y315000D02*
X620000Y317500D01*
X355000Y315000D02*
X300000Y315000D01*
X300000Y317500D01*
X600000Y235000D02*
X605000Y235000D01*
X940000Y255000D02*
X950000Y255000D01*
D15*
X355000Y315000D03*
X600000Y235000D03*
X940000Y255000D03*
D14*
X815000Y725000D02*
X805000Y735000D01*
X815000Y725000D02*
X815000Y350000D01*
D15*
X805000Y735000D03*
X815000Y350000D03*
D14*
X820000Y95000D02*
X800000Y95000D01*
X800000Y94000D01*
D15*
X820000Y95000D03*
D14*
X955000Y115000D02*
X955000Y305000D01*
X970000Y320000D01*
X970000Y324600D01*
D16*
X934000Y94000D02*
X880000Y94000D01*
X934000Y94000D02*
X955000Y115000D01*
D14*
X125000Y200000D02*
X60000Y200000D01*
X125000Y200000D02*
X125000Y150000D01*
X130000Y145000D01*
X150000Y145000D01*
X150000Y190000D01*
X140000Y200000D01*
X60000Y200000D02*
X60000Y202500D01*
X140000Y202500D02*
X140000Y200000D01*
X220000Y205000D02*
X230000Y215000D01*
X230000Y250000D01*
X125000Y250000D01*
X125000Y200000D01*
X220000Y202500D02*
X220000Y205000D01*
X300000Y205000D02*
X310000Y215000D01*
X310000Y250000D01*
X230000Y250000D01*
X300000Y205000D02*
X300000Y202500D01*
X155000Y125000D02*
X150000Y130000D01*
X150000Y145000D01*
D15*
X155000Y125000D03*
D14*
X140000Y125000D02*
X110000Y125000D01*
X60000Y125000D01*
X60000Y122500D01*
X140000Y122500D02*
X140000Y125000D01*
X110000Y125000D02*
X110000Y170000D01*
X130000Y45000D02*
X140000Y45000D01*
X130000Y45000D02*
X60000Y45000D01*
X60000Y42500D01*
X140000Y45000D02*
X220000Y45000D01*
X140000Y45000D02*
X140000Y42500D01*
X220000Y45000D02*
X230000Y45000D01*
X290000Y45000D01*
X300000Y45000D01*
X300000Y42500D01*
X220000Y42500D02*
X220000Y45000D01*
X230000Y110000D02*
X220000Y120000D01*
X230000Y110000D02*
X230000Y45000D01*
X220000Y120000D02*
X220000Y122500D01*
X290000Y110000D02*
X300000Y120000D01*
X290000Y110000D02*
X290000Y45000D01*
X300000Y120000D02*
X300000Y122500D01*
X140000Y120000D02*
X130000Y110000D01*
X130000Y45000D01*
X140000Y120000D02*
X140000Y122500D01*
D15*
X110000Y170000D03*
D14*
X290000Y170000D02*
X300000Y160000D01*
X290000Y195000D02*
X290000Y225000D01*
X290000Y195000D02*
X290000Y170000D01*
X290000Y225000D02*
X300000Y235000D01*
X300000Y160000D02*
X300000Y157500D01*
X300000Y235000D02*
X300000Y237500D01*
X290000Y195000D02*
X285000Y195000D01*
D15*
X285000Y195000D03*
D14*
X220000Y160000D02*
X210000Y170000D01*
X210000Y225000D01*
X220000Y235000D01*
X220000Y160000D02*
X220000Y157500D01*
X220000Y235000D02*
X220000Y237500D01*
X235000Y100000D02*
X250000Y85000D01*
X235000Y100000D02*
X235000Y140000D01*
X220000Y155000D01*
X220000Y157500D01*
D15*
X250000Y85000D03*
D14*
X140000Y160000D02*
X130000Y170000D01*
X130000Y225000D01*
X135000Y230000D02*
X140000Y235000D01*
X135000Y230000D02*
X130000Y225000D01*
X140000Y160000D02*
X140000Y157500D01*
X140000Y235000D02*
X140000Y237500D01*
X150000Y200000D02*
X155000Y195000D01*
X150000Y200000D02*
X150000Y215000D01*
X135000Y230000D01*
D15*
X155000Y195000D03*
D14*
X60000Y160000D02*
X50000Y170000D01*
X50000Y225000D01*
X60000Y235000D01*
X60000Y160000D02*
X60000Y157500D01*
X60000Y235000D02*
X60000Y237500D01*
X60000Y155000D02*
X75000Y140000D01*
X60000Y155000D02*
X60000Y157500D01*
D15*
X75000Y140000D03*
D14*
X300000Y80000D02*
X310000Y90000D01*
X310000Y175000D01*
X300000Y80000D02*
X300000Y77500D01*
D15*
X310000Y175000D03*
D14*
X220000Y80000D02*
X210000Y90000D01*
X210000Y95000D01*
X220000Y80000D02*
X220000Y77500D01*
D15*
X210000Y95000D03*
D14*
X205000Y145000D02*
X140000Y80000D01*
X205000Y145000D02*
X205000Y155000D01*
X140000Y80000D02*
X140000Y77500D01*
D15*
X205000Y155000D03*
D14*
X80000Y80000D02*
X60000Y80000D01*
X60000Y77500D01*
D15*
X80000Y80000D03*
M02*
