G04 EAGLE Gerber RS-274X export*
G75*
%MOMM*%
%FSLAX34Y34*%
%LPD*%
%INSilkscreen Bottom*%
%IPPOS*%
%AMOC8*
5,1,8,0,0,1.08239X$1,22.5*%
G01*
%ADD10C,0.101600*%
%ADD11C,0.152400*%
%ADD12C,0.050800*%
%ADD13R,0.127000X0.508000*%
%ADD14C,0.127000*%


D10*
X956492Y477052D02*
X948703Y477052D01*
X952597Y480946D02*
X952597Y473157D01*
X943651Y472508D02*
X939756Y472508D01*
X939657Y472510D01*
X939557Y472516D01*
X939458Y472525D01*
X939360Y472538D01*
X939262Y472555D01*
X939164Y472576D01*
X939068Y472601D01*
X938973Y472629D01*
X938879Y472661D01*
X938786Y472696D01*
X938694Y472735D01*
X938604Y472778D01*
X938516Y472823D01*
X938429Y472873D01*
X938345Y472925D01*
X938262Y472981D01*
X938182Y473039D01*
X938104Y473101D01*
X938029Y473166D01*
X937956Y473234D01*
X937886Y473304D01*
X937818Y473377D01*
X937753Y473452D01*
X937691Y473530D01*
X937633Y473610D01*
X937577Y473693D01*
X937525Y473777D01*
X937475Y473864D01*
X937430Y473952D01*
X937387Y474042D01*
X937348Y474134D01*
X937313Y474227D01*
X937281Y474321D01*
X937253Y474416D01*
X937228Y474512D01*
X937207Y474610D01*
X937190Y474708D01*
X937177Y474806D01*
X937168Y474905D01*
X937162Y475005D01*
X937160Y475104D01*
X937160Y476403D01*
X937162Y476502D01*
X937168Y476602D01*
X937177Y476701D01*
X937190Y476799D01*
X937207Y476897D01*
X937228Y476995D01*
X937253Y477091D01*
X937281Y477186D01*
X937313Y477280D01*
X937348Y477373D01*
X937387Y477465D01*
X937430Y477555D01*
X937475Y477643D01*
X937525Y477730D01*
X937577Y477814D01*
X937633Y477897D01*
X937691Y477977D01*
X937753Y478055D01*
X937818Y478130D01*
X937886Y478203D01*
X937956Y478273D01*
X938029Y478341D01*
X938104Y478406D01*
X938182Y478468D01*
X938262Y478526D01*
X938345Y478582D01*
X938429Y478634D01*
X938516Y478684D01*
X938604Y478729D01*
X938694Y478772D01*
X938786Y478811D01*
X938879Y478846D01*
X938973Y478878D01*
X939068Y478906D01*
X939164Y478931D01*
X939262Y478952D01*
X939360Y478969D01*
X939458Y478982D01*
X939557Y478991D01*
X939657Y478997D01*
X939756Y478999D01*
X943651Y478999D01*
X943651Y484192D01*
X937160Y484192D01*
X932870Y484192D02*
X928975Y472508D01*
X925081Y484192D01*
X950001Y451999D02*
X951948Y451999D01*
X950001Y451999D02*
X950001Y445508D01*
X953896Y445508D01*
X953995Y445510D01*
X954095Y445516D01*
X954194Y445525D01*
X954292Y445538D01*
X954390Y445555D01*
X954488Y445576D01*
X954584Y445601D01*
X954679Y445629D01*
X954773Y445661D01*
X954866Y445696D01*
X954958Y445735D01*
X955048Y445778D01*
X955136Y445823D01*
X955223Y445873D01*
X955307Y445925D01*
X955390Y445981D01*
X955470Y446039D01*
X955548Y446101D01*
X955623Y446166D01*
X955696Y446234D01*
X955766Y446304D01*
X955834Y446377D01*
X955899Y446452D01*
X955961Y446530D01*
X956019Y446610D01*
X956075Y446693D01*
X956127Y446777D01*
X956177Y446864D01*
X956222Y446952D01*
X956265Y447042D01*
X956304Y447134D01*
X956339Y447227D01*
X956371Y447321D01*
X956399Y447416D01*
X956424Y447512D01*
X956445Y447610D01*
X956462Y447708D01*
X956475Y447806D01*
X956484Y447905D01*
X956490Y448005D01*
X956492Y448104D01*
X956492Y454596D01*
X956490Y454695D01*
X956484Y454795D01*
X956475Y454894D01*
X956462Y454992D01*
X956445Y455090D01*
X956424Y455188D01*
X956399Y455284D01*
X956371Y455379D01*
X956339Y455473D01*
X956304Y455566D01*
X956265Y455658D01*
X956222Y455748D01*
X956177Y455836D01*
X956127Y455923D01*
X956075Y456007D01*
X956019Y456090D01*
X955961Y456170D01*
X955899Y456248D01*
X955834Y456323D01*
X955766Y456396D01*
X955696Y456466D01*
X955623Y456534D01*
X955548Y456599D01*
X955470Y456661D01*
X955390Y456719D01*
X955307Y456775D01*
X955223Y456827D01*
X955136Y456877D01*
X955048Y456922D01*
X954958Y456965D01*
X954866Y457004D01*
X954773Y457039D01*
X954679Y457071D01*
X954584Y457099D01*
X954488Y457124D01*
X954390Y457145D01*
X954292Y457162D01*
X954194Y457175D01*
X954095Y457184D01*
X953995Y457190D01*
X953896Y457192D01*
X950001Y457192D01*
X944300Y457192D02*
X944300Y445508D01*
X937809Y445508D02*
X944300Y457192D01*
X937809Y457192D02*
X937809Y445508D01*
X932108Y445508D02*
X932108Y457192D01*
X928863Y457192D01*
X928750Y457190D01*
X928637Y457184D01*
X928524Y457174D01*
X928411Y457160D01*
X928299Y457143D01*
X928188Y457121D01*
X928078Y457096D01*
X927968Y457066D01*
X927860Y457033D01*
X927753Y456996D01*
X927647Y456956D01*
X927543Y456911D01*
X927440Y456863D01*
X927339Y456812D01*
X927240Y456757D01*
X927143Y456699D01*
X927048Y456637D01*
X926955Y456572D01*
X926865Y456504D01*
X926777Y456433D01*
X926691Y456358D01*
X926608Y456281D01*
X926528Y456201D01*
X926451Y456118D01*
X926376Y456032D01*
X926305Y455944D01*
X926237Y455854D01*
X926172Y455761D01*
X926110Y455666D01*
X926052Y455569D01*
X925997Y455470D01*
X925946Y455369D01*
X925898Y455266D01*
X925853Y455162D01*
X925813Y455056D01*
X925776Y454949D01*
X925743Y454841D01*
X925713Y454731D01*
X925688Y454621D01*
X925666Y454510D01*
X925649Y454398D01*
X925635Y454285D01*
X925625Y454172D01*
X925619Y454059D01*
X925617Y453946D01*
X925617Y448754D01*
X925619Y448641D01*
X925625Y448528D01*
X925635Y448415D01*
X925649Y448302D01*
X925666Y448190D01*
X925688Y448079D01*
X925713Y447969D01*
X925743Y447859D01*
X925776Y447751D01*
X925813Y447644D01*
X925853Y447538D01*
X925898Y447434D01*
X925946Y447331D01*
X925997Y447230D01*
X926052Y447131D01*
X926110Y447034D01*
X926172Y446939D01*
X926237Y446846D01*
X926305Y446756D01*
X926376Y446668D01*
X926451Y446582D01*
X926528Y446499D01*
X926608Y446419D01*
X926691Y446342D01*
X926777Y446267D01*
X926865Y446196D01*
X926955Y446128D01*
X927048Y446063D01*
X927143Y446001D01*
X927240Y445943D01*
X927339Y445888D01*
X927440Y445837D01*
X927543Y445789D01*
X927647Y445744D01*
X927753Y445704D01*
X927860Y445667D01*
X927968Y445634D01*
X928078Y445604D01*
X928188Y445579D01*
X928299Y445557D01*
X928411Y445540D01*
X928524Y445526D01*
X928637Y445516D01*
X928750Y445510D01*
X928863Y445508D01*
X932108Y445508D01*
X951299Y419508D02*
X953896Y419508D01*
X953995Y419510D01*
X954095Y419516D01*
X954194Y419525D01*
X954292Y419538D01*
X954390Y419555D01*
X954488Y419576D01*
X954584Y419601D01*
X954679Y419629D01*
X954773Y419661D01*
X954866Y419696D01*
X954958Y419735D01*
X955048Y419778D01*
X955136Y419823D01*
X955223Y419873D01*
X955307Y419925D01*
X955390Y419981D01*
X955470Y420039D01*
X955548Y420101D01*
X955623Y420166D01*
X955696Y420234D01*
X955766Y420304D01*
X955834Y420377D01*
X955899Y420452D01*
X955961Y420530D01*
X956019Y420610D01*
X956075Y420693D01*
X956127Y420777D01*
X956177Y420864D01*
X956222Y420952D01*
X956265Y421042D01*
X956304Y421134D01*
X956339Y421227D01*
X956371Y421321D01*
X956399Y421416D01*
X956424Y421512D01*
X956445Y421610D01*
X956462Y421708D01*
X956475Y421806D01*
X956484Y421905D01*
X956490Y422005D01*
X956492Y422104D01*
X956492Y428596D01*
X956490Y428695D01*
X956484Y428795D01*
X956475Y428894D01*
X956462Y428992D01*
X956445Y429090D01*
X956424Y429188D01*
X956399Y429284D01*
X956371Y429379D01*
X956339Y429473D01*
X956304Y429566D01*
X956265Y429658D01*
X956222Y429748D01*
X956177Y429836D01*
X956127Y429923D01*
X956075Y430007D01*
X956019Y430090D01*
X955961Y430170D01*
X955899Y430248D01*
X955834Y430323D01*
X955766Y430396D01*
X955696Y430466D01*
X955623Y430534D01*
X955548Y430599D01*
X955470Y430661D01*
X955390Y430719D01*
X955307Y430775D01*
X955223Y430827D01*
X955136Y430877D01*
X955048Y430922D01*
X954958Y430965D01*
X954866Y431004D01*
X954773Y431039D01*
X954679Y431071D01*
X954584Y431099D01*
X954488Y431124D01*
X954390Y431145D01*
X954292Y431162D01*
X954194Y431175D01*
X954095Y431184D01*
X953995Y431190D01*
X953896Y431192D01*
X951299Y431192D01*
X946530Y431192D02*
X946530Y419508D01*
X941337Y419508D01*
X936477Y419508D02*
X936477Y431192D01*
X929986Y431192D02*
X936477Y424052D01*
X933881Y426648D02*
X929986Y419508D01*
X956492Y406192D02*
X956492Y394508D01*
X956492Y406192D02*
X953246Y406192D01*
X953133Y406190D01*
X953020Y406184D01*
X952907Y406174D01*
X952794Y406160D01*
X952682Y406143D01*
X952571Y406121D01*
X952461Y406096D01*
X952351Y406066D01*
X952243Y406033D01*
X952136Y405996D01*
X952030Y405956D01*
X951926Y405911D01*
X951823Y405863D01*
X951722Y405812D01*
X951623Y405757D01*
X951526Y405699D01*
X951431Y405637D01*
X951338Y405572D01*
X951248Y405504D01*
X951160Y405433D01*
X951074Y405358D01*
X950991Y405281D01*
X950911Y405201D01*
X950834Y405118D01*
X950759Y405032D01*
X950688Y404944D01*
X950620Y404854D01*
X950555Y404761D01*
X950493Y404666D01*
X950435Y404569D01*
X950380Y404470D01*
X950329Y404369D01*
X950281Y404266D01*
X950236Y404162D01*
X950196Y404056D01*
X950159Y403949D01*
X950126Y403841D01*
X950096Y403731D01*
X950071Y403621D01*
X950049Y403510D01*
X950032Y403398D01*
X950018Y403285D01*
X950008Y403172D01*
X950002Y403059D01*
X950000Y402946D01*
X950001Y402946D02*
X950001Y397754D01*
X950000Y397754D02*
X950002Y397641D01*
X950008Y397528D01*
X950018Y397415D01*
X950032Y397302D01*
X950049Y397190D01*
X950071Y397079D01*
X950096Y396969D01*
X950126Y396859D01*
X950159Y396751D01*
X950196Y396644D01*
X950236Y396538D01*
X950281Y396434D01*
X950329Y396331D01*
X950380Y396230D01*
X950435Y396131D01*
X950493Y396034D01*
X950555Y395939D01*
X950620Y395846D01*
X950688Y395756D01*
X950759Y395668D01*
X950834Y395582D01*
X950911Y395499D01*
X950991Y395419D01*
X951074Y395342D01*
X951160Y395267D01*
X951248Y395196D01*
X951338Y395128D01*
X951431Y395063D01*
X951526Y395001D01*
X951623Y394943D01*
X951722Y394888D01*
X951823Y394837D01*
X951926Y394789D01*
X952030Y394744D01*
X952136Y394704D01*
X952243Y394667D01*
X952351Y394634D01*
X952461Y394604D01*
X952571Y394579D01*
X952682Y394557D01*
X952794Y394540D01*
X952907Y394526D01*
X953020Y394516D01*
X953133Y394510D01*
X953246Y394508D01*
X956492Y394508D01*
X945330Y394508D02*
X941435Y406192D01*
X937541Y394508D01*
X938514Y397429D02*
X944356Y397429D01*
X930768Y394508D02*
X930768Y406192D01*
X934013Y406192D02*
X927522Y406192D01*
X920100Y406192D02*
X923994Y394508D01*
X916205Y394508D02*
X920100Y406192D01*
X917179Y397429D02*
X923021Y397429D01*
X956492Y381192D02*
X956492Y369508D01*
X951299Y369508D01*
X946990Y372754D02*
X946990Y377946D01*
X946988Y378059D01*
X946982Y378172D01*
X946972Y378285D01*
X946958Y378398D01*
X946941Y378510D01*
X946919Y378621D01*
X946894Y378731D01*
X946864Y378841D01*
X946831Y378949D01*
X946794Y379056D01*
X946754Y379162D01*
X946709Y379266D01*
X946661Y379369D01*
X946610Y379470D01*
X946555Y379569D01*
X946497Y379666D01*
X946435Y379761D01*
X946370Y379854D01*
X946302Y379944D01*
X946231Y380032D01*
X946156Y380118D01*
X946079Y380201D01*
X945999Y380281D01*
X945916Y380358D01*
X945830Y380433D01*
X945742Y380504D01*
X945652Y380572D01*
X945559Y380637D01*
X945464Y380699D01*
X945367Y380757D01*
X945268Y380812D01*
X945167Y380863D01*
X945064Y380911D01*
X944960Y380956D01*
X944854Y380996D01*
X944747Y381033D01*
X944639Y381066D01*
X944529Y381096D01*
X944419Y381121D01*
X944308Y381143D01*
X944196Y381160D01*
X944083Y381174D01*
X943970Y381184D01*
X943857Y381190D01*
X943744Y381192D01*
X943631Y381190D01*
X943518Y381184D01*
X943405Y381174D01*
X943292Y381160D01*
X943180Y381143D01*
X943069Y381121D01*
X942959Y381096D01*
X942849Y381066D01*
X942741Y381033D01*
X942634Y380996D01*
X942528Y380956D01*
X942424Y380911D01*
X942321Y380863D01*
X942220Y380812D01*
X942121Y380757D01*
X942024Y380699D01*
X941929Y380637D01*
X941836Y380572D01*
X941746Y380504D01*
X941658Y380433D01*
X941572Y380358D01*
X941489Y380281D01*
X941409Y380201D01*
X941332Y380118D01*
X941257Y380032D01*
X941186Y379944D01*
X941118Y379854D01*
X941053Y379761D01*
X940991Y379666D01*
X940933Y379569D01*
X940878Y379470D01*
X940827Y379369D01*
X940779Y379266D01*
X940734Y379162D01*
X940694Y379056D01*
X940657Y378949D01*
X940624Y378841D01*
X940594Y378731D01*
X940569Y378621D01*
X940547Y378510D01*
X940530Y378398D01*
X940516Y378285D01*
X940506Y378172D01*
X940500Y378059D01*
X940498Y377946D01*
X940499Y377946D02*
X940499Y372754D01*
X940498Y372754D02*
X940500Y372641D01*
X940506Y372528D01*
X940516Y372415D01*
X940530Y372302D01*
X940547Y372190D01*
X940569Y372079D01*
X940594Y371969D01*
X940624Y371859D01*
X940657Y371751D01*
X940694Y371644D01*
X940734Y371538D01*
X940779Y371434D01*
X940827Y371331D01*
X940878Y371230D01*
X940933Y371131D01*
X940991Y371034D01*
X941053Y370939D01*
X941118Y370846D01*
X941186Y370756D01*
X941257Y370668D01*
X941332Y370582D01*
X941409Y370499D01*
X941489Y370419D01*
X941572Y370342D01*
X941658Y370267D01*
X941746Y370196D01*
X941836Y370128D01*
X941929Y370063D01*
X942024Y370001D01*
X942121Y369943D01*
X942220Y369888D01*
X942321Y369837D01*
X942424Y369789D01*
X942528Y369744D01*
X942634Y369704D01*
X942741Y369667D01*
X942849Y369634D01*
X942959Y369604D01*
X943069Y369579D01*
X943180Y369557D01*
X943292Y369540D01*
X943405Y369526D01*
X943518Y369516D01*
X943631Y369510D01*
X943744Y369508D01*
X943857Y369510D01*
X943970Y369516D01*
X944083Y369526D01*
X944196Y369540D01*
X944308Y369557D01*
X944419Y369579D01*
X944529Y369604D01*
X944639Y369634D01*
X944747Y369667D01*
X944854Y369704D01*
X944960Y369744D01*
X945064Y369789D01*
X945167Y369837D01*
X945268Y369888D01*
X945367Y369943D01*
X945464Y370001D01*
X945559Y370063D01*
X945652Y370128D01*
X945742Y370196D01*
X945830Y370267D01*
X945916Y370342D01*
X945999Y370419D01*
X946079Y370499D01*
X946156Y370582D01*
X946231Y370668D01*
X946302Y370756D01*
X946370Y370846D01*
X946435Y370939D01*
X946497Y371034D01*
X946555Y371131D01*
X946610Y371230D01*
X946661Y371331D01*
X946709Y371434D01*
X946754Y371538D01*
X946794Y371644D01*
X946831Y371751D01*
X946864Y371859D01*
X946894Y371969D01*
X946919Y372079D01*
X946941Y372190D01*
X946958Y372302D01*
X946972Y372415D01*
X946982Y372528D01*
X946988Y372641D01*
X946990Y372754D01*
X936209Y369508D02*
X932314Y381192D01*
X928419Y369508D01*
X929393Y372429D02*
X935235Y372429D01*
X923749Y369508D02*
X923749Y381192D01*
X920503Y381192D01*
X920390Y381190D01*
X920277Y381184D01*
X920164Y381174D01*
X920051Y381160D01*
X919939Y381143D01*
X919828Y381121D01*
X919718Y381096D01*
X919608Y381066D01*
X919500Y381033D01*
X919393Y380996D01*
X919287Y380956D01*
X919183Y380911D01*
X919080Y380863D01*
X918979Y380812D01*
X918880Y380757D01*
X918783Y380699D01*
X918688Y380637D01*
X918595Y380572D01*
X918505Y380504D01*
X918417Y380433D01*
X918331Y380358D01*
X918248Y380281D01*
X918168Y380201D01*
X918091Y380118D01*
X918016Y380032D01*
X917945Y379944D01*
X917877Y379854D01*
X917812Y379761D01*
X917750Y379666D01*
X917692Y379569D01*
X917637Y379470D01*
X917586Y379369D01*
X917538Y379266D01*
X917493Y379162D01*
X917453Y379056D01*
X917416Y378949D01*
X917383Y378841D01*
X917353Y378731D01*
X917328Y378621D01*
X917306Y378510D01*
X917289Y378398D01*
X917275Y378285D01*
X917265Y378172D01*
X917259Y378059D01*
X917257Y377946D01*
X917258Y377946D02*
X917258Y372754D01*
X917257Y372754D02*
X917259Y372641D01*
X917265Y372528D01*
X917275Y372415D01*
X917289Y372302D01*
X917306Y372190D01*
X917328Y372079D01*
X917353Y371969D01*
X917383Y371859D01*
X917416Y371751D01*
X917453Y371644D01*
X917493Y371538D01*
X917538Y371434D01*
X917586Y371331D01*
X917637Y371230D01*
X917692Y371131D01*
X917750Y371034D01*
X917812Y370939D01*
X917877Y370846D01*
X917945Y370756D01*
X918016Y370668D01*
X918091Y370582D01*
X918168Y370499D01*
X918248Y370419D01*
X918331Y370342D01*
X918417Y370267D01*
X918505Y370196D01*
X918595Y370128D01*
X918688Y370063D01*
X918783Y370001D01*
X918880Y369943D01*
X918979Y369888D01*
X919080Y369837D01*
X919183Y369789D01*
X919287Y369744D01*
X919393Y369704D01*
X919500Y369667D01*
X919608Y369634D01*
X919718Y369604D01*
X919828Y369579D01*
X919939Y369557D01*
X920051Y369540D01*
X920164Y369526D01*
X920277Y369516D01*
X920390Y369510D01*
X920503Y369508D01*
X923749Y369508D01*
X953246Y349999D02*
X956492Y349999D01*
X953246Y350000D02*
X953133Y349998D01*
X953020Y349992D01*
X952907Y349982D01*
X952794Y349968D01*
X952682Y349951D01*
X952571Y349929D01*
X952461Y349904D01*
X952351Y349874D01*
X952243Y349841D01*
X952136Y349804D01*
X952030Y349764D01*
X951926Y349719D01*
X951823Y349671D01*
X951722Y349620D01*
X951623Y349565D01*
X951526Y349507D01*
X951431Y349445D01*
X951338Y349380D01*
X951248Y349312D01*
X951160Y349241D01*
X951074Y349166D01*
X950991Y349089D01*
X950911Y349009D01*
X950834Y348926D01*
X950759Y348840D01*
X950688Y348752D01*
X950620Y348662D01*
X950555Y348569D01*
X950493Y348474D01*
X950435Y348377D01*
X950380Y348278D01*
X950329Y348177D01*
X950281Y348074D01*
X950236Y347970D01*
X950196Y347864D01*
X950159Y347757D01*
X950126Y347649D01*
X950096Y347539D01*
X950071Y347429D01*
X950049Y347318D01*
X950032Y347206D01*
X950018Y347093D01*
X950008Y346980D01*
X950002Y346867D01*
X950000Y346754D01*
X950002Y346641D01*
X950008Y346528D01*
X950018Y346415D01*
X950032Y346302D01*
X950049Y346190D01*
X950071Y346079D01*
X950096Y345969D01*
X950126Y345859D01*
X950159Y345751D01*
X950196Y345644D01*
X950236Y345538D01*
X950281Y345434D01*
X950329Y345331D01*
X950380Y345230D01*
X950435Y345131D01*
X950493Y345034D01*
X950555Y344939D01*
X950620Y344846D01*
X950688Y344756D01*
X950759Y344668D01*
X950834Y344582D01*
X950911Y344499D01*
X950991Y344419D01*
X951074Y344342D01*
X951160Y344267D01*
X951248Y344196D01*
X951338Y344128D01*
X951431Y344063D01*
X951526Y344001D01*
X951623Y343943D01*
X951722Y343888D01*
X951823Y343837D01*
X951926Y343789D01*
X952030Y343744D01*
X952136Y343704D01*
X952243Y343667D01*
X952351Y343634D01*
X952461Y343604D01*
X952571Y343579D01*
X952682Y343557D01*
X952794Y343540D01*
X952907Y343526D01*
X953020Y343516D01*
X953133Y343510D01*
X953246Y343508D01*
X956492Y343508D01*
X956492Y355192D01*
X953246Y355192D01*
X953145Y355190D01*
X953045Y355184D01*
X952945Y355174D01*
X952845Y355161D01*
X952746Y355143D01*
X952647Y355122D01*
X952550Y355097D01*
X952453Y355068D01*
X952358Y355035D01*
X952264Y354999D01*
X952172Y354959D01*
X952081Y354916D01*
X951992Y354869D01*
X951905Y354819D01*
X951819Y354765D01*
X951736Y354708D01*
X951656Y354648D01*
X951577Y354585D01*
X951501Y354518D01*
X951428Y354449D01*
X951358Y354377D01*
X951290Y354303D01*
X951225Y354226D01*
X951164Y354146D01*
X951105Y354064D01*
X951050Y353980D01*
X950998Y353894D01*
X950949Y353806D01*
X950904Y353716D01*
X950862Y353624D01*
X950824Y353531D01*
X950790Y353436D01*
X950759Y353341D01*
X950732Y353244D01*
X950709Y353146D01*
X950689Y353047D01*
X950674Y352947D01*
X950662Y352847D01*
X950654Y352747D01*
X950650Y352646D01*
X950650Y352546D01*
X950654Y352445D01*
X950662Y352345D01*
X950674Y352245D01*
X950689Y352145D01*
X950709Y352046D01*
X950732Y351948D01*
X950759Y351851D01*
X950790Y351756D01*
X950824Y351661D01*
X950862Y351568D01*
X950904Y351476D01*
X950949Y351386D01*
X950998Y351298D01*
X951050Y351212D01*
X951105Y351128D01*
X951164Y351046D01*
X951225Y350966D01*
X951290Y350889D01*
X951358Y350815D01*
X951428Y350743D01*
X951501Y350674D01*
X951577Y350607D01*
X951656Y350544D01*
X951736Y350484D01*
X951819Y350427D01*
X951905Y350373D01*
X951992Y350323D01*
X952081Y350276D01*
X952172Y350233D01*
X952264Y350193D01*
X952358Y350157D01*
X952453Y350124D01*
X952550Y350095D01*
X952647Y350070D01*
X952746Y350049D01*
X952845Y350031D01*
X952945Y350018D01*
X953045Y350008D01*
X953145Y350002D01*
X953246Y350000D01*
X943129Y355192D02*
X943129Y343508D01*
X946374Y355192D02*
X939883Y355192D01*
X935325Y355192D02*
X935325Y343508D01*
X928834Y343508D02*
X935325Y355192D01*
X928834Y355192D02*
X928834Y343508D01*
X923515Y349350D02*
X923512Y349580D01*
X923504Y349810D01*
X923490Y350039D01*
X923471Y350268D01*
X923446Y350497D01*
X923416Y350725D01*
X923381Y350952D01*
X923340Y351178D01*
X923294Y351403D01*
X923242Y351627D01*
X923185Y351850D01*
X923123Y352071D01*
X923055Y352291D01*
X922982Y352509D01*
X922904Y352725D01*
X922821Y352939D01*
X922733Y353152D01*
X922640Y353362D01*
X922541Y353569D01*
X922508Y353659D01*
X922472Y353748D01*
X922432Y353836D01*
X922388Y353921D01*
X922341Y354005D01*
X922291Y354087D01*
X922237Y354167D01*
X922181Y354244D01*
X922121Y354320D01*
X922058Y354393D01*
X921993Y354463D01*
X921924Y354531D01*
X921853Y354595D01*
X921780Y354657D01*
X921704Y354716D01*
X921626Y354772D01*
X921545Y354825D01*
X921463Y354874D01*
X921379Y354920D01*
X921292Y354963D01*
X921205Y355002D01*
X921115Y355038D01*
X921025Y355070D01*
X920933Y355098D01*
X920840Y355123D01*
X920746Y355144D01*
X920652Y355161D01*
X920557Y355175D01*
X920461Y355184D01*
X920365Y355190D01*
X920269Y355192D01*
X920173Y355190D01*
X920077Y355184D01*
X919981Y355175D01*
X919886Y355161D01*
X919792Y355144D01*
X919698Y355123D01*
X919605Y355098D01*
X919513Y355070D01*
X919423Y355038D01*
X919333Y355002D01*
X919246Y354963D01*
X919159Y354920D01*
X919075Y354874D01*
X918993Y354825D01*
X918912Y354772D01*
X918834Y354716D01*
X918758Y354657D01*
X918685Y354595D01*
X918614Y354531D01*
X918545Y354463D01*
X918480Y354393D01*
X918417Y354320D01*
X918357Y354245D01*
X918301Y354167D01*
X918247Y354087D01*
X918197Y354005D01*
X918150Y353921D01*
X918107Y353836D01*
X918066Y353748D01*
X918030Y353659D01*
X917997Y353569D01*
X917998Y353569D02*
X917899Y353361D01*
X917806Y353151D01*
X917718Y352939D01*
X917635Y352725D01*
X917557Y352508D01*
X917484Y352290D01*
X917416Y352071D01*
X917354Y351849D01*
X917297Y351627D01*
X917245Y351403D01*
X917199Y351178D01*
X917158Y350952D01*
X917123Y350724D01*
X917093Y350497D01*
X917068Y350268D01*
X917049Y350039D01*
X917035Y349810D01*
X917027Y349580D01*
X917024Y349350D01*
X923515Y349350D02*
X923512Y349120D01*
X923504Y348890D01*
X923490Y348661D01*
X923471Y348432D01*
X923446Y348203D01*
X923416Y347975D01*
X923381Y347748D01*
X923340Y347522D01*
X923294Y347297D01*
X923242Y347073D01*
X923185Y346850D01*
X923123Y346629D01*
X923055Y346409D01*
X922982Y346191D01*
X922904Y345975D01*
X922821Y345761D01*
X922733Y345549D01*
X922640Y345338D01*
X922541Y345131D01*
X922508Y345041D01*
X922472Y344952D01*
X922431Y344864D01*
X922388Y344779D01*
X922341Y344695D01*
X922291Y344613D01*
X922237Y344533D01*
X922181Y344456D01*
X922121Y344380D01*
X922058Y344307D01*
X921993Y344237D01*
X921924Y344169D01*
X921853Y344105D01*
X921780Y344043D01*
X921704Y343984D01*
X921626Y343928D01*
X921545Y343875D01*
X921463Y343826D01*
X921379Y343780D01*
X921292Y343737D01*
X921205Y343698D01*
X921115Y343662D01*
X921025Y343630D01*
X920933Y343602D01*
X920840Y343577D01*
X920746Y343556D01*
X920652Y343539D01*
X920557Y343525D01*
X920461Y343516D01*
X920365Y343510D01*
X920269Y343508D01*
X917997Y345131D02*
X917898Y345338D01*
X917805Y345549D01*
X917717Y345761D01*
X917634Y345975D01*
X917556Y346191D01*
X917483Y346409D01*
X917415Y346629D01*
X917353Y346850D01*
X917296Y347073D01*
X917244Y347297D01*
X917198Y347522D01*
X917157Y347748D01*
X917122Y347975D01*
X917092Y348203D01*
X917067Y348432D01*
X917048Y348661D01*
X917034Y348890D01*
X917026Y349120D01*
X917023Y349350D01*
X917997Y345131D02*
X918030Y345041D01*
X918066Y344952D01*
X918107Y344864D01*
X918150Y344779D01*
X918197Y344695D01*
X918247Y344613D01*
X918301Y344533D01*
X918357Y344455D01*
X918417Y344380D01*
X918480Y344307D01*
X918545Y344237D01*
X918614Y344169D01*
X918685Y344105D01*
X918758Y344043D01*
X918834Y343984D01*
X918912Y343928D01*
X918993Y343875D01*
X919075Y343826D01*
X919159Y343780D01*
X919246Y343737D01*
X919333Y343698D01*
X919423Y343662D01*
X919513Y343630D01*
X919605Y343602D01*
X919698Y343577D01*
X919792Y343556D01*
X919886Y343539D01*
X919981Y343525D01*
X920077Y343516D01*
X920173Y343510D01*
X920269Y343508D01*
X922865Y346104D02*
X917672Y352596D01*
X953246Y324999D02*
X956492Y324999D01*
X953246Y325000D02*
X953133Y324998D01*
X953020Y324992D01*
X952907Y324982D01*
X952794Y324968D01*
X952682Y324951D01*
X952571Y324929D01*
X952461Y324904D01*
X952351Y324874D01*
X952243Y324841D01*
X952136Y324804D01*
X952030Y324764D01*
X951926Y324719D01*
X951823Y324671D01*
X951722Y324620D01*
X951623Y324565D01*
X951526Y324507D01*
X951431Y324445D01*
X951338Y324380D01*
X951248Y324312D01*
X951160Y324241D01*
X951074Y324166D01*
X950991Y324089D01*
X950911Y324009D01*
X950834Y323926D01*
X950759Y323840D01*
X950688Y323752D01*
X950620Y323662D01*
X950555Y323569D01*
X950493Y323474D01*
X950435Y323377D01*
X950380Y323278D01*
X950329Y323177D01*
X950281Y323074D01*
X950236Y322970D01*
X950196Y322864D01*
X950159Y322757D01*
X950126Y322649D01*
X950096Y322539D01*
X950071Y322429D01*
X950049Y322318D01*
X950032Y322206D01*
X950018Y322093D01*
X950008Y321980D01*
X950002Y321867D01*
X950000Y321754D01*
X950002Y321641D01*
X950008Y321528D01*
X950018Y321415D01*
X950032Y321302D01*
X950049Y321190D01*
X950071Y321079D01*
X950096Y320969D01*
X950126Y320859D01*
X950159Y320751D01*
X950196Y320644D01*
X950236Y320538D01*
X950281Y320434D01*
X950329Y320331D01*
X950380Y320230D01*
X950435Y320131D01*
X950493Y320034D01*
X950555Y319939D01*
X950620Y319846D01*
X950688Y319756D01*
X950759Y319668D01*
X950834Y319582D01*
X950911Y319499D01*
X950991Y319419D01*
X951074Y319342D01*
X951160Y319267D01*
X951248Y319196D01*
X951338Y319128D01*
X951431Y319063D01*
X951526Y319001D01*
X951623Y318943D01*
X951722Y318888D01*
X951823Y318837D01*
X951926Y318789D01*
X952030Y318744D01*
X952136Y318704D01*
X952243Y318667D01*
X952351Y318634D01*
X952461Y318604D01*
X952571Y318579D01*
X952682Y318557D01*
X952794Y318540D01*
X952907Y318526D01*
X953020Y318516D01*
X953133Y318510D01*
X953246Y318508D01*
X956492Y318508D01*
X956492Y330192D01*
X953246Y330192D01*
X953145Y330190D01*
X953045Y330184D01*
X952945Y330174D01*
X952845Y330161D01*
X952746Y330143D01*
X952647Y330122D01*
X952550Y330097D01*
X952453Y330068D01*
X952358Y330035D01*
X952264Y329999D01*
X952172Y329959D01*
X952081Y329916D01*
X951992Y329869D01*
X951905Y329819D01*
X951819Y329765D01*
X951736Y329708D01*
X951656Y329648D01*
X951577Y329585D01*
X951501Y329518D01*
X951428Y329449D01*
X951358Y329377D01*
X951290Y329303D01*
X951225Y329226D01*
X951164Y329146D01*
X951105Y329064D01*
X951050Y328980D01*
X950998Y328894D01*
X950949Y328806D01*
X950904Y328716D01*
X950862Y328624D01*
X950824Y328531D01*
X950790Y328436D01*
X950759Y328341D01*
X950732Y328244D01*
X950709Y328146D01*
X950689Y328047D01*
X950674Y327947D01*
X950662Y327847D01*
X950654Y327747D01*
X950650Y327646D01*
X950650Y327546D01*
X950654Y327445D01*
X950662Y327345D01*
X950674Y327245D01*
X950689Y327145D01*
X950709Y327046D01*
X950732Y326948D01*
X950759Y326851D01*
X950790Y326756D01*
X950824Y326661D01*
X950862Y326568D01*
X950904Y326476D01*
X950949Y326386D01*
X950998Y326298D01*
X951050Y326212D01*
X951105Y326128D01*
X951164Y326046D01*
X951225Y325966D01*
X951290Y325889D01*
X951358Y325815D01*
X951428Y325743D01*
X951501Y325674D01*
X951577Y325607D01*
X951656Y325544D01*
X951736Y325484D01*
X951819Y325427D01*
X951905Y325373D01*
X951992Y325323D01*
X952081Y325276D01*
X952172Y325233D01*
X952264Y325193D01*
X952358Y325157D01*
X952453Y325124D01*
X952550Y325095D01*
X952647Y325070D01*
X952746Y325049D01*
X952845Y325031D01*
X952945Y325018D01*
X953045Y325008D01*
X953145Y325002D01*
X953246Y325000D01*
X943129Y330192D02*
X943129Y318508D01*
X946374Y330192D02*
X939883Y330192D01*
X935325Y330192D02*
X935325Y318508D01*
X928834Y318508D02*
X935325Y330192D01*
X928834Y330192D02*
X928834Y318508D01*
X923514Y327596D02*
X920269Y330192D01*
X920269Y318508D01*
X923514Y318508D02*
X917023Y318508D01*
X244492Y669945D02*
X232808Y669945D01*
X244492Y669945D02*
X244492Y673190D01*
X244490Y673303D01*
X244484Y673416D01*
X244474Y673529D01*
X244460Y673642D01*
X244443Y673754D01*
X244421Y673865D01*
X244396Y673975D01*
X244366Y674085D01*
X244333Y674193D01*
X244296Y674300D01*
X244256Y674406D01*
X244211Y674510D01*
X244163Y674613D01*
X244112Y674714D01*
X244057Y674813D01*
X243999Y674910D01*
X243937Y675005D01*
X243872Y675098D01*
X243804Y675188D01*
X243733Y675276D01*
X243658Y675362D01*
X243581Y675445D01*
X243501Y675525D01*
X243418Y675602D01*
X243332Y675677D01*
X243244Y675748D01*
X243154Y675816D01*
X243061Y675881D01*
X242966Y675943D01*
X242869Y676001D01*
X242770Y676056D01*
X242669Y676107D01*
X242566Y676155D01*
X242462Y676200D01*
X242356Y676240D01*
X242249Y676277D01*
X242141Y676310D01*
X242031Y676340D01*
X241921Y676365D01*
X241810Y676387D01*
X241698Y676404D01*
X241585Y676418D01*
X241472Y676428D01*
X241359Y676434D01*
X241246Y676436D01*
X241133Y676434D01*
X241020Y676428D01*
X240907Y676418D01*
X240794Y676404D01*
X240682Y676387D01*
X240571Y676365D01*
X240461Y676340D01*
X240351Y676310D01*
X240243Y676277D01*
X240136Y676240D01*
X240030Y676200D01*
X239926Y676155D01*
X239823Y676107D01*
X239722Y676056D01*
X239623Y676001D01*
X239526Y675943D01*
X239431Y675881D01*
X239338Y675816D01*
X239248Y675748D01*
X239160Y675677D01*
X239074Y675602D01*
X238991Y675525D01*
X238911Y675445D01*
X238834Y675362D01*
X238759Y675276D01*
X238688Y675188D01*
X238620Y675098D01*
X238555Y675005D01*
X238493Y674910D01*
X238435Y674813D01*
X238380Y674714D01*
X238329Y674613D01*
X238281Y674510D01*
X238236Y674406D01*
X238196Y674300D01*
X238159Y674193D01*
X238126Y674085D01*
X238096Y673975D01*
X238071Y673865D01*
X238049Y673754D01*
X238032Y673642D01*
X238018Y673529D01*
X238008Y673416D01*
X238002Y673303D01*
X238000Y673190D01*
X238001Y673190D02*
X238001Y669945D01*
X238001Y673839D02*
X232808Y676436D01*
X241896Y681301D02*
X244492Y684546D01*
X232808Y684546D01*
X232808Y681301D02*
X232808Y687792D01*
D11*
X309162Y729560D02*
X309162Y582240D01*
X380028Y578430D02*
X380150Y578432D01*
X380272Y578438D01*
X380394Y578448D01*
X380515Y578461D01*
X380636Y578479D01*
X380756Y578500D01*
X380876Y578526D01*
X380994Y578555D01*
X381112Y578587D01*
X381229Y578624D01*
X381344Y578664D01*
X381458Y578708D01*
X381570Y578756D01*
X381681Y578807D01*
X381790Y578862D01*
X381898Y578920D01*
X382003Y578982D01*
X382106Y579047D01*
X382208Y579115D01*
X382307Y579187D01*
X382403Y579261D01*
X382498Y579339D01*
X382589Y579420D01*
X382679Y579503D01*
X382765Y579589D01*
X382848Y579679D01*
X382929Y579770D01*
X383007Y579865D01*
X383081Y579961D01*
X383153Y580060D01*
X383221Y580162D01*
X383286Y580265D01*
X383348Y580370D01*
X383406Y580478D01*
X383461Y580587D01*
X383512Y580698D01*
X383560Y580810D01*
X383604Y580924D01*
X383644Y581039D01*
X383681Y581156D01*
X383713Y581274D01*
X383742Y581392D01*
X383768Y581512D01*
X383789Y581632D01*
X383807Y581753D01*
X383820Y581874D01*
X383830Y581996D01*
X383836Y582118D01*
X383838Y582240D01*
X309162Y729560D02*
X309164Y729682D01*
X309170Y729804D01*
X309180Y729926D01*
X309193Y730047D01*
X309211Y730168D01*
X309232Y730288D01*
X309258Y730408D01*
X309287Y730526D01*
X309319Y730644D01*
X309356Y730761D01*
X309396Y730876D01*
X309440Y730990D01*
X309488Y731102D01*
X309539Y731213D01*
X309594Y731322D01*
X309652Y731430D01*
X309714Y731535D01*
X309779Y731638D01*
X309847Y731740D01*
X309919Y731839D01*
X309993Y731935D01*
X310071Y732030D01*
X310152Y732121D01*
X310235Y732211D01*
X310321Y732297D01*
X310411Y732380D01*
X310502Y732461D01*
X310597Y732539D01*
X310693Y732613D01*
X310792Y732685D01*
X310894Y732753D01*
X310997Y732818D01*
X311102Y732880D01*
X311210Y732938D01*
X311319Y732993D01*
X311430Y733044D01*
X311542Y733092D01*
X311656Y733136D01*
X311771Y733176D01*
X311888Y733213D01*
X312006Y733245D01*
X312124Y733274D01*
X312244Y733300D01*
X312364Y733321D01*
X312485Y733339D01*
X312606Y733352D01*
X312728Y733362D01*
X312850Y733368D01*
X312972Y733370D01*
X309162Y582240D02*
X309164Y582118D01*
X309170Y581996D01*
X309180Y581874D01*
X309193Y581753D01*
X309211Y581632D01*
X309232Y581512D01*
X309258Y581392D01*
X309287Y581274D01*
X309319Y581156D01*
X309356Y581039D01*
X309396Y580924D01*
X309440Y580810D01*
X309488Y580698D01*
X309539Y580587D01*
X309594Y580478D01*
X309652Y580370D01*
X309714Y580265D01*
X309779Y580162D01*
X309847Y580060D01*
X309919Y579961D01*
X309993Y579865D01*
X310071Y579770D01*
X310152Y579679D01*
X310235Y579589D01*
X310321Y579503D01*
X310411Y579420D01*
X310502Y579339D01*
X310597Y579261D01*
X310693Y579187D01*
X310792Y579115D01*
X310894Y579047D01*
X310997Y578982D01*
X311102Y578920D01*
X311210Y578862D01*
X311319Y578807D01*
X311430Y578756D01*
X311542Y578708D01*
X311656Y578664D01*
X311771Y578624D01*
X311888Y578587D01*
X312006Y578555D01*
X312124Y578526D01*
X312244Y578500D01*
X312364Y578479D01*
X312485Y578461D01*
X312606Y578448D01*
X312728Y578438D01*
X312850Y578432D01*
X312972Y578430D01*
X383838Y729560D02*
X383836Y729682D01*
X383830Y729804D01*
X383820Y729926D01*
X383807Y730047D01*
X383789Y730168D01*
X383768Y730288D01*
X383742Y730408D01*
X383713Y730526D01*
X383681Y730644D01*
X383644Y730761D01*
X383604Y730876D01*
X383560Y730990D01*
X383512Y731102D01*
X383461Y731213D01*
X383406Y731322D01*
X383348Y731430D01*
X383286Y731535D01*
X383221Y731638D01*
X383153Y731740D01*
X383081Y731839D01*
X383007Y731935D01*
X382929Y732030D01*
X382848Y732121D01*
X382765Y732211D01*
X382679Y732297D01*
X382589Y732380D01*
X382498Y732461D01*
X382403Y732539D01*
X382307Y732613D01*
X382208Y732685D01*
X382106Y732753D01*
X382003Y732818D01*
X381898Y732880D01*
X381790Y732938D01*
X381681Y732993D01*
X381570Y733044D01*
X381458Y733092D01*
X381344Y733136D01*
X381229Y733176D01*
X381112Y733213D01*
X380994Y733245D01*
X380876Y733274D01*
X380756Y733300D01*
X380636Y733321D01*
X380515Y733339D01*
X380394Y733352D01*
X380272Y733362D01*
X380150Y733368D01*
X380028Y733370D01*
X383838Y729560D02*
X383838Y582240D01*
X380028Y578430D02*
X312972Y578430D01*
X312972Y733370D02*
X333800Y733370D01*
X359200Y733370D01*
X380028Y733370D01*
D12*
X380282Y733370D02*
X380282Y578430D01*
D11*
X359200Y733370D02*
X359196Y733061D01*
X359185Y732752D01*
X359166Y732443D01*
X359140Y732135D01*
X359106Y731827D01*
X359065Y731521D01*
X359016Y731215D01*
X358960Y730911D01*
X358896Y730609D01*
X358825Y730308D01*
X358747Y730008D01*
X358662Y729711D01*
X358569Y729416D01*
X358469Y729123D01*
X358362Y728833D01*
X358248Y728546D01*
X358127Y728261D01*
X357999Y727979D01*
X357865Y727701D01*
X357723Y727426D01*
X357575Y727154D01*
X357420Y726887D01*
X357259Y726623D01*
X357092Y726363D01*
X356918Y726107D01*
X356738Y725855D01*
X356552Y725608D01*
X356360Y725366D01*
X356162Y725128D01*
X355959Y724895D01*
X355749Y724667D01*
X355535Y724445D01*
X355315Y724227D01*
X355089Y724015D01*
X354859Y723809D01*
X354624Y723608D01*
X354384Y723413D01*
X354139Y723224D01*
X353890Y723041D01*
X353636Y722864D01*
X353378Y722694D01*
X353116Y722529D01*
X352850Y722371D01*
X352580Y722220D01*
X352307Y722075D01*
X352030Y721937D01*
X351750Y721806D01*
X351467Y721682D01*
X351181Y721564D01*
X350892Y721454D01*
X350601Y721350D01*
X350307Y721254D01*
X350011Y721165D01*
X349712Y721083D01*
X349412Y721008D01*
X349110Y720941D01*
X348807Y720881D01*
X348502Y720829D01*
X348196Y720784D01*
X347889Y720746D01*
X347581Y720716D01*
X347273Y720694D01*
X346964Y720678D01*
X346655Y720671D01*
X346345Y720671D01*
X346036Y720678D01*
X345727Y720694D01*
X345419Y720716D01*
X345111Y720746D01*
X344804Y720784D01*
X344498Y720829D01*
X344193Y720881D01*
X343890Y720941D01*
X343588Y721008D01*
X343288Y721083D01*
X342989Y721165D01*
X342693Y721254D01*
X342399Y721350D01*
X342108Y721454D01*
X341819Y721564D01*
X341533Y721682D01*
X341250Y721806D01*
X340970Y721937D01*
X340693Y722075D01*
X340420Y722220D01*
X340150Y722371D01*
X339884Y722529D01*
X339622Y722694D01*
X339364Y722864D01*
X339110Y723041D01*
X338861Y723224D01*
X338616Y723413D01*
X338376Y723608D01*
X338141Y723809D01*
X337911Y724015D01*
X337685Y724227D01*
X337465Y724445D01*
X337251Y724667D01*
X337041Y724895D01*
X336838Y725128D01*
X336640Y725366D01*
X336448Y725608D01*
X336262Y725855D01*
X336082Y726107D01*
X335908Y726363D01*
X335741Y726623D01*
X335580Y726887D01*
X335425Y727154D01*
X335277Y727426D01*
X335135Y727701D01*
X335001Y727979D01*
X334873Y728261D01*
X334752Y728546D01*
X334638Y728833D01*
X334531Y729123D01*
X334431Y729416D01*
X334338Y729711D01*
X334253Y730008D01*
X334175Y730308D01*
X334104Y730609D01*
X334040Y730911D01*
X333984Y731215D01*
X333935Y731521D01*
X333894Y731827D01*
X333860Y732135D01*
X333834Y732443D01*
X333815Y732752D01*
X333804Y733061D01*
X333800Y733370D01*
D13*
X384473Y725750D03*
X384473Y713050D03*
X384473Y700350D03*
X384473Y687650D03*
X384473Y674950D03*
X384473Y662250D03*
X384473Y649550D03*
X384473Y636850D03*
X308527Y725750D03*
X308527Y713050D03*
X308527Y700350D03*
X308527Y687650D03*
X308527Y674950D03*
X308527Y662250D03*
X308527Y649550D03*
X308527Y636850D03*
X308527Y624150D03*
X308527Y611450D03*
X308527Y598750D03*
X308527Y586050D03*
X384473Y624150D03*
X384473Y611450D03*
X384473Y598750D03*
X384473Y586050D03*
D14*
X378885Y740990D02*
X378885Y749245D01*
X378885Y740990D02*
X378883Y740879D01*
X378877Y740769D01*
X378868Y740658D01*
X378854Y740548D01*
X378837Y740439D01*
X378816Y740330D01*
X378791Y740222D01*
X378762Y740115D01*
X378730Y740009D01*
X378694Y739904D01*
X378654Y739801D01*
X378611Y739699D01*
X378564Y739598D01*
X378513Y739499D01*
X378460Y739403D01*
X378403Y739308D01*
X378342Y739215D01*
X378279Y739124D01*
X378212Y739035D01*
X378142Y738949D01*
X378069Y738866D01*
X377994Y738784D01*
X377916Y738706D01*
X377834Y738631D01*
X377751Y738558D01*
X377665Y738488D01*
X377576Y738421D01*
X377485Y738358D01*
X377392Y738297D01*
X377297Y738240D01*
X377201Y738187D01*
X377102Y738136D01*
X377001Y738089D01*
X376899Y738046D01*
X376796Y738006D01*
X376691Y737970D01*
X376585Y737938D01*
X376478Y737909D01*
X376370Y737884D01*
X376261Y737863D01*
X376152Y737846D01*
X376042Y737832D01*
X375931Y737823D01*
X375821Y737817D01*
X375710Y737815D01*
X375599Y737817D01*
X375489Y737823D01*
X375378Y737832D01*
X375268Y737846D01*
X375159Y737863D01*
X375050Y737884D01*
X374942Y737909D01*
X374835Y737938D01*
X374729Y737970D01*
X374624Y738006D01*
X374521Y738046D01*
X374419Y738089D01*
X374318Y738136D01*
X374219Y738187D01*
X374123Y738240D01*
X374028Y738297D01*
X373935Y738358D01*
X373844Y738421D01*
X373755Y738488D01*
X373669Y738558D01*
X373586Y738631D01*
X373504Y738706D01*
X373426Y738784D01*
X373351Y738866D01*
X373278Y738949D01*
X373208Y739035D01*
X373141Y739124D01*
X373078Y739215D01*
X373017Y739308D01*
X372960Y739403D01*
X372907Y739499D01*
X372856Y739598D01*
X372809Y739699D01*
X372766Y739801D01*
X372726Y739904D01*
X372690Y740009D01*
X372658Y740115D01*
X372629Y740222D01*
X372604Y740330D01*
X372583Y740439D01*
X372566Y740548D01*
X372552Y740658D01*
X372543Y740769D01*
X372537Y740879D01*
X372535Y740990D01*
X372535Y749245D01*
X364661Y749245D02*
X364661Y737815D01*
X364661Y743530D02*
X366249Y744483D01*
X366249Y744482D02*
X366322Y744529D01*
X366393Y744578D01*
X366462Y744631D01*
X366528Y744687D01*
X366592Y744746D01*
X366653Y744807D01*
X366711Y744871D01*
X366766Y744938D01*
X366818Y745008D01*
X366866Y745079D01*
X366912Y745153D01*
X366954Y745229D01*
X366992Y745307D01*
X367027Y745386D01*
X367058Y745467D01*
X367085Y745549D01*
X367109Y745632D01*
X367129Y745717D01*
X367145Y745802D01*
X367157Y745888D01*
X367165Y745974D01*
X367169Y746060D01*
X367170Y746147D01*
X367166Y746234D01*
X367158Y746320D01*
X367147Y746406D01*
X367131Y746491D01*
X367112Y746575D01*
X367089Y746659D01*
X367062Y746741D01*
X367031Y746822D01*
X366996Y746902D01*
X366959Y746979D01*
X366917Y747055D01*
X366872Y747130D01*
X366824Y747201D01*
X366772Y747271D01*
X366718Y747338D01*
X366660Y747403D01*
X366600Y747465D01*
X366536Y747524D01*
X366470Y747580D01*
X366402Y747634D01*
X366331Y747683D01*
X366258Y747730D01*
X366183Y747773D01*
X366106Y747813D01*
X366028Y747849D01*
X365947Y747882D01*
X365866Y747911D01*
X365783Y747936D01*
X365699Y747958D01*
X365614Y747975D01*
X365613Y747975D02*
X365476Y747998D01*
X365337Y748018D01*
X365199Y748033D01*
X365060Y748045D01*
X364920Y748053D01*
X364781Y748056D01*
X364641Y748057D01*
X364502Y748053D01*
X364363Y748045D01*
X364224Y748034D01*
X364085Y748018D01*
X363947Y747999D01*
X363809Y747976D01*
X363672Y747949D01*
X363536Y747918D01*
X363401Y747884D01*
X363267Y747846D01*
X363133Y747804D01*
X363002Y747758D01*
X362871Y747709D01*
X362742Y747656D01*
X362614Y747600D01*
X362488Y747540D01*
X362364Y747477D01*
X362241Y747410D01*
X362121Y747340D01*
X364661Y743530D02*
X363074Y742578D01*
X363073Y742578D02*
X363000Y742531D01*
X362929Y742482D01*
X362860Y742429D01*
X362794Y742373D01*
X362730Y742314D01*
X362669Y742253D01*
X362611Y742189D01*
X362556Y742122D01*
X362504Y742052D01*
X362456Y741981D01*
X362410Y741907D01*
X362368Y741831D01*
X362330Y741753D01*
X362295Y741674D01*
X362264Y741593D01*
X362237Y741511D01*
X362213Y741428D01*
X362193Y741343D01*
X362177Y741258D01*
X362165Y741172D01*
X362157Y741086D01*
X362153Y741000D01*
X362152Y740913D01*
X362156Y740826D01*
X362164Y740740D01*
X362175Y740654D01*
X362191Y740569D01*
X362210Y740485D01*
X362233Y740401D01*
X362260Y740319D01*
X362291Y740238D01*
X362326Y740158D01*
X362363Y740081D01*
X362405Y740005D01*
X362450Y739930D01*
X362498Y739859D01*
X362550Y739789D01*
X362604Y739722D01*
X362662Y739657D01*
X362722Y739595D01*
X362786Y739536D01*
X362852Y739480D01*
X362920Y739426D01*
X362991Y739377D01*
X363064Y739330D01*
X363139Y739287D01*
X363216Y739247D01*
X363294Y739211D01*
X363375Y739178D01*
X363456Y739149D01*
X363539Y739124D01*
X363623Y739102D01*
X363708Y739085D01*
X363709Y739085D02*
X363846Y739062D01*
X363985Y739042D01*
X364123Y739027D01*
X364262Y739015D01*
X364402Y739007D01*
X364541Y739004D01*
X364681Y739003D01*
X364820Y739007D01*
X364959Y739015D01*
X365098Y739026D01*
X365237Y739042D01*
X365375Y739061D01*
X365513Y739084D01*
X365650Y739111D01*
X365786Y739142D01*
X365921Y739176D01*
X366055Y739214D01*
X366189Y739256D01*
X366320Y739302D01*
X366451Y739351D01*
X366580Y739404D01*
X366708Y739460D01*
X366834Y739520D01*
X366958Y739583D01*
X367081Y739650D01*
X367201Y739720D01*
X357168Y746705D02*
X353993Y749245D01*
X353993Y737815D01*
X357168Y737815D02*
X350818Y737815D01*
D10*
X351261Y535108D02*
X348664Y535108D01*
X351261Y535108D02*
X351360Y535110D01*
X351460Y535116D01*
X351559Y535125D01*
X351657Y535138D01*
X351755Y535155D01*
X351853Y535176D01*
X351949Y535201D01*
X352044Y535229D01*
X352138Y535261D01*
X352231Y535296D01*
X352323Y535335D01*
X352413Y535378D01*
X352501Y535423D01*
X352588Y535473D01*
X352672Y535525D01*
X352755Y535581D01*
X352835Y535639D01*
X352913Y535701D01*
X352988Y535766D01*
X353061Y535834D01*
X353131Y535904D01*
X353199Y535977D01*
X353264Y536052D01*
X353326Y536130D01*
X353384Y536210D01*
X353440Y536293D01*
X353492Y536377D01*
X353542Y536464D01*
X353587Y536552D01*
X353630Y536642D01*
X353669Y536734D01*
X353704Y536827D01*
X353736Y536921D01*
X353764Y537016D01*
X353789Y537112D01*
X353810Y537210D01*
X353827Y537308D01*
X353840Y537406D01*
X353849Y537505D01*
X353855Y537605D01*
X353857Y537704D01*
X353857Y544196D01*
X353855Y544295D01*
X353849Y544395D01*
X353840Y544494D01*
X353827Y544592D01*
X353810Y544690D01*
X353789Y544788D01*
X353764Y544884D01*
X353736Y544979D01*
X353704Y545073D01*
X353669Y545166D01*
X353630Y545258D01*
X353587Y545348D01*
X353542Y545436D01*
X353492Y545523D01*
X353440Y545607D01*
X353384Y545690D01*
X353326Y545770D01*
X353264Y545848D01*
X353199Y545923D01*
X353131Y545996D01*
X353061Y546066D01*
X352988Y546134D01*
X352913Y546199D01*
X352835Y546261D01*
X352755Y546319D01*
X352672Y546375D01*
X352588Y546427D01*
X352501Y546477D01*
X352413Y546522D01*
X352323Y546565D01*
X352231Y546604D01*
X352138Y546639D01*
X352044Y546671D01*
X351949Y546699D01*
X351853Y546724D01*
X351755Y546745D01*
X351657Y546762D01*
X351559Y546775D01*
X351460Y546784D01*
X351360Y546790D01*
X351261Y546792D01*
X348664Y546792D01*
X344299Y544196D02*
X341054Y546792D01*
X341054Y535108D01*
X344299Y535108D02*
X337808Y535108D01*
D11*
X782662Y343660D02*
X782662Y196340D01*
X853528Y192530D02*
X853650Y192532D01*
X853772Y192538D01*
X853894Y192548D01*
X854015Y192561D01*
X854136Y192579D01*
X854256Y192600D01*
X854376Y192626D01*
X854494Y192655D01*
X854612Y192687D01*
X854729Y192724D01*
X854844Y192764D01*
X854958Y192808D01*
X855070Y192856D01*
X855181Y192907D01*
X855290Y192962D01*
X855398Y193020D01*
X855503Y193082D01*
X855606Y193147D01*
X855708Y193215D01*
X855807Y193287D01*
X855903Y193361D01*
X855998Y193439D01*
X856089Y193520D01*
X856179Y193603D01*
X856265Y193689D01*
X856348Y193779D01*
X856429Y193870D01*
X856507Y193965D01*
X856581Y194061D01*
X856653Y194160D01*
X856721Y194262D01*
X856786Y194365D01*
X856848Y194470D01*
X856906Y194578D01*
X856961Y194687D01*
X857012Y194798D01*
X857060Y194910D01*
X857104Y195024D01*
X857144Y195139D01*
X857181Y195256D01*
X857213Y195374D01*
X857242Y195492D01*
X857268Y195612D01*
X857289Y195732D01*
X857307Y195853D01*
X857320Y195974D01*
X857330Y196096D01*
X857336Y196218D01*
X857338Y196340D01*
X782662Y343660D02*
X782664Y343782D01*
X782670Y343904D01*
X782680Y344026D01*
X782693Y344147D01*
X782711Y344268D01*
X782732Y344388D01*
X782758Y344508D01*
X782787Y344626D01*
X782819Y344744D01*
X782856Y344861D01*
X782896Y344976D01*
X782940Y345090D01*
X782988Y345202D01*
X783039Y345313D01*
X783094Y345422D01*
X783152Y345530D01*
X783214Y345635D01*
X783279Y345738D01*
X783347Y345840D01*
X783419Y345939D01*
X783493Y346035D01*
X783571Y346130D01*
X783652Y346221D01*
X783735Y346311D01*
X783821Y346397D01*
X783911Y346480D01*
X784002Y346561D01*
X784097Y346639D01*
X784193Y346713D01*
X784292Y346785D01*
X784394Y346853D01*
X784497Y346918D01*
X784602Y346980D01*
X784710Y347038D01*
X784819Y347093D01*
X784930Y347144D01*
X785042Y347192D01*
X785156Y347236D01*
X785271Y347276D01*
X785388Y347313D01*
X785506Y347345D01*
X785624Y347374D01*
X785744Y347400D01*
X785864Y347421D01*
X785985Y347439D01*
X786106Y347452D01*
X786228Y347462D01*
X786350Y347468D01*
X786472Y347470D01*
X782662Y196340D02*
X782664Y196218D01*
X782670Y196096D01*
X782680Y195974D01*
X782693Y195853D01*
X782711Y195732D01*
X782732Y195612D01*
X782758Y195492D01*
X782787Y195374D01*
X782819Y195256D01*
X782856Y195139D01*
X782896Y195024D01*
X782940Y194910D01*
X782988Y194798D01*
X783039Y194687D01*
X783094Y194578D01*
X783152Y194470D01*
X783214Y194365D01*
X783279Y194262D01*
X783347Y194160D01*
X783419Y194061D01*
X783493Y193965D01*
X783571Y193870D01*
X783652Y193779D01*
X783735Y193689D01*
X783821Y193603D01*
X783911Y193520D01*
X784002Y193439D01*
X784097Y193361D01*
X784193Y193287D01*
X784292Y193215D01*
X784394Y193147D01*
X784497Y193082D01*
X784602Y193020D01*
X784710Y192962D01*
X784819Y192907D01*
X784930Y192856D01*
X785042Y192808D01*
X785156Y192764D01*
X785271Y192724D01*
X785388Y192687D01*
X785506Y192655D01*
X785624Y192626D01*
X785744Y192600D01*
X785864Y192579D01*
X785985Y192561D01*
X786106Y192548D01*
X786228Y192538D01*
X786350Y192532D01*
X786472Y192530D01*
X857338Y343660D02*
X857336Y343782D01*
X857330Y343904D01*
X857320Y344026D01*
X857307Y344147D01*
X857289Y344268D01*
X857268Y344388D01*
X857242Y344508D01*
X857213Y344626D01*
X857181Y344744D01*
X857144Y344861D01*
X857104Y344976D01*
X857060Y345090D01*
X857012Y345202D01*
X856961Y345313D01*
X856906Y345422D01*
X856848Y345530D01*
X856786Y345635D01*
X856721Y345738D01*
X856653Y345840D01*
X856581Y345939D01*
X856507Y346035D01*
X856429Y346130D01*
X856348Y346221D01*
X856265Y346311D01*
X856179Y346397D01*
X856089Y346480D01*
X855998Y346561D01*
X855903Y346639D01*
X855807Y346713D01*
X855708Y346785D01*
X855606Y346853D01*
X855503Y346918D01*
X855398Y346980D01*
X855290Y347038D01*
X855181Y347093D01*
X855070Y347144D01*
X854958Y347192D01*
X854844Y347236D01*
X854729Y347276D01*
X854612Y347313D01*
X854494Y347345D01*
X854376Y347374D01*
X854256Y347400D01*
X854136Y347421D01*
X854015Y347439D01*
X853894Y347452D01*
X853772Y347462D01*
X853650Y347468D01*
X853528Y347470D01*
X857338Y343660D02*
X857338Y196340D01*
X853528Y192530D02*
X786472Y192530D01*
X786472Y347470D02*
X807300Y347470D01*
X832700Y347470D01*
X853528Y347470D01*
D12*
X853782Y347470D02*
X853782Y192530D01*
D11*
X832700Y347470D02*
X832696Y347161D01*
X832685Y346852D01*
X832666Y346543D01*
X832640Y346235D01*
X832606Y345927D01*
X832565Y345621D01*
X832516Y345315D01*
X832460Y345011D01*
X832396Y344709D01*
X832325Y344408D01*
X832247Y344108D01*
X832162Y343811D01*
X832069Y343516D01*
X831969Y343223D01*
X831862Y342933D01*
X831748Y342646D01*
X831627Y342361D01*
X831499Y342079D01*
X831365Y341801D01*
X831223Y341526D01*
X831075Y341254D01*
X830920Y340987D01*
X830759Y340723D01*
X830592Y340463D01*
X830418Y340207D01*
X830238Y339955D01*
X830052Y339708D01*
X829860Y339466D01*
X829662Y339228D01*
X829459Y338995D01*
X829249Y338767D01*
X829035Y338545D01*
X828815Y338327D01*
X828589Y338115D01*
X828359Y337909D01*
X828124Y337708D01*
X827884Y337513D01*
X827639Y337324D01*
X827390Y337141D01*
X827136Y336964D01*
X826878Y336794D01*
X826616Y336629D01*
X826350Y336471D01*
X826080Y336320D01*
X825807Y336175D01*
X825530Y336037D01*
X825250Y335906D01*
X824967Y335782D01*
X824681Y335664D01*
X824392Y335554D01*
X824101Y335450D01*
X823807Y335354D01*
X823511Y335265D01*
X823212Y335183D01*
X822912Y335108D01*
X822610Y335041D01*
X822307Y334981D01*
X822002Y334929D01*
X821696Y334884D01*
X821389Y334846D01*
X821081Y334816D01*
X820773Y334794D01*
X820464Y334778D01*
X820155Y334771D01*
X819845Y334771D01*
X819536Y334778D01*
X819227Y334794D01*
X818919Y334816D01*
X818611Y334846D01*
X818304Y334884D01*
X817998Y334929D01*
X817693Y334981D01*
X817390Y335041D01*
X817088Y335108D01*
X816788Y335183D01*
X816489Y335265D01*
X816193Y335354D01*
X815899Y335450D01*
X815608Y335554D01*
X815319Y335664D01*
X815033Y335782D01*
X814750Y335906D01*
X814470Y336037D01*
X814193Y336175D01*
X813920Y336320D01*
X813650Y336471D01*
X813384Y336629D01*
X813122Y336794D01*
X812864Y336964D01*
X812610Y337141D01*
X812361Y337324D01*
X812116Y337513D01*
X811876Y337708D01*
X811641Y337909D01*
X811411Y338115D01*
X811185Y338327D01*
X810965Y338545D01*
X810751Y338767D01*
X810541Y338995D01*
X810338Y339228D01*
X810140Y339466D01*
X809948Y339708D01*
X809762Y339955D01*
X809582Y340207D01*
X809408Y340463D01*
X809241Y340723D01*
X809080Y340987D01*
X808925Y341254D01*
X808777Y341526D01*
X808635Y341801D01*
X808501Y342079D01*
X808373Y342361D01*
X808252Y342646D01*
X808138Y342933D01*
X808031Y343223D01*
X807931Y343516D01*
X807838Y343811D01*
X807753Y344108D01*
X807675Y344408D01*
X807604Y344709D01*
X807540Y345011D01*
X807484Y345315D01*
X807435Y345621D01*
X807394Y345927D01*
X807360Y346235D01*
X807334Y346543D01*
X807315Y346852D01*
X807304Y347161D01*
X807300Y347470D01*
D13*
X857973Y339850D03*
X857973Y327150D03*
X857973Y314450D03*
X857973Y301750D03*
X857973Y289050D03*
X857973Y276350D03*
X857973Y263650D03*
X857973Y250950D03*
X782027Y339850D03*
X782027Y327150D03*
X782027Y314450D03*
X782027Y301750D03*
X782027Y289050D03*
X782027Y276350D03*
X782027Y263650D03*
X782027Y250950D03*
X782027Y238250D03*
X782027Y225550D03*
X782027Y212850D03*
X782027Y200150D03*
X857973Y238250D03*
X857973Y225550D03*
X857973Y212850D03*
X857973Y200150D03*
D14*
X852385Y355090D02*
X852385Y363345D01*
X852385Y355090D02*
X852383Y354979D01*
X852377Y354869D01*
X852368Y354758D01*
X852354Y354648D01*
X852337Y354539D01*
X852316Y354430D01*
X852291Y354322D01*
X852262Y354215D01*
X852230Y354109D01*
X852194Y354004D01*
X852154Y353901D01*
X852111Y353799D01*
X852064Y353698D01*
X852013Y353599D01*
X851960Y353502D01*
X851903Y353408D01*
X851842Y353315D01*
X851779Y353224D01*
X851712Y353135D01*
X851642Y353049D01*
X851569Y352966D01*
X851494Y352884D01*
X851416Y352806D01*
X851334Y352731D01*
X851251Y352658D01*
X851165Y352588D01*
X851076Y352521D01*
X850985Y352458D01*
X850892Y352397D01*
X850798Y352340D01*
X850701Y352287D01*
X850602Y352236D01*
X850501Y352189D01*
X850399Y352146D01*
X850296Y352106D01*
X850191Y352070D01*
X850085Y352038D01*
X849978Y352009D01*
X849870Y351984D01*
X849761Y351963D01*
X849652Y351946D01*
X849542Y351932D01*
X849431Y351923D01*
X849321Y351917D01*
X849210Y351915D01*
X849099Y351917D01*
X848989Y351923D01*
X848878Y351932D01*
X848768Y351946D01*
X848659Y351963D01*
X848550Y351984D01*
X848442Y352009D01*
X848335Y352038D01*
X848229Y352070D01*
X848124Y352106D01*
X848021Y352146D01*
X847919Y352189D01*
X847818Y352236D01*
X847719Y352287D01*
X847623Y352340D01*
X847528Y352397D01*
X847435Y352458D01*
X847344Y352521D01*
X847255Y352588D01*
X847169Y352658D01*
X847086Y352731D01*
X847004Y352806D01*
X846926Y352884D01*
X846851Y352966D01*
X846778Y353049D01*
X846708Y353135D01*
X846641Y353224D01*
X846578Y353315D01*
X846517Y353408D01*
X846460Y353503D01*
X846407Y353599D01*
X846356Y353698D01*
X846309Y353799D01*
X846266Y353901D01*
X846226Y354004D01*
X846190Y354109D01*
X846158Y354215D01*
X846129Y354322D01*
X846104Y354430D01*
X846083Y354539D01*
X846066Y354648D01*
X846052Y354758D01*
X846043Y354869D01*
X846037Y354979D01*
X846035Y355090D01*
X846035Y363345D01*
X838161Y363345D02*
X838161Y351915D01*
X838161Y357630D02*
X839749Y358583D01*
X839749Y358582D02*
X839822Y358629D01*
X839893Y358678D01*
X839962Y358731D01*
X840028Y358787D01*
X840092Y358846D01*
X840153Y358907D01*
X840211Y358971D01*
X840266Y359038D01*
X840318Y359108D01*
X840366Y359179D01*
X840412Y359253D01*
X840454Y359329D01*
X840492Y359407D01*
X840527Y359486D01*
X840558Y359567D01*
X840585Y359649D01*
X840609Y359732D01*
X840629Y359817D01*
X840645Y359902D01*
X840657Y359988D01*
X840665Y360074D01*
X840669Y360160D01*
X840670Y360247D01*
X840666Y360334D01*
X840658Y360420D01*
X840647Y360506D01*
X840631Y360591D01*
X840612Y360675D01*
X840589Y360759D01*
X840562Y360841D01*
X840531Y360922D01*
X840496Y361002D01*
X840459Y361079D01*
X840417Y361155D01*
X840372Y361230D01*
X840324Y361301D01*
X840272Y361371D01*
X840218Y361438D01*
X840160Y361503D01*
X840100Y361565D01*
X840036Y361624D01*
X839970Y361680D01*
X839902Y361734D01*
X839831Y361783D01*
X839758Y361830D01*
X839683Y361873D01*
X839606Y361913D01*
X839528Y361949D01*
X839447Y361982D01*
X839366Y362011D01*
X839283Y362036D01*
X839199Y362058D01*
X839114Y362075D01*
X839113Y362075D02*
X838976Y362098D01*
X838837Y362118D01*
X838699Y362133D01*
X838560Y362145D01*
X838420Y362153D01*
X838281Y362156D01*
X838141Y362157D01*
X838002Y362153D01*
X837863Y362145D01*
X837724Y362134D01*
X837585Y362118D01*
X837447Y362099D01*
X837309Y362076D01*
X837172Y362049D01*
X837036Y362018D01*
X836901Y361984D01*
X836767Y361946D01*
X836633Y361904D01*
X836502Y361858D01*
X836371Y361809D01*
X836242Y361756D01*
X836114Y361700D01*
X835988Y361640D01*
X835864Y361577D01*
X835741Y361510D01*
X835621Y361440D01*
X838161Y357630D02*
X836574Y356678D01*
X836573Y356678D02*
X836500Y356631D01*
X836429Y356582D01*
X836360Y356529D01*
X836294Y356473D01*
X836230Y356414D01*
X836169Y356353D01*
X836111Y356289D01*
X836056Y356222D01*
X836004Y356152D01*
X835956Y356081D01*
X835910Y356007D01*
X835868Y355931D01*
X835830Y355853D01*
X835795Y355774D01*
X835764Y355693D01*
X835737Y355611D01*
X835713Y355528D01*
X835693Y355443D01*
X835677Y355358D01*
X835665Y355272D01*
X835657Y355186D01*
X835653Y355100D01*
X835652Y355013D01*
X835656Y354926D01*
X835664Y354840D01*
X835675Y354754D01*
X835691Y354669D01*
X835710Y354585D01*
X835733Y354501D01*
X835760Y354419D01*
X835791Y354338D01*
X835826Y354258D01*
X835863Y354181D01*
X835905Y354105D01*
X835950Y354030D01*
X835998Y353959D01*
X836050Y353889D01*
X836104Y353822D01*
X836162Y353757D01*
X836222Y353695D01*
X836286Y353636D01*
X836352Y353580D01*
X836420Y353526D01*
X836491Y353477D01*
X836564Y353430D01*
X836639Y353387D01*
X836716Y353347D01*
X836794Y353311D01*
X836875Y353278D01*
X836956Y353249D01*
X837039Y353224D01*
X837123Y353202D01*
X837208Y353185D01*
X837209Y353185D02*
X837346Y353162D01*
X837485Y353142D01*
X837623Y353127D01*
X837762Y353115D01*
X837902Y353107D01*
X838041Y353104D01*
X838181Y353103D01*
X838320Y353107D01*
X838459Y353115D01*
X838598Y353126D01*
X838737Y353142D01*
X838875Y353161D01*
X839013Y353184D01*
X839150Y353211D01*
X839286Y353242D01*
X839421Y353276D01*
X839555Y353314D01*
X839689Y353356D01*
X839820Y353402D01*
X839951Y353451D01*
X840080Y353504D01*
X840208Y353560D01*
X840334Y353620D01*
X840458Y353683D01*
X840581Y353750D01*
X840701Y353820D01*
X827176Y363346D02*
X827072Y363344D01*
X826967Y363338D01*
X826863Y363329D01*
X826760Y363316D01*
X826657Y363298D01*
X826555Y363278D01*
X826453Y363253D01*
X826353Y363225D01*
X826253Y363193D01*
X826155Y363157D01*
X826058Y363118D01*
X825963Y363076D01*
X825869Y363030D01*
X825777Y362980D01*
X825687Y362928D01*
X825599Y362872D01*
X825513Y362812D01*
X825429Y362750D01*
X825348Y362685D01*
X825269Y362617D01*
X825192Y362545D01*
X825119Y362472D01*
X825047Y362395D01*
X824979Y362316D01*
X824914Y362235D01*
X824852Y362151D01*
X824792Y362065D01*
X824736Y361977D01*
X824684Y361887D01*
X824634Y361795D01*
X824588Y361701D01*
X824546Y361606D01*
X824507Y361509D01*
X824471Y361411D01*
X824439Y361311D01*
X824411Y361211D01*
X824386Y361109D01*
X824366Y361007D01*
X824348Y360904D01*
X824335Y360801D01*
X824326Y360697D01*
X824320Y360592D01*
X824318Y360488D01*
X827176Y363345D02*
X827294Y363343D01*
X827413Y363337D01*
X827531Y363328D01*
X827648Y363315D01*
X827765Y363297D01*
X827882Y363277D01*
X827998Y363252D01*
X828113Y363224D01*
X828226Y363191D01*
X828339Y363156D01*
X828451Y363116D01*
X828561Y363074D01*
X828670Y363027D01*
X828778Y362977D01*
X828883Y362924D01*
X828987Y362867D01*
X829089Y362807D01*
X829189Y362744D01*
X829287Y362677D01*
X829383Y362608D01*
X829476Y362535D01*
X829567Y362459D01*
X829656Y362381D01*
X829742Y362299D01*
X829825Y362215D01*
X829906Y362129D01*
X829983Y362039D01*
X830058Y361948D01*
X830130Y361854D01*
X830199Y361757D01*
X830264Y361659D01*
X830327Y361558D01*
X830386Y361455D01*
X830442Y361351D01*
X830494Y361245D01*
X830543Y361137D01*
X830588Y361028D01*
X830630Y360917D01*
X830668Y360805D01*
X825270Y358266D02*
X825194Y358341D01*
X825119Y358420D01*
X825048Y358501D01*
X824979Y358585D01*
X824914Y358671D01*
X824852Y358759D01*
X824792Y358849D01*
X824736Y358941D01*
X824683Y359036D01*
X824634Y359132D01*
X824588Y359230D01*
X824545Y359329D01*
X824506Y359430D01*
X824471Y359532D01*
X824439Y359635D01*
X824411Y359739D01*
X824386Y359844D01*
X824365Y359951D01*
X824348Y360057D01*
X824335Y360164D01*
X824326Y360272D01*
X824320Y360380D01*
X824318Y360488D01*
X825271Y358265D02*
X830668Y351915D01*
X824318Y351915D01*
D10*
X726792Y264345D02*
X715108Y264345D01*
X726792Y264345D02*
X726792Y267590D01*
X726790Y267703D01*
X726784Y267816D01*
X726774Y267929D01*
X726760Y268042D01*
X726743Y268154D01*
X726721Y268265D01*
X726696Y268375D01*
X726666Y268485D01*
X726633Y268593D01*
X726596Y268700D01*
X726556Y268806D01*
X726511Y268910D01*
X726463Y269013D01*
X726412Y269114D01*
X726357Y269213D01*
X726299Y269310D01*
X726237Y269405D01*
X726172Y269498D01*
X726104Y269588D01*
X726033Y269676D01*
X725958Y269762D01*
X725881Y269845D01*
X725801Y269925D01*
X725718Y270002D01*
X725632Y270077D01*
X725544Y270148D01*
X725454Y270216D01*
X725361Y270281D01*
X725266Y270343D01*
X725169Y270401D01*
X725070Y270456D01*
X724969Y270507D01*
X724866Y270555D01*
X724762Y270600D01*
X724656Y270640D01*
X724549Y270677D01*
X724441Y270710D01*
X724331Y270740D01*
X724221Y270765D01*
X724110Y270787D01*
X723998Y270804D01*
X723885Y270818D01*
X723772Y270828D01*
X723659Y270834D01*
X723546Y270836D01*
X723433Y270834D01*
X723320Y270828D01*
X723207Y270818D01*
X723094Y270804D01*
X722982Y270787D01*
X722871Y270765D01*
X722761Y270740D01*
X722651Y270710D01*
X722543Y270677D01*
X722436Y270640D01*
X722330Y270600D01*
X722226Y270555D01*
X722123Y270507D01*
X722022Y270456D01*
X721923Y270401D01*
X721826Y270343D01*
X721731Y270281D01*
X721638Y270216D01*
X721548Y270148D01*
X721460Y270077D01*
X721374Y270002D01*
X721291Y269925D01*
X721211Y269845D01*
X721134Y269762D01*
X721059Y269676D01*
X720988Y269588D01*
X720920Y269498D01*
X720855Y269405D01*
X720793Y269310D01*
X720735Y269213D01*
X720680Y269114D01*
X720629Y269013D01*
X720581Y268910D01*
X720536Y268806D01*
X720496Y268700D01*
X720459Y268593D01*
X720426Y268485D01*
X720396Y268375D01*
X720371Y268265D01*
X720349Y268154D01*
X720332Y268042D01*
X720318Y267929D01*
X720308Y267816D01*
X720302Y267703D01*
X720300Y267590D01*
X720301Y267590D02*
X720301Y264345D01*
X720301Y268239D02*
X715108Y270836D01*
X723871Y282192D02*
X723978Y282190D01*
X724084Y282184D01*
X724190Y282174D01*
X724296Y282161D01*
X724402Y282143D01*
X724506Y282122D01*
X724610Y282097D01*
X724713Y282068D01*
X724814Y282036D01*
X724914Y281999D01*
X725013Y281959D01*
X725111Y281916D01*
X725207Y281869D01*
X725301Y281818D01*
X725393Y281764D01*
X725483Y281707D01*
X725571Y281647D01*
X725656Y281583D01*
X725739Y281516D01*
X725820Y281446D01*
X725898Y281374D01*
X725974Y281298D01*
X726046Y281220D01*
X726116Y281139D01*
X726183Y281056D01*
X726247Y280971D01*
X726307Y280883D01*
X726364Y280793D01*
X726418Y280701D01*
X726469Y280607D01*
X726516Y280511D01*
X726559Y280413D01*
X726599Y280314D01*
X726636Y280214D01*
X726668Y280113D01*
X726697Y280010D01*
X726722Y279906D01*
X726743Y279802D01*
X726761Y279696D01*
X726774Y279590D01*
X726784Y279484D01*
X726790Y279378D01*
X726792Y279271D01*
X726790Y279150D01*
X726784Y279029D01*
X726774Y278909D01*
X726761Y278788D01*
X726743Y278669D01*
X726722Y278549D01*
X726697Y278431D01*
X726668Y278314D01*
X726635Y278197D01*
X726599Y278082D01*
X726558Y277968D01*
X726515Y277855D01*
X726467Y277743D01*
X726416Y277634D01*
X726361Y277526D01*
X726303Y277419D01*
X726242Y277315D01*
X726177Y277213D01*
X726109Y277113D01*
X726038Y277015D01*
X725964Y276919D01*
X725887Y276826D01*
X725806Y276736D01*
X725723Y276648D01*
X725637Y276563D01*
X725548Y276480D01*
X725457Y276401D01*
X725363Y276324D01*
X725267Y276251D01*
X725169Y276181D01*
X725068Y276114D01*
X724965Y276050D01*
X724860Y275990D01*
X724753Y275933D01*
X724645Y275879D01*
X724535Y275829D01*
X724423Y275783D01*
X724310Y275740D01*
X724195Y275701D01*
X721599Y281219D02*
X721676Y281298D01*
X721757Y281374D01*
X721840Y281447D01*
X721925Y281517D01*
X722013Y281584D01*
X722103Y281648D01*
X722195Y281708D01*
X722290Y281765D01*
X722386Y281819D01*
X722484Y281870D01*
X722584Y281917D01*
X722686Y281961D01*
X722789Y282001D01*
X722893Y282037D01*
X722999Y282069D01*
X723105Y282098D01*
X723213Y282123D01*
X723321Y282145D01*
X723431Y282162D01*
X723540Y282176D01*
X723650Y282185D01*
X723761Y282191D01*
X723871Y282193D01*
X721599Y281218D02*
X715108Y275701D01*
X715108Y282192D01*
X818664Y145108D02*
X821261Y145108D01*
X821360Y145110D01*
X821460Y145116D01*
X821559Y145125D01*
X821657Y145138D01*
X821755Y145155D01*
X821853Y145176D01*
X821949Y145201D01*
X822044Y145229D01*
X822138Y145261D01*
X822231Y145296D01*
X822323Y145335D01*
X822413Y145378D01*
X822501Y145423D01*
X822588Y145473D01*
X822672Y145525D01*
X822755Y145581D01*
X822835Y145639D01*
X822913Y145701D01*
X822988Y145766D01*
X823061Y145834D01*
X823131Y145904D01*
X823199Y145977D01*
X823264Y146052D01*
X823326Y146130D01*
X823384Y146210D01*
X823440Y146293D01*
X823492Y146377D01*
X823542Y146464D01*
X823587Y146552D01*
X823630Y146642D01*
X823669Y146734D01*
X823704Y146827D01*
X823736Y146921D01*
X823764Y147016D01*
X823789Y147112D01*
X823810Y147210D01*
X823827Y147308D01*
X823840Y147406D01*
X823849Y147505D01*
X823855Y147605D01*
X823857Y147704D01*
X823857Y154196D01*
X823855Y154295D01*
X823849Y154395D01*
X823840Y154494D01*
X823827Y154592D01*
X823810Y154690D01*
X823789Y154788D01*
X823764Y154884D01*
X823736Y154979D01*
X823704Y155073D01*
X823669Y155166D01*
X823630Y155258D01*
X823587Y155348D01*
X823542Y155436D01*
X823492Y155523D01*
X823440Y155607D01*
X823384Y155690D01*
X823326Y155770D01*
X823264Y155848D01*
X823199Y155923D01*
X823131Y155996D01*
X823061Y156066D01*
X822988Y156134D01*
X822913Y156199D01*
X822835Y156261D01*
X822755Y156319D01*
X822672Y156375D01*
X822588Y156427D01*
X822501Y156477D01*
X822413Y156522D01*
X822323Y156565D01*
X822231Y156604D01*
X822138Y156639D01*
X822044Y156671D01*
X821949Y156699D01*
X821853Y156724D01*
X821755Y156745D01*
X821657Y156762D01*
X821559Y156775D01*
X821460Y156784D01*
X821360Y156790D01*
X821261Y156792D01*
X818664Y156792D01*
X810729Y156792D02*
X810622Y156790D01*
X810516Y156784D01*
X810410Y156774D01*
X810304Y156761D01*
X810198Y156743D01*
X810094Y156722D01*
X809990Y156697D01*
X809887Y156668D01*
X809786Y156636D01*
X809686Y156599D01*
X809587Y156559D01*
X809489Y156516D01*
X809393Y156469D01*
X809299Y156418D01*
X809207Y156364D01*
X809117Y156307D01*
X809029Y156247D01*
X808944Y156183D01*
X808861Y156116D01*
X808780Y156046D01*
X808702Y155974D01*
X808626Y155898D01*
X808554Y155820D01*
X808484Y155739D01*
X808417Y155656D01*
X808353Y155571D01*
X808293Y155483D01*
X808236Y155393D01*
X808182Y155301D01*
X808131Y155207D01*
X808084Y155111D01*
X808041Y155013D01*
X808001Y154914D01*
X807964Y154814D01*
X807932Y154713D01*
X807903Y154610D01*
X807878Y154506D01*
X807857Y154402D01*
X807839Y154296D01*
X807826Y154190D01*
X807816Y154084D01*
X807810Y153978D01*
X807808Y153871D01*
X810729Y156792D02*
X810850Y156790D01*
X810971Y156784D01*
X811091Y156774D01*
X811212Y156761D01*
X811331Y156743D01*
X811451Y156722D01*
X811569Y156697D01*
X811686Y156668D01*
X811803Y156635D01*
X811918Y156599D01*
X812032Y156558D01*
X812145Y156515D01*
X812257Y156467D01*
X812366Y156416D01*
X812474Y156361D01*
X812581Y156303D01*
X812685Y156242D01*
X812787Y156177D01*
X812887Y156109D01*
X812985Y156038D01*
X813081Y155964D01*
X813174Y155887D01*
X813264Y155806D01*
X813352Y155723D01*
X813437Y155637D01*
X813520Y155548D01*
X813599Y155457D01*
X813676Y155363D01*
X813749Y155267D01*
X813819Y155169D01*
X813886Y155068D01*
X813950Y154965D01*
X814011Y154860D01*
X814068Y154753D01*
X814121Y154645D01*
X814171Y154535D01*
X814217Y154423D01*
X814260Y154310D01*
X814299Y154195D01*
X808782Y151599D02*
X808703Y151677D01*
X808627Y151757D01*
X808554Y151840D01*
X808484Y151926D01*
X808417Y152013D01*
X808353Y152104D01*
X808293Y152196D01*
X808235Y152290D01*
X808181Y152387D01*
X808131Y152485D01*
X808084Y152585D01*
X808040Y152686D01*
X808000Y152789D01*
X807964Y152894D01*
X807932Y152999D01*
X807903Y153106D01*
X807878Y153213D01*
X807856Y153322D01*
X807839Y153431D01*
X807825Y153540D01*
X807816Y153650D01*
X807810Y153761D01*
X807808Y153871D01*
X808782Y151599D02*
X814299Y145108D01*
X807808Y145108D01*
D11*
X142662Y213660D02*
X142662Y66340D01*
X213528Y62530D02*
X213650Y62532D01*
X213772Y62538D01*
X213894Y62548D01*
X214015Y62561D01*
X214136Y62579D01*
X214256Y62600D01*
X214376Y62626D01*
X214494Y62655D01*
X214612Y62687D01*
X214729Y62724D01*
X214844Y62764D01*
X214958Y62808D01*
X215070Y62856D01*
X215181Y62907D01*
X215290Y62962D01*
X215398Y63020D01*
X215503Y63082D01*
X215606Y63147D01*
X215708Y63215D01*
X215807Y63287D01*
X215903Y63361D01*
X215998Y63439D01*
X216089Y63520D01*
X216179Y63603D01*
X216265Y63689D01*
X216348Y63779D01*
X216429Y63870D01*
X216507Y63965D01*
X216581Y64061D01*
X216653Y64160D01*
X216721Y64262D01*
X216786Y64365D01*
X216848Y64470D01*
X216906Y64578D01*
X216961Y64687D01*
X217012Y64798D01*
X217060Y64910D01*
X217104Y65024D01*
X217144Y65139D01*
X217181Y65256D01*
X217213Y65374D01*
X217242Y65492D01*
X217268Y65612D01*
X217289Y65732D01*
X217307Y65853D01*
X217320Y65974D01*
X217330Y66096D01*
X217336Y66218D01*
X217338Y66340D01*
X142662Y213660D02*
X142664Y213782D01*
X142670Y213904D01*
X142680Y214026D01*
X142693Y214147D01*
X142711Y214268D01*
X142732Y214388D01*
X142758Y214508D01*
X142787Y214626D01*
X142819Y214744D01*
X142856Y214861D01*
X142896Y214976D01*
X142940Y215090D01*
X142988Y215202D01*
X143039Y215313D01*
X143094Y215422D01*
X143152Y215530D01*
X143214Y215635D01*
X143279Y215738D01*
X143347Y215840D01*
X143419Y215939D01*
X143493Y216035D01*
X143571Y216130D01*
X143652Y216221D01*
X143735Y216311D01*
X143821Y216397D01*
X143911Y216480D01*
X144002Y216561D01*
X144097Y216639D01*
X144193Y216713D01*
X144292Y216785D01*
X144394Y216853D01*
X144497Y216918D01*
X144602Y216980D01*
X144710Y217038D01*
X144819Y217093D01*
X144930Y217144D01*
X145042Y217192D01*
X145156Y217236D01*
X145271Y217276D01*
X145388Y217313D01*
X145506Y217345D01*
X145624Y217374D01*
X145744Y217400D01*
X145864Y217421D01*
X145985Y217439D01*
X146106Y217452D01*
X146228Y217462D01*
X146350Y217468D01*
X146472Y217470D01*
X142662Y66340D02*
X142664Y66218D01*
X142670Y66096D01*
X142680Y65974D01*
X142693Y65853D01*
X142711Y65732D01*
X142732Y65612D01*
X142758Y65492D01*
X142787Y65374D01*
X142819Y65256D01*
X142856Y65139D01*
X142896Y65024D01*
X142940Y64910D01*
X142988Y64798D01*
X143039Y64687D01*
X143094Y64578D01*
X143152Y64470D01*
X143214Y64365D01*
X143279Y64262D01*
X143347Y64160D01*
X143419Y64061D01*
X143493Y63965D01*
X143571Y63870D01*
X143652Y63779D01*
X143735Y63689D01*
X143821Y63603D01*
X143911Y63520D01*
X144002Y63439D01*
X144097Y63361D01*
X144193Y63287D01*
X144292Y63215D01*
X144394Y63147D01*
X144497Y63082D01*
X144602Y63020D01*
X144710Y62962D01*
X144819Y62907D01*
X144930Y62856D01*
X145042Y62808D01*
X145156Y62764D01*
X145271Y62724D01*
X145388Y62687D01*
X145506Y62655D01*
X145624Y62626D01*
X145744Y62600D01*
X145864Y62579D01*
X145985Y62561D01*
X146106Y62548D01*
X146228Y62538D01*
X146350Y62532D01*
X146472Y62530D01*
X217338Y213660D02*
X217336Y213782D01*
X217330Y213904D01*
X217320Y214026D01*
X217307Y214147D01*
X217289Y214268D01*
X217268Y214388D01*
X217242Y214508D01*
X217213Y214626D01*
X217181Y214744D01*
X217144Y214861D01*
X217104Y214976D01*
X217060Y215090D01*
X217012Y215202D01*
X216961Y215313D01*
X216906Y215422D01*
X216848Y215530D01*
X216786Y215635D01*
X216721Y215738D01*
X216653Y215840D01*
X216581Y215939D01*
X216507Y216035D01*
X216429Y216130D01*
X216348Y216221D01*
X216265Y216311D01*
X216179Y216397D01*
X216089Y216480D01*
X215998Y216561D01*
X215903Y216639D01*
X215807Y216713D01*
X215708Y216785D01*
X215606Y216853D01*
X215503Y216918D01*
X215398Y216980D01*
X215290Y217038D01*
X215181Y217093D01*
X215070Y217144D01*
X214958Y217192D01*
X214844Y217236D01*
X214729Y217276D01*
X214612Y217313D01*
X214494Y217345D01*
X214376Y217374D01*
X214256Y217400D01*
X214136Y217421D01*
X214015Y217439D01*
X213894Y217452D01*
X213772Y217462D01*
X213650Y217468D01*
X213528Y217470D01*
X217338Y213660D02*
X217338Y66340D01*
X213528Y62530D02*
X146472Y62530D01*
X146472Y217470D02*
X167300Y217470D01*
X192700Y217470D01*
X213528Y217470D01*
D12*
X213782Y217470D02*
X213782Y62530D01*
D11*
X192700Y217470D02*
X192696Y217161D01*
X192685Y216852D01*
X192666Y216543D01*
X192640Y216235D01*
X192606Y215927D01*
X192565Y215621D01*
X192516Y215315D01*
X192460Y215011D01*
X192396Y214709D01*
X192325Y214408D01*
X192247Y214108D01*
X192162Y213811D01*
X192069Y213516D01*
X191969Y213223D01*
X191862Y212933D01*
X191748Y212646D01*
X191627Y212361D01*
X191499Y212079D01*
X191365Y211801D01*
X191223Y211526D01*
X191075Y211254D01*
X190920Y210987D01*
X190759Y210723D01*
X190592Y210463D01*
X190418Y210207D01*
X190238Y209955D01*
X190052Y209708D01*
X189860Y209466D01*
X189662Y209228D01*
X189459Y208995D01*
X189249Y208767D01*
X189035Y208545D01*
X188815Y208327D01*
X188589Y208115D01*
X188359Y207909D01*
X188124Y207708D01*
X187884Y207513D01*
X187639Y207324D01*
X187390Y207141D01*
X187136Y206964D01*
X186878Y206794D01*
X186616Y206629D01*
X186350Y206471D01*
X186080Y206320D01*
X185807Y206175D01*
X185530Y206037D01*
X185250Y205906D01*
X184967Y205782D01*
X184681Y205664D01*
X184392Y205554D01*
X184101Y205450D01*
X183807Y205354D01*
X183511Y205265D01*
X183212Y205183D01*
X182912Y205108D01*
X182610Y205041D01*
X182307Y204981D01*
X182002Y204929D01*
X181696Y204884D01*
X181389Y204846D01*
X181081Y204816D01*
X180773Y204794D01*
X180464Y204778D01*
X180155Y204771D01*
X179845Y204771D01*
X179536Y204778D01*
X179227Y204794D01*
X178919Y204816D01*
X178611Y204846D01*
X178304Y204884D01*
X177998Y204929D01*
X177693Y204981D01*
X177390Y205041D01*
X177088Y205108D01*
X176788Y205183D01*
X176489Y205265D01*
X176193Y205354D01*
X175899Y205450D01*
X175608Y205554D01*
X175319Y205664D01*
X175033Y205782D01*
X174750Y205906D01*
X174470Y206037D01*
X174193Y206175D01*
X173920Y206320D01*
X173650Y206471D01*
X173384Y206629D01*
X173122Y206794D01*
X172864Y206964D01*
X172610Y207141D01*
X172361Y207324D01*
X172116Y207513D01*
X171876Y207708D01*
X171641Y207909D01*
X171411Y208115D01*
X171185Y208327D01*
X170965Y208545D01*
X170751Y208767D01*
X170541Y208995D01*
X170338Y209228D01*
X170140Y209466D01*
X169948Y209708D01*
X169762Y209955D01*
X169582Y210207D01*
X169408Y210463D01*
X169241Y210723D01*
X169080Y210987D01*
X168925Y211254D01*
X168777Y211526D01*
X168635Y211801D01*
X168501Y212079D01*
X168373Y212361D01*
X168252Y212646D01*
X168138Y212933D01*
X168031Y213223D01*
X167931Y213516D01*
X167838Y213811D01*
X167753Y214108D01*
X167675Y214408D01*
X167604Y214709D01*
X167540Y215011D01*
X167484Y215315D01*
X167435Y215621D01*
X167394Y215927D01*
X167360Y216235D01*
X167334Y216543D01*
X167315Y216852D01*
X167304Y217161D01*
X167300Y217470D01*
D13*
X217973Y209850D03*
X217973Y197150D03*
X217973Y184450D03*
X217973Y171750D03*
X217973Y159050D03*
X217973Y146350D03*
X217973Y133650D03*
X217973Y120950D03*
X142027Y209850D03*
X142027Y197150D03*
X142027Y184450D03*
X142027Y171750D03*
X142027Y159050D03*
X142027Y146350D03*
X142027Y133650D03*
X142027Y120950D03*
X142027Y108250D03*
X142027Y95550D03*
X142027Y82850D03*
X142027Y70150D03*
X217973Y108250D03*
X217973Y95550D03*
X217973Y82850D03*
X217973Y70150D03*
D14*
X212385Y225090D02*
X212385Y233345D01*
X212385Y225090D02*
X212383Y224979D01*
X212377Y224869D01*
X212368Y224758D01*
X212354Y224648D01*
X212337Y224539D01*
X212316Y224430D01*
X212291Y224322D01*
X212262Y224215D01*
X212230Y224109D01*
X212194Y224004D01*
X212154Y223901D01*
X212111Y223799D01*
X212064Y223698D01*
X212013Y223599D01*
X211960Y223502D01*
X211903Y223408D01*
X211842Y223315D01*
X211779Y223224D01*
X211712Y223135D01*
X211642Y223049D01*
X211569Y222966D01*
X211494Y222884D01*
X211416Y222806D01*
X211334Y222731D01*
X211251Y222658D01*
X211165Y222588D01*
X211076Y222521D01*
X210985Y222458D01*
X210892Y222397D01*
X210797Y222340D01*
X210701Y222287D01*
X210602Y222236D01*
X210501Y222189D01*
X210399Y222146D01*
X210296Y222106D01*
X210191Y222070D01*
X210085Y222038D01*
X209978Y222009D01*
X209870Y221984D01*
X209761Y221963D01*
X209652Y221946D01*
X209542Y221932D01*
X209431Y221923D01*
X209321Y221917D01*
X209210Y221915D01*
X209099Y221917D01*
X208989Y221923D01*
X208878Y221932D01*
X208768Y221946D01*
X208659Y221963D01*
X208550Y221984D01*
X208442Y222009D01*
X208335Y222038D01*
X208229Y222070D01*
X208124Y222106D01*
X208021Y222146D01*
X207919Y222189D01*
X207818Y222236D01*
X207719Y222287D01*
X207623Y222340D01*
X207528Y222397D01*
X207435Y222458D01*
X207344Y222521D01*
X207255Y222588D01*
X207169Y222658D01*
X207086Y222731D01*
X207004Y222806D01*
X206926Y222884D01*
X206851Y222966D01*
X206778Y223049D01*
X206708Y223135D01*
X206641Y223224D01*
X206578Y223315D01*
X206517Y223408D01*
X206460Y223503D01*
X206407Y223599D01*
X206356Y223698D01*
X206309Y223799D01*
X206266Y223901D01*
X206226Y224004D01*
X206190Y224109D01*
X206158Y224215D01*
X206129Y224322D01*
X206104Y224430D01*
X206083Y224539D01*
X206066Y224648D01*
X206052Y224758D01*
X206043Y224869D01*
X206037Y224979D01*
X206035Y225090D01*
X206035Y233345D01*
X198161Y233345D02*
X198161Y221915D01*
X198161Y227630D02*
X199749Y228583D01*
X199749Y228582D02*
X199822Y228629D01*
X199893Y228678D01*
X199962Y228731D01*
X200028Y228787D01*
X200092Y228846D01*
X200153Y228907D01*
X200211Y228971D01*
X200266Y229038D01*
X200318Y229108D01*
X200366Y229179D01*
X200412Y229253D01*
X200454Y229329D01*
X200492Y229407D01*
X200527Y229486D01*
X200558Y229567D01*
X200585Y229649D01*
X200609Y229732D01*
X200629Y229817D01*
X200645Y229902D01*
X200657Y229988D01*
X200665Y230074D01*
X200669Y230160D01*
X200670Y230247D01*
X200666Y230334D01*
X200658Y230420D01*
X200647Y230506D01*
X200631Y230591D01*
X200612Y230675D01*
X200589Y230759D01*
X200562Y230841D01*
X200531Y230922D01*
X200496Y231002D01*
X200459Y231079D01*
X200417Y231155D01*
X200372Y231230D01*
X200324Y231301D01*
X200272Y231371D01*
X200218Y231438D01*
X200160Y231503D01*
X200100Y231565D01*
X200036Y231624D01*
X199970Y231680D01*
X199902Y231734D01*
X199831Y231783D01*
X199758Y231830D01*
X199683Y231873D01*
X199606Y231913D01*
X199528Y231949D01*
X199447Y231982D01*
X199366Y232011D01*
X199283Y232036D01*
X199199Y232058D01*
X199114Y232075D01*
X199113Y232075D02*
X198976Y232098D01*
X198837Y232118D01*
X198699Y232133D01*
X198560Y232145D01*
X198420Y232153D01*
X198281Y232156D01*
X198141Y232157D01*
X198002Y232153D01*
X197863Y232145D01*
X197724Y232134D01*
X197585Y232118D01*
X197447Y232099D01*
X197309Y232076D01*
X197172Y232049D01*
X197036Y232018D01*
X196901Y231984D01*
X196767Y231946D01*
X196633Y231904D01*
X196502Y231858D01*
X196371Y231809D01*
X196242Y231756D01*
X196114Y231700D01*
X195988Y231640D01*
X195864Y231577D01*
X195741Y231510D01*
X195621Y231440D01*
X198161Y227630D02*
X196574Y226678D01*
X196573Y226678D02*
X196500Y226631D01*
X196429Y226582D01*
X196360Y226529D01*
X196294Y226473D01*
X196230Y226414D01*
X196169Y226353D01*
X196111Y226289D01*
X196056Y226222D01*
X196004Y226152D01*
X195956Y226081D01*
X195910Y226007D01*
X195868Y225931D01*
X195830Y225853D01*
X195795Y225774D01*
X195764Y225693D01*
X195737Y225611D01*
X195713Y225528D01*
X195693Y225443D01*
X195677Y225358D01*
X195665Y225272D01*
X195657Y225186D01*
X195653Y225100D01*
X195652Y225013D01*
X195656Y224926D01*
X195664Y224840D01*
X195675Y224754D01*
X195691Y224669D01*
X195710Y224585D01*
X195733Y224501D01*
X195760Y224419D01*
X195791Y224338D01*
X195826Y224258D01*
X195863Y224181D01*
X195905Y224105D01*
X195950Y224030D01*
X195998Y223959D01*
X196050Y223889D01*
X196104Y223822D01*
X196162Y223757D01*
X196222Y223695D01*
X196286Y223636D01*
X196352Y223580D01*
X196420Y223526D01*
X196491Y223477D01*
X196564Y223430D01*
X196639Y223387D01*
X196716Y223347D01*
X196794Y223311D01*
X196875Y223278D01*
X196956Y223249D01*
X197039Y223224D01*
X197123Y223202D01*
X197208Y223185D01*
X197209Y223185D02*
X197346Y223162D01*
X197485Y223142D01*
X197623Y223127D01*
X197762Y223115D01*
X197902Y223107D01*
X198041Y223104D01*
X198181Y223103D01*
X198320Y223107D01*
X198459Y223115D01*
X198598Y223126D01*
X198737Y223142D01*
X198875Y223161D01*
X199013Y223184D01*
X199150Y223211D01*
X199286Y223242D01*
X199421Y223276D01*
X199555Y223314D01*
X199689Y223356D01*
X199820Y223402D01*
X199951Y223451D01*
X200080Y223504D01*
X200208Y223560D01*
X200334Y223620D01*
X200458Y223683D01*
X200581Y223750D01*
X200701Y223820D01*
X190668Y221915D02*
X187493Y221915D01*
X187382Y221917D01*
X187272Y221923D01*
X187161Y221932D01*
X187051Y221946D01*
X186942Y221963D01*
X186833Y221984D01*
X186725Y222009D01*
X186618Y222038D01*
X186512Y222070D01*
X186407Y222106D01*
X186304Y222146D01*
X186202Y222189D01*
X186101Y222236D01*
X186002Y222287D01*
X185906Y222340D01*
X185811Y222397D01*
X185718Y222458D01*
X185627Y222521D01*
X185538Y222588D01*
X185452Y222658D01*
X185369Y222731D01*
X185287Y222806D01*
X185209Y222884D01*
X185134Y222966D01*
X185061Y223049D01*
X184991Y223135D01*
X184924Y223224D01*
X184861Y223315D01*
X184800Y223408D01*
X184743Y223503D01*
X184690Y223599D01*
X184639Y223698D01*
X184592Y223799D01*
X184549Y223901D01*
X184509Y224004D01*
X184473Y224109D01*
X184441Y224215D01*
X184412Y224322D01*
X184387Y224430D01*
X184366Y224539D01*
X184349Y224648D01*
X184335Y224758D01*
X184326Y224869D01*
X184320Y224979D01*
X184318Y225090D01*
X184320Y225201D01*
X184326Y225311D01*
X184335Y225422D01*
X184349Y225532D01*
X184366Y225641D01*
X184387Y225750D01*
X184412Y225858D01*
X184441Y225965D01*
X184473Y226071D01*
X184509Y226176D01*
X184549Y226279D01*
X184592Y226381D01*
X184639Y226482D01*
X184690Y226581D01*
X184743Y226678D01*
X184800Y226772D01*
X184861Y226865D01*
X184924Y226956D01*
X184991Y227045D01*
X185061Y227131D01*
X185134Y227214D01*
X185209Y227296D01*
X185287Y227374D01*
X185369Y227449D01*
X185452Y227522D01*
X185538Y227592D01*
X185627Y227659D01*
X185718Y227722D01*
X185811Y227783D01*
X185906Y227840D01*
X186002Y227893D01*
X186101Y227944D01*
X186202Y227991D01*
X186304Y228034D01*
X186407Y228074D01*
X186512Y228110D01*
X186618Y228142D01*
X186725Y228171D01*
X186833Y228196D01*
X186942Y228217D01*
X187051Y228234D01*
X187161Y228248D01*
X187272Y228257D01*
X187382Y228263D01*
X187493Y228265D01*
X186858Y233345D02*
X190668Y233345D01*
X186858Y233345D02*
X186758Y233343D01*
X186659Y233337D01*
X186559Y233327D01*
X186461Y233314D01*
X186362Y233296D01*
X186265Y233275D01*
X186169Y233250D01*
X186073Y233221D01*
X185979Y233188D01*
X185886Y233152D01*
X185795Y233112D01*
X185705Y233068D01*
X185617Y233021D01*
X185531Y232971D01*
X185447Y232917D01*
X185365Y232860D01*
X185286Y232800D01*
X185208Y232736D01*
X185134Y232670D01*
X185062Y232601D01*
X184993Y232529D01*
X184927Y232455D01*
X184863Y232377D01*
X184803Y232298D01*
X184746Y232216D01*
X184692Y232132D01*
X184642Y232046D01*
X184595Y231958D01*
X184551Y231868D01*
X184511Y231777D01*
X184475Y231684D01*
X184442Y231590D01*
X184413Y231494D01*
X184388Y231398D01*
X184367Y231301D01*
X184349Y231202D01*
X184336Y231104D01*
X184326Y231004D01*
X184320Y230905D01*
X184318Y230805D01*
X184320Y230705D01*
X184326Y230606D01*
X184336Y230506D01*
X184349Y230408D01*
X184367Y230309D01*
X184388Y230212D01*
X184413Y230116D01*
X184442Y230020D01*
X184475Y229926D01*
X184511Y229833D01*
X184551Y229742D01*
X184595Y229652D01*
X184642Y229564D01*
X184692Y229478D01*
X184746Y229394D01*
X184803Y229312D01*
X184863Y229233D01*
X184927Y229155D01*
X184993Y229081D01*
X185062Y229009D01*
X185134Y228940D01*
X185208Y228874D01*
X185286Y228810D01*
X185365Y228750D01*
X185447Y228693D01*
X185531Y228639D01*
X185617Y228589D01*
X185705Y228542D01*
X185795Y228498D01*
X185886Y228458D01*
X185979Y228422D01*
X186073Y228389D01*
X186169Y228360D01*
X186265Y228335D01*
X186362Y228314D01*
X186461Y228296D01*
X186559Y228283D01*
X186659Y228273D01*
X186758Y228267D01*
X186858Y228265D01*
X189398Y228265D01*
D10*
X66792Y134345D02*
X55108Y134345D01*
X66792Y134345D02*
X66792Y137590D01*
X66790Y137703D01*
X66784Y137816D01*
X66774Y137929D01*
X66760Y138042D01*
X66743Y138154D01*
X66721Y138265D01*
X66696Y138375D01*
X66666Y138485D01*
X66633Y138593D01*
X66596Y138700D01*
X66556Y138806D01*
X66511Y138910D01*
X66463Y139013D01*
X66412Y139114D01*
X66357Y139213D01*
X66299Y139310D01*
X66237Y139405D01*
X66172Y139498D01*
X66104Y139588D01*
X66033Y139676D01*
X65958Y139762D01*
X65881Y139845D01*
X65801Y139925D01*
X65718Y140002D01*
X65632Y140077D01*
X65544Y140148D01*
X65454Y140216D01*
X65361Y140281D01*
X65266Y140343D01*
X65169Y140401D01*
X65070Y140456D01*
X64969Y140507D01*
X64866Y140555D01*
X64762Y140600D01*
X64656Y140640D01*
X64549Y140677D01*
X64441Y140710D01*
X64331Y140740D01*
X64221Y140765D01*
X64110Y140787D01*
X63998Y140804D01*
X63885Y140818D01*
X63772Y140828D01*
X63659Y140834D01*
X63546Y140836D01*
X63433Y140834D01*
X63320Y140828D01*
X63207Y140818D01*
X63094Y140804D01*
X62982Y140787D01*
X62871Y140765D01*
X62761Y140740D01*
X62651Y140710D01*
X62543Y140677D01*
X62436Y140640D01*
X62330Y140600D01*
X62226Y140555D01*
X62123Y140507D01*
X62022Y140456D01*
X61923Y140401D01*
X61826Y140343D01*
X61731Y140281D01*
X61638Y140216D01*
X61548Y140148D01*
X61460Y140077D01*
X61374Y140002D01*
X61291Y139925D01*
X61211Y139845D01*
X61134Y139762D01*
X61059Y139676D01*
X60988Y139588D01*
X60920Y139498D01*
X60855Y139405D01*
X60793Y139310D01*
X60735Y139213D01*
X60680Y139114D01*
X60629Y139013D01*
X60581Y138910D01*
X60536Y138806D01*
X60496Y138700D01*
X60459Y138593D01*
X60426Y138485D01*
X60396Y138375D01*
X60371Y138265D01*
X60349Y138154D01*
X60332Y138042D01*
X60318Y137929D01*
X60308Y137816D01*
X60302Y137703D01*
X60300Y137590D01*
X60301Y137590D02*
X60301Y134345D01*
X60301Y138239D02*
X55108Y140836D01*
X55108Y145701D02*
X55108Y148946D01*
X55110Y149059D01*
X55116Y149172D01*
X55126Y149285D01*
X55140Y149398D01*
X55157Y149510D01*
X55179Y149621D01*
X55204Y149731D01*
X55234Y149841D01*
X55267Y149949D01*
X55304Y150056D01*
X55344Y150162D01*
X55389Y150266D01*
X55437Y150369D01*
X55488Y150470D01*
X55543Y150569D01*
X55601Y150666D01*
X55663Y150761D01*
X55728Y150854D01*
X55796Y150944D01*
X55867Y151032D01*
X55942Y151118D01*
X56019Y151201D01*
X56099Y151281D01*
X56182Y151358D01*
X56268Y151433D01*
X56356Y151504D01*
X56446Y151572D01*
X56539Y151637D01*
X56634Y151699D01*
X56731Y151757D01*
X56830Y151812D01*
X56931Y151863D01*
X57034Y151911D01*
X57138Y151956D01*
X57244Y151996D01*
X57351Y152033D01*
X57459Y152066D01*
X57569Y152096D01*
X57679Y152121D01*
X57790Y152143D01*
X57902Y152160D01*
X58015Y152174D01*
X58128Y152184D01*
X58241Y152190D01*
X58354Y152192D01*
X58467Y152190D01*
X58580Y152184D01*
X58693Y152174D01*
X58806Y152160D01*
X58918Y152143D01*
X59029Y152121D01*
X59139Y152096D01*
X59249Y152066D01*
X59357Y152033D01*
X59464Y151996D01*
X59570Y151956D01*
X59674Y151911D01*
X59777Y151863D01*
X59878Y151812D01*
X59977Y151757D01*
X60074Y151699D01*
X60169Y151637D01*
X60262Y151572D01*
X60352Y151504D01*
X60440Y151433D01*
X60526Y151358D01*
X60609Y151281D01*
X60689Y151201D01*
X60766Y151118D01*
X60841Y151032D01*
X60912Y150944D01*
X60980Y150854D01*
X61045Y150761D01*
X61107Y150666D01*
X61165Y150569D01*
X61220Y150470D01*
X61271Y150369D01*
X61319Y150266D01*
X61364Y150162D01*
X61404Y150056D01*
X61441Y149949D01*
X61474Y149841D01*
X61504Y149731D01*
X61529Y149621D01*
X61551Y149510D01*
X61568Y149398D01*
X61582Y149285D01*
X61592Y149172D01*
X61598Y149059D01*
X61600Y148946D01*
X66792Y149596D02*
X66792Y145701D01*
X66792Y149596D02*
X66790Y149697D01*
X66784Y149797D01*
X66774Y149897D01*
X66761Y149997D01*
X66743Y150096D01*
X66722Y150195D01*
X66697Y150292D01*
X66668Y150389D01*
X66635Y150484D01*
X66599Y150578D01*
X66559Y150670D01*
X66516Y150761D01*
X66469Y150850D01*
X66419Y150937D01*
X66365Y151023D01*
X66308Y151106D01*
X66248Y151186D01*
X66185Y151265D01*
X66118Y151341D01*
X66049Y151414D01*
X65977Y151484D01*
X65903Y151552D01*
X65826Y151617D01*
X65746Y151678D01*
X65664Y151737D01*
X65580Y151792D01*
X65494Y151844D01*
X65406Y151893D01*
X65316Y151938D01*
X65224Y151980D01*
X65131Y152018D01*
X65036Y152052D01*
X64941Y152083D01*
X64844Y152110D01*
X64746Y152133D01*
X64647Y152153D01*
X64547Y152168D01*
X64447Y152180D01*
X64347Y152188D01*
X64246Y152192D01*
X64146Y152192D01*
X64045Y152188D01*
X63945Y152180D01*
X63845Y152168D01*
X63745Y152153D01*
X63646Y152133D01*
X63548Y152110D01*
X63451Y152083D01*
X63356Y152052D01*
X63261Y152018D01*
X63168Y151980D01*
X63076Y151938D01*
X62986Y151893D01*
X62898Y151844D01*
X62812Y151792D01*
X62728Y151737D01*
X62646Y151678D01*
X62566Y151617D01*
X62489Y151552D01*
X62415Y151484D01*
X62343Y151414D01*
X62274Y151341D01*
X62207Y151265D01*
X62144Y151186D01*
X62084Y151106D01*
X62027Y151023D01*
X61973Y150937D01*
X61923Y150850D01*
X61876Y150761D01*
X61833Y150670D01*
X61793Y150578D01*
X61757Y150484D01*
X61724Y150389D01*
X61695Y150292D01*
X61670Y150195D01*
X61649Y150096D01*
X61631Y149997D01*
X61618Y149897D01*
X61608Y149797D01*
X61602Y149697D01*
X61600Y149596D01*
X61599Y149596D02*
X61599Y146999D01*
X178664Y15108D02*
X181261Y15108D01*
X181360Y15110D01*
X181460Y15116D01*
X181559Y15125D01*
X181657Y15138D01*
X181755Y15155D01*
X181853Y15176D01*
X181949Y15201D01*
X182044Y15229D01*
X182138Y15261D01*
X182231Y15296D01*
X182323Y15335D01*
X182413Y15378D01*
X182501Y15423D01*
X182588Y15473D01*
X182672Y15525D01*
X182755Y15581D01*
X182835Y15639D01*
X182913Y15701D01*
X182988Y15766D01*
X183061Y15834D01*
X183131Y15904D01*
X183199Y15977D01*
X183264Y16052D01*
X183326Y16130D01*
X183384Y16210D01*
X183440Y16293D01*
X183492Y16377D01*
X183542Y16464D01*
X183587Y16552D01*
X183630Y16642D01*
X183669Y16734D01*
X183704Y16827D01*
X183736Y16921D01*
X183764Y17016D01*
X183789Y17112D01*
X183810Y17210D01*
X183827Y17308D01*
X183840Y17406D01*
X183849Y17505D01*
X183855Y17605D01*
X183857Y17704D01*
X183857Y24196D01*
X183855Y24295D01*
X183849Y24395D01*
X183840Y24494D01*
X183827Y24592D01*
X183810Y24690D01*
X183789Y24788D01*
X183764Y24884D01*
X183736Y24979D01*
X183704Y25073D01*
X183669Y25166D01*
X183630Y25258D01*
X183587Y25348D01*
X183542Y25436D01*
X183492Y25523D01*
X183440Y25607D01*
X183384Y25690D01*
X183326Y25770D01*
X183264Y25848D01*
X183199Y25923D01*
X183131Y25996D01*
X183061Y26066D01*
X182988Y26134D01*
X182913Y26199D01*
X182835Y26261D01*
X182755Y26319D01*
X182672Y26375D01*
X182588Y26427D01*
X182501Y26477D01*
X182413Y26522D01*
X182323Y26565D01*
X182231Y26604D01*
X182138Y26639D01*
X182044Y26671D01*
X181949Y26699D01*
X181853Y26724D01*
X181755Y26745D01*
X181657Y26762D01*
X181559Y26775D01*
X181460Y26784D01*
X181360Y26790D01*
X181261Y26792D01*
X178664Y26792D01*
X174299Y15108D02*
X171054Y15108D01*
X170941Y15110D01*
X170828Y15116D01*
X170715Y15126D01*
X170602Y15140D01*
X170490Y15157D01*
X170379Y15179D01*
X170269Y15204D01*
X170159Y15234D01*
X170051Y15267D01*
X169944Y15304D01*
X169838Y15344D01*
X169734Y15389D01*
X169631Y15437D01*
X169530Y15488D01*
X169431Y15543D01*
X169334Y15601D01*
X169239Y15663D01*
X169146Y15728D01*
X169056Y15796D01*
X168968Y15867D01*
X168882Y15942D01*
X168799Y16019D01*
X168719Y16099D01*
X168642Y16182D01*
X168567Y16268D01*
X168496Y16356D01*
X168428Y16446D01*
X168363Y16539D01*
X168301Y16634D01*
X168243Y16731D01*
X168188Y16830D01*
X168137Y16931D01*
X168089Y17034D01*
X168044Y17138D01*
X168004Y17244D01*
X167967Y17351D01*
X167934Y17459D01*
X167904Y17569D01*
X167879Y17679D01*
X167857Y17790D01*
X167840Y17902D01*
X167826Y18015D01*
X167816Y18128D01*
X167810Y18241D01*
X167808Y18354D01*
X167810Y18467D01*
X167816Y18580D01*
X167826Y18693D01*
X167840Y18806D01*
X167857Y18918D01*
X167879Y19029D01*
X167904Y19139D01*
X167934Y19249D01*
X167967Y19357D01*
X168004Y19464D01*
X168044Y19570D01*
X168089Y19674D01*
X168137Y19777D01*
X168188Y19878D01*
X168243Y19977D01*
X168301Y20074D01*
X168363Y20169D01*
X168428Y20262D01*
X168496Y20352D01*
X168567Y20440D01*
X168642Y20526D01*
X168719Y20609D01*
X168799Y20689D01*
X168882Y20766D01*
X168968Y20841D01*
X169056Y20912D01*
X169146Y20980D01*
X169239Y21045D01*
X169334Y21107D01*
X169431Y21165D01*
X169530Y21220D01*
X169631Y21271D01*
X169734Y21319D01*
X169838Y21364D01*
X169944Y21404D01*
X170051Y21441D01*
X170159Y21474D01*
X170269Y21504D01*
X170379Y21529D01*
X170490Y21551D01*
X170602Y21568D01*
X170715Y21582D01*
X170828Y21592D01*
X170941Y21598D01*
X171054Y21600D01*
X170404Y26792D02*
X174299Y26792D01*
X170404Y26792D02*
X170303Y26790D01*
X170203Y26784D01*
X170103Y26774D01*
X170003Y26761D01*
X169904Y26743D01*
X169805Y26722D01*
X169708Y26697D01*
X169611Y26668D01*
X169516Y26635D01*
X169422Y26599D01*
X169330Y26559D01*
X169239Y26516D01*
X169150Y26469D01*
X169063Y26419D01*
X168977Y26365D01*
X168894Y26308D01*
X168814Y26248D01*
X168735Y26185D01*
X168659Y26118D01*
X168586Y26049D01*
X168516Y25977D01*
X168448Y25903D01*
X168383Y25826D01*
X168322Y25746D01*
X168263Y25664D01*
X168208Y25580D01*
X168156Y25494D01*
X168107Y25406D01*
X168062Y25316D01*
X168020Y25224D01*
X167982Y25131D01*
X167948Y25036D01*
X167917Y24941D01*
X167890Y24844D01*
X167867Y24746D01*
X167847Y24647D01*
X167832Y24547D01*
X167820Y24447D01*
X167812Y24347D01*
X167808Y24246D01*
X167808Y24146D01*
X167812Y24045D01*
X167820Y23945D01*
X167832Y23845D01*
X167847Y23745D01*
X167867Y23646D01*
X167890Y23548D01*
X167917Y23451D01*
X167948Y23356D01*
X167982Y23261D01*
X168020Y23168D01*
X168062Y23076D01*
X168107Y22986D01*
X168156Y22898D01*
X168208Y22812D01*
X168263Y22728D01*
X168322Y22646D01*
X168383Y22566D01*
X168448Y22489D01*
X168516Y22415D01*
X168586Y22343D01*
X168659Y22274D01*
X168735Y22207D01*
X168814Y22144D01*
X168894Y22084D01*
X168977Y22027D01*
X169063Y21973D01*
X169150Y21923D01*
X169239Y21876D01*
X169330Y21833D01*
X169422Y21793D01*
X169516Y21757D01*
X169611Y21724D01*
X169708Y21695D01*
X169805Y21670D01*
X169904Y21649D01*
X170003Y21631D01*
X170103Y21618D01*
X170203Y21608D01*
X170303Y21602D01*
X170404Y21600D01*
X170404Y21599D02*
X173001Y21599D01*
M02*
