G04 EAGLE Gerber RS-274X export*
G75*
%MOMM*%
%FSLAX34Y34*%
%LPD*%
%INSolderpaste Bottom*%
%IPPOS*%
%AMOC8*
5,1,8,0,0,1.08239X$1,22.5*%
G01*
%ADD10R,1.803000X1.600000*%
%ADD11R,2.032000X0.660400*%
%ADD12R,1.600000X1.800000*%


D10*
X257700Y661380D03*
X257700Y689820D03*
D11*
X396792Y725750D03*
X396792Y713050D03*
X396792Y700350D03*
X396792Y687650D03*
X396792Y674950D03*
X396792Y662250D03*
X396792Y649550D03*
X396792Y636850D03*
X296208Y636850D03*
X296208Y649550D03*
X296208Y662250D03*
X296208Y674950D03*
X296208Y687650D03*
X296208Y700350D03*
X296208Y713050D03*
X296208Y725750D03*
X296208Y624150D03*
X296208Y611450D03*
X296208Y598750D03*
X296208Y586050D03*
X396792Y624150D03*
X396792Y611450D03*
X396792Y598750D03*
X396792Y586050D03*
D12*
X336000Y560000D03*
X364000Y560000D03*
D11*
X870292Y339850D03*
X870292Y327150D03*
X870292Y314450D03*
X870292Y301750D03*
X870292Y289050D03*
X870292Y276350D03*
X870292Y263650D03*
X870292Y250950D03*
X769708Y250950D03*
X769708Y263650D03*
X769708Y276350D03*
X769708Y289050D03*
X769708Y301750D03*
X769708Y314450D03*
X769708Y327150D03*
X769708Y339850D03*
X769708Y238250D03*
X769708Y225550D03*
X769708Y212850D03*
X769708Y200150D03*
X870292Y238250D03*
X870292Y225550D03*
X870292Y212850D03*
X870292Y200150D03*
D10*
X740000Y255780D03*
X740000Y284220D03*
D12*
X806000Y170000D03*
X834000Y170000D03*
D11*
X230292Y209850D03*
X230292Y197150D03*
X230292Y184450D03*
X230292Y171750D03*
X230292Y159050D03*
X230292Y146350D03*
X230292Y133650D03*
X230292Y120950D03*
X129708Y120950D03*
X129708Y133650D03*
X129708Y146350D03*
X129708Y159050D03*
X129708Y171750D03*
X129708Y184450D03*
X129708Y197150D03*
X129708Y209850D03*
X129708Y108250D03*
X129708Y95550D03*
X129708Y82850D03*
X129708Y70150D03*
X230292Y108250D03*
X230292Y95550D03*
X230292Y82850D03*
X230292Y70150D03*
D10*
X80000Y125780D03*
X80000Y154220D03*
D12*
X166000Y40000D03*
X194000Y40000D03*
M02*
