G04 EAGLE Gerber RS-274X export*
G75*
%MOMM*%
%FSLAX34Y34*%
%LPD*%
%INSolderpaste Top*%
%IPPOS*%
%AMOC8*
5,1,8,0,0,1.08239X$1,22.5*%
G01*
%ADD10R,1.500000X1.500000*%
%ADD11R,1.200000X3.200000*%
%ADD12R,1.800000X1.600000*%


D10*
X60000Y957500D03*
X60000Y922500D03*
X140000Y877500D03*
X140000Y842500D03*
X220000Y877500D03*
X220000Y842500D03*
X300000Y877500D03*
X300000Y842500D03*
X380000Y877500D03*
X380000Y842500D03*
X460000Y877500D03*
X460000Y842500D03*
X540000Y877500D03*
X540000Y842500D03*
X620000Y877500D03*
X620000Y842500D03*
X60000Y797500D03*
X60000Y762500D03*
X140000Y797500D03*
X140000Y762500D03*
X220000Y797500D03*
X220000Y762500D03*
X140000Y957500D03*
X140000Y922500D03*
X300000Y797500D03*
X300000Y762500D03*
X380000Y797500D03*
X380000Y762500D03*
X460000Y797500D03*
X460000Y762500D03*
X540000Y797500D03*
X540000Y762500D03*
X620000Y797500D03*
X620000Y762500D03*
X60000Y717500D03*
X60000Y682500D03*
X140000Y717500D03*
X140000Y682500D03*
X220000Y717500D03*
X220000Y682500D03*
X300000Y717500D03*
X300000Y682500D03*
X380000Y717500D03*
X380000Y682500D03*
X220000Y957500D03*
X220000Y922500D03*
X460000Y717500D03*
X460000Y682500D03*
X540000Y717500D03*
X540000Y682500D03*
X620000Y717500D03*
X620000Y682500D03*
X60000Y637500D03*
X60000Y602500D03*
X140000Y637500D03*
X140000Y602500D03*
X220000Y637500D03*
X220000Y602500D03*
X300000Y637500D03*
X300000Y602500D03*
X380000Y637500D03*
X380000Y602500D03*
X460000Y637500D03*
X460000Y602500D03*
X540000Y637500D03*
X540000Y602500D03*
X300000Y957500D03*
X300000Y922500D03*
X620000Y637500D03*
X620000Y602500D03*
X60000Y557500D03*
X60000Y522500D03*
X140000Y557500D03*
X140000Y522500D03*
X220000Y557500D03*
X220000Y522500D03*
X300000Y557500D03*
X300000Y522500D03*
X380000Y557500D03*
X380000Y522500D03*
X460000Y557500D03*
X460000Y522500D03*
X540000Y557500D03*
X540000Y522500D03*
X620000Y557500D03*
X620000Y522500D03*
X60000Y477500D03*
X60000Y442500D03*
X380000Y957500D03*
X380000Y922500D03*
X140000Y477500D03*
X140000Y442500D03*
X220000Y477500D03*
X220000Y442500D03*
X300000Y477500D03*
X300000Y442500D03*
X380000Y477500D03*
X380000Y442500D03*
X460000Y477500D03*
X460000Y442500D03*
X540000Y477500D03*
X540000Y442500D03*
X620000Y477500D03*
X620000Y442500D03*
X60000Y397500D03*
X60000Y362500D03*
X140000Y397500D03*
X140000Y362500D03*
X220000Y397500D03*
X220000Y362500D03*
X460000Y957500D03*
X460000Y922500D03*
X300000Y397500D03*
X300000Y362500D03*
X380000Y397500D03*
X380000Y362500D03*
X460000Y397500D03*
X460000Y362500D03*
X540000Y397500D03*
X540000Y362500D03*
X620000Y397500D03*
X620000Y362500D03*
X540000Y957500D03*
X540000Y922500D03*
X620000Y957500D03*
X620000Y922500D03*
X60000Y877500D03*
X60000Y842500D03*
X700000Y957500D03*
X700000Y922500D03*
X780000Y957500D03*
X780000Y922500D03*
X860000Y957500D03*
X860000Y922500D03*
X940000Y957500D03*
X940000Y922500D03*
X700000Y877500D03*
X700000Y842500D03*
X780000Y877500D03*
X780000Y842500D03*
X860000Y877500D03*
X860000Y842500D03*
X940000Y877500D03*
X940000Y842500D03*
X700000Y797500D03*
X700000Y762500D03*
X780000Y797500D03*
X780000Y762500D03*
X860000Y797500D03*
X860000Y762500D03*
X940000Y797500D03*
X940000Y762500D03*
X700000Y717500D03*
X700000Y682500D03*
X780000Y717500D03*
X780000Y682500D03*
X860000Y717500D03*
X860000Y682500D03*
X940000Y717500D03*
X940000Y682500D03*
X700000Y637500D03*
X700000Y602500D03*
X780000Y637500D03*
X780000Y602500D03*
X860000Y637500D03*
X860000Y602500D03*
X940000Y637500D03*
X940000Y602500D03*
X700000Y557500D03*
X700000Y522500D03*
X780000Y557500D03*
X780000Y522500D03*
X860000Y557500D03*
X860000Y522500D03*
X940000Y557500D03*
X940000Y522500D03*
X700000Y477500D03*
X700000Y442500D03*
X780000Y477500D03*
X780000Y442500D03*
X860000Y477500D03*
X860000Y442500D03*
X940000Y477500D03*
X940000Y442500D03*
X700000Y397500D03*
X700000Y362500D03*
X780000Y397500D03*
X780000Y362500D03*
X860000Y397500D03*
X860000Y362500D03*
X940000Y397500D03*
X940000Y362500D03*
X700000Y317500D03*
X700000Y282500D03*
X780000Y317500D03*
X780000Y282500D03*
X860000Y317500D03*
X860000Y282500D03*
X940000Y317500D03*
X940000Y282500D03*
X700000Y237500D03*
X700000Y202500D03*
X780000Y237500D03*
X780000Y202500D03*
X860000Y237500D03*
X860000Y202500D03*
X940000Y237500D03*
X940000Y202500D03*
X700000Y157500D03*
X700000Y122500D03*
X780000Y157500D03*
X780000Y122500D03*
X860000Y157500D03*
X860000Y122500D03*
X940000Y157500D03*
X940000Y122500D03*
X380000Y317500D03*
X380000Y282500D03*
X460000Y317500D03*
X460000Y282500D03*
X540000Y317500D03*
X540000Y282500D03*
X620000Y317500D03*
X620000Y282500D03*
X380000Y237500D03*
X380000Y202500D03*
X460000Y237500D03*
X460000Y202500D03*
X540000Y237500D03*
X540000Y202500D03*
X620000Y237500D03*
X620000Y202500D03*
X380000Y157500D03*
X380000Y122500D03*
X460000Y157500D03*
X460000Y122500D03*
X540000Y157500D03*
X540000Y122500D03*
X620000Y157500D03*
X620000Y122500D03*
X380000Y77500D03*
X380000Y42500D03*
X460000Y77500D03*
X460000Y42500D03*
X540000Y77500D03*
X540000Y42500D03*
X620000Y77500D03*
X620000Y42500D03*
X60000Y317500D03*
X60000Y282500D03*
X140000Y317500D03*
X140000Y282500D03*
X220000Y317500D03*
X220000Y282500D03*
X300000Y317500D03*
X300000Y282500D03*
D11*
X800000Y94000D03*
X800000Y26000D03*
X760000Y26000D03*
X760000Y94000D03*
X880000Y94000D03*
X880000Y26000D03*
X840000Y26000D03*
X840000Y94000D03*
D10*
X300000Y237500D03*
X300000Y202500D03*
X220000Y237500D03*
X220000Y202500D03*
X140000Y237500D03*
X140000Y202500D03*
X60000Y237500D03*
X60000Y202500D03*
X300000Y157500D03*
X300000Y122500D03*
X220000Y157500D03*
X220000Y122500D03*
X140000Y157500D03*
X140000Y122500D03*
X60000Y157500D03*
X60000Y122500D03*
X300000Y77500D03*
X300000Y42500D03*
X220000Y77500D03*
X220000Y42500D03*
X140000Y77500D03*
X140000Y42500D03*
X60000Y77500D03*
X60000Y42500D03*
D12*
X670000Y46000D03*
X670000Y74000D03*
X700000Y46000D03*
X700000Y74000D03*
M02*
