G04 EAGLE Gerber RS-274X export*
G75*
%MOMM*%
%FSLAX34Y34*%
%LPD*%
%INSoldermask Top*%
%IPPOS*%
%AMOC8*
5,1,8,0,0,1.08239X$1,22.5*%
G01*
%ADD10C,2.403200*%
%ADD11R,1.703200X1.703200*%
%ADD12C,2.082800*%
%ADD13R,1.403200X3.403200*%
%ADD14R,2.003200X1.803200*%
%ADD15C,0.728200*%


D10*
X25000Y25000D03*
X975000Y25000D03*
X975000Y975000D03*
X25000Y975000D03*
D11*
X60000Y957500D03*
X60000Y922500D03*
X140000Y877500D03*
X140000Y842500D03*
X220000Y877500D03*
X220000Y842500D03*
X300000Y877500D03*
X300000Y842500D03*
X380000Y877500D03*
X380000Y842500D03*
X460000Y877500D03*
X460000Y842500D03*
X540000Y877500D03*
X540000Y842500D03*
X620000Y877500D03*
X620000Y842500D03*
X60000Y797500D03*
X60000Y762500D03*
X140000Y797500D03*
X140000Y762500D03*
X220000Y797500D03*
X220000Y762500D03*
X140000Y957500D03*
X140000Y922500D03*
X300000Y797500D03*
X300000Y762500D03*
X380000Y797500D03*
X380000Y762500D03*
X460000Y797500D03*
X460000Y762500D03*
X540000Y797500D03*
X540000Y762500D03*
X620000Y797500D03*
X620000Y762500D03*
X60000Y717500D03*
X60000Y682500D03*
X140000Y717500D03*
X140000Y682500D03*
X220000Y717500D03*
X220000Y682500D03*
X300000Y717500D03*
X300000Y682500D03*
X380000Y717500D03*
X380000Y682500D03*
X220000Y957500D03*
X220000Y922500D03*
X460000Y717500D03*
X460000Y682500D03*
X540000Y717500D03*
X540000Y682500D03*
X620000Y717500D03*
X620000Y682500D03*
X60000Y637500D03*
X60000Y602500D03*
X140000Y637500D03*
X140000Y602500D03*
X220000Y637500D03*
X220000Y602500D03*
X300000Y637500D03*
X300000Y602500D03*
X380000Y637500D03*
X380000Y602500D03*
X460000Y637500D03*
X460000Y602500D03*
X540000Y637500D03*
X540000Y602500D03*
X300000Y957500D03*
X300000Y922500D03*
X620000Y637500D03*
X620000Y602500D03*
X60000Y557500D03*
X60000Y522500D03*
X140000Y557500D03*
X140000Y522500D03*
X220000Y557500D03*
X220000Y522500D03*
X300000Y557500D03*
X300000Y522500D03*
X380000Y557500D03*
X380000Y522500D03*
X460000Y557500D03*
X460000Y522500D03*
X540000Y557500D03*
X540000Y522500D03*
X620000Y557500D03*
X620000Y522500D03*
X60000Y477500D03*
X60000Y442500D03*
X380000Y957500D03*
X380000Y922500D03*
X140000Y477500D03*
X140000Y442500D03*
X220000Y477500D03*
X220000Y442500D03*
X300000Y477500D03*
X300000Y442500D03*
X380000Y477500D03*
X380000Y442500D03*
X460000Y477500D03*
X460000Y442500D03*
X540000Y477500D03*
X540000Y442500D03*
X620000Y477500D03*
X620000Y442500D03*
X60000Y397500D03*
X60000Y362500D03*
X140000Y397500D03*
X140000Y362500D03*
X220000Y397500D03*
X220000Y362500D03*
X460000Y957500D03*
X460000Y922500D03*
X300000Y397500D03*
X300000Y362500D03*
X380000Y397500D03*
X380000Y362500D03*
X460000Y397500D03*
X460000Y362500D03*
X540000Y397500D03*
X540000Y362500D03*
X620000Y397500D03*
X620000Y362500D03*
X540000Y957500D03*
X540000Y922500D03*
X620000Y957500D03*
X620000Y922500D03*
X60000Y877500D03*
X60000Y842500D03*
X700000Y957500D03*
X700000Y922500D03*
X780000Y957500D03*
X780000Y922500D03*
X860000Y957500D03*
X860000Y922500D03*
X940000Y957500D03*
X940000Y922500D03*
X700000Y877500D03*
X700000Y842500D03*
X780000Y877500D03*
X780000Y842500D03*
X860000Y877500D03*
X860000Y842500D03*
X940000Y877500D03*
X940000Y842500D03*
X700000Y797500D03*
X700000Y762500D03*
X780000Y797500D03*
X780000Y762500D03*
X860000Y797500D03*
X860000Y762500D03*
X940000Y797500D03*
X940000Y762500D03*
X700000Y717500D03*
X700000Y682500D03*
X780000Y717500D03*
X780000Y682500D03*
X860000Y717500D03*
X860000Y682500D03*
X940000Y717500D03*
X940000Y682500D03*
X700000Y637500D03*
X700000Y602500D03*
X780000Y637500D03*
X780000Y602500D03*
X860000Y637500D03*
X860000Y602500D03*
X940000Y637500D03*
X940000Y602500D03*
X700000Y557500D03*
X700000Y522500D03*
X780000Y557500D03*
X780000Y522500D03*
X860000Y557500D03*
X860000Y522500D03*
X940000Y557500D03*
X940000Y522500D03*
X700000Y477500D03*
X700000Y442500D03*
X780000Y477500D03*
X780000Y442500D03*
X860000Y477500D03*
X860000Y442500D03*
X940000Y477500D03*
X940000Y442500D03*
X700000Y397500D03*
X700000Y362500D03*
X780000Y397500D03*
X780000Y362500D03*
X860000Y397500D03*
X860000Y362500D03*
X940000Y397500D03*
X940000Y362500D03*
X700000Y317500D03*
X700000Y282500D03*
X780000Y317500D03*
X780000Y282500D03*
X860000Y317500D03*
X860000Y282500D03*
X940000Y317500D03*
X940000Y282500D03*
X700000Y237500D03*
X700000Y202500D03*
X780000Y237500D03*
X780000Y202500D03*
X860000Y237500D03*
X860000Y202500D03*
X940000Y237500D03*
X940000Y202500D03*
X700000Y157500D03*
X700000Y122500D03*
X780000Y157500D03*
X780000Y122500D03*
X860000Y157500D03*
X860000Y122500D03*
X940000Y157500D03*
X940000Y122500D03*
X380000Y317500D03*
X380000Y282500D03*
X460000Y317500D03*
X460000Y282500D03*
X540000Y317500D03*
X540000Y282500D03*
X620000Y317500D03*
X620000Y282500D03*
X380000Y237500D03*
X380000Y202500D03*
X460000Y237500D03*
X460000Y202500D03*
X540000Y237500D03*
X540000Y202500D03*
X620000Y237500D03*
X620000Y202500D03*
X380000Y157500D03*
X380000Y122500D03*
X460000Y157500D03*
X460000Y122500D03*
X540000Y157500D03*
X540000Y122500D03*
X620000Y157500D03*
X620000Y122500D03*
X380000Y77500D03*
X380000Y42500D03*
X460000Y77500D03*
X460000Y42500D03*
X540000Y77500D03*
X540000Y42500D03*
X620000Y77500D03*
X620000Y42500D03*
X60000Y317500D03*
X60000Y282500D03*
X140000Y317500D03*
X140000Y282500D03*
X220000Y317500D03*
X220000Y282500D03*
X300000Y317500D03*
X300000Y282500D03*
D12*
X970000Y477000D03*
X970000Y451600D03*
X970000Y426200D03*
X970000Y400800D03*
X970000Y375400D03*
X970000Y350000D03*
X970000Y324600D03*
X970000Y299200D03*
D13*
X800000Y94000D03*
X800000Y26000D03*
X760000Y26000D03*
X760000Y94000D03*
X880000Y94000D03*
X880000Y26000D03*
X840000Y26000D03*
X840000Y94000D03*
D11*
X300000Y237500D03*
X300000Y202500D03*
X220000Y237500D03*
X220000Y202500D03*
X140000Y237500D03*
X140000Y202500D03*
X60000Y237500D03*
X60000Y202500D03*
X300000Y157500D03*
X300000Y122500D03*
X220000Y157500D03*
X220000Y122500D03*
X140000Y157500D03*
X140000Y122500D03*
X60000Y157500D03*
X60000Y122500D03*
X300000Y77500D03*
X300000Y42500D03*
X220000Y77500D03*
X220000Y42500D03*
X140000Y77500D03*
X140000Y42500D03*
X60000Y77500D03*
X60000Y42500D03*
D14*
X670000Y46000D03*
X670000Y74000D03*
X700000Y46000D03*
X700000Y74000D03*
D15*
X135000Y940000D03*
X105000Y970000D03*
X295000Y940000D03*
X455000Y940000D03*
X535000Y940000D03*
X565000Y925000D03*
X343000Y595000D03*
X355000Y845000D03*
X315000Y860000D03*
X455000Y860000D03*
X535000Y860000D03*
X565000Y845000D03*
X200000Y625000D03*
X165000Y860000D03*
X280000Y685000D03*
X325000Y675000D03*
X380000Y745000D03*
X325000Y745000D03*
X450000Y745000D03*
X530000Y745000D03*
X565000Y760000D03*
X155000Y780000D03*
X120000Y685000D03*
X140000Y700000D03*
X220000Y700000D03*
X315000Y700000D03*
X375000Y665000D03*
X355000Y660000D03*
X520000Y605000D03*
X540000Y620000D03*
X105000Y605000D03*
X135000Y620000D03*
X145000Y585000D03*
X220000Y585000D03*
X460000Y580000D03*
X380000Y580000D03*
X115000Y600000D03*
X155000Y610000D03*
X235000Y610000D03*
X380000Y505000D03*
X310000Y505000D03*
X460000Y505000D03*
X540000Y505000D03*
X240000Y540000D03*
X330000Y630000D03*
X250000Y635000D03*
X260000Y705000D03*
X75000Y720000D03*
X125000Y600000D03*
X335000Y710000D03*
X331000Y649000D03*
X380000Y700000D03*
X445000Y610000D03*
X525000Y675000D03*
X600000Y640000D03*
X350000Y573000D03*
X315000Y662000D03*
X740000Y298000D03*
X757000Y463000D03*
X147000Y21000D03*
X175000Y149000D03*
X153000Y106000D03*
X720000Y52000D03*
X740000Y136000D03*
X420000Y690000D03*
X420000Y620000D03*
X420000Y480000D03*
X400000Y560000D03*
X895000Y239000D03*
X910000Y440000D03*
X900000Y310000D03*
X260000Y170000D03*
X260000Y110000D03*
X685000Y95000D03*
X900000Y160000D03*
X860000Y100000D03*
X880000Y180000D03*
X960000Y490000D03*
X980000Y495000D03*
X743000Y226000D03*
X750000Y340000D03*
X780000Y860000D03*
X780000Y905000D03*
X729000Y210000D03*
X825000Y235000D03*
X700000Y745000D03*
X775000Y745000D03*
X855000Y745000D03*
X935000Y745000D03*
X810000Y290000D03*
X805000Y485000D03*
X785000Y505000D03*
X700000Y505000D03*
X855000Y505000D03*
X935000Y505000D03*
X860000Y380000D03*
X860000Y420000D03*
X935000Y380000D03*
X790000Y335000D03*
X705000Y340000D03*
X775000Y415000D03*
X720000Y295000D03*
X700000Y300000D03*
X790000Y300000D03*
X940000Y270000D03*
X891000Y275000D03*
X415000Y280000D03*
X455000Y265000D03*
X535000Y265000D03*
X750000Y220000D03*
X590000Y245000D03*
X675000Y310000D03*
X695000Y340000D03*
X430000Y275000D03*
X830000Y210000D03*
X510000Y145000D03*
X765000Y145000D03*
X845000Y275000D03*
X560000Y155000D03*
X845000Y185000D03*
X930000Y265000D03*
X630000Y255000D03*
X715000Y360000D03*
X445000Y320000D03*
X825000Y225000D03*
X525000Y330000D03*
X785000Y380000D03*
X890000Y290000D03*
X585000Y340000D03*
X355000Y315000D03*
X600000Y235000D03*
X940000Y255000D03*
X805000Y735000D03*
X815000Y350000D03*
X820000Y95000D03*
X155000Y125000D03*
X110000Y170000D03*
X285000Y195000D03*
X250000Y85000D03*
X155000Y195000D03*
X75000Y140000D03*
X310000Y175000D03*
X210000Y95000D03*
X205000Y155000D03*
X80000Y80000D03*
M02*
