M48
;GenerationSoftware,Autodesk,EAGLE,9.3.0*%
;CreationDate,2020-02-10T07:35:48Z*%
FMAT,2
ICI,OFF
METRIC,TZ,000.000
T3C0.350
T2C1.016
T1C2.200
%
G90
M71
T1
X2500Y2500
X97500Y2500
X97500Y97500
X2500Y97500
T2
X97000Y29920
X97000Y47700
X97000Y45160
X97000Y42620
X97000Y40080
X97000Y37540
X97000Y35000
X97000Y32460
T3
X20000Y62500
X16500Y86000
X28000Y68500
X32500Y67500
X38000Y74500
X32500Y74500
X45000Y74500
X53000Y74500
X56500Y76000
X15500Y78000
X12000Y68500
X14000Y70000
X22000Y70000
X31500Y70000
X37500Y66500
X35500Y66000
X52000Y60500
X54000Y62000
X10500Y60500
X13500Y62000
X14500Y58500
X22000Y58500
X46000Y58000
X38000Y58000
X11500Y60000
X15500Y61000
X23500Y61000
X38000Y50500
X31000Y50500
X46000Y50500
X54000Y50500
X24000Y54000
X33000Y63000
X25000Y63500
X26000Y70500
X7500Y72000
X12500Y60000
X33500Y71000
X33100Y64900
X38000Y70000
X44500Y61000
X52500Y67500
X60000Y64000
X35000Y57300
X31500Y66200
X74000Y29800
X75700Y46300
X14700Y2100
X17500Y14900
X15300Y10600
X72000Y5200
X74000Y13600
X42000Y69000
X42000Y62000
X42000Y48000
X40000Y56000
X89500Y23900
X91000Y44000
X90000Y31000
X26000Y17000
X26000Y11000
X68500Y9500
X90000Y16000
X86000Y10000
X88000Y18000
X96000Y49000
X98000Y49500
X74300Y22600
X75000Y34000
X78000Y86000
X78000Y90500
X72900Y21000
X82500Y23500
X70000Y74500
X77500Y74500
X85500Y74500
X93500Y74500
X81000Y29000
X80500Y48500
X78500Y50500
X70000Y50500
X85500Y50500
X93500Y50500
X86000Y38000
X86000Y42000
X93500Y38000
X79000Y33500
X70500Y34000
X77500Y41500
X72000Y29500
X70000Y30000
X79000Y30000
X94000Y27000
X89100Y27500
X41500Y28000
X45500Y26500
X53500Y26500
X75000Y22000
X59000Y24500
X67500Y31000
X69500Y34000
X43000Y27500
X83000Y21000
X51000Y14500
X76500Y14500
X84500Y27500
X13500Y94000
X84500Y18500
X93000Y26500
X63000Y25500
X71500Y36000
X44500Y32000
X82500Y22500
X52500Y33000
X78500Y38000
X89000Y29000
X58500Y34000
X35500Y31500
X60000Y23500
X94000Y25500
X80500Y73500
X81500Y35000
X82000Y9500
X15500Y12500
X11000Y17000
X56000Y15500
X25000Y8500
X15500Y19500
X7500Y14000
X31000Y17500
X21000Y9500
X20500Y15500
X8000Y8000
X10500Y97000
X29500Y94000
X45500Y94000
X53500Y94000
X56500Y92500
X34300Y59500
X35500Y84500
X31500Y86000
X45500Y86000
X53500Y86000
X56500Y84500
X28500Y19500
M30